<?xml version="1.0" encoding="UTF-8"?>
<svg xmlns="http://www.w3.org/2000/svg" width="800" height="600">
  <rect width="100%" height="100%" fill="#1a1a2e"/>
  <g transform="translate(20,580) scale(3.613369467028004,-3.613369467028004) translate(-0.0,-0.0)">
    <polygon points="0.0,0.0 202.08,0.0 202.08,154.98 0.0,154.98" fill="#CCCCCC" fill-opacity="0.3" stroke="#CCCCCC" stroke-width="0.08302499999999999"/>
    <polygon points="143.82999999999998,153.98 144.13,153.98 144.13,154.98 143.82999999999998,154.98" fill="#FF6347" fill-opacity="0.9" stroke="#FF6347" stroke-width="0.08302499999999999"/>
    <polygon points="146.59,153.98 146.89000000000001,153.98 146.89000000000001,154.98 146.59,154.98" fill="#FF6347" fill-opacity="0.9" stroke="#FF6347" stroke-width="0.08302499999999999"/>
    <polygon points="141.07,153.98 141.37,153.98 141.37,154.98 141.07,154.98" fill="#FF6347" fill-opacity="0.9" stroke="#FF6347" stroke-width="0.08302499999999999"/>
    <polygon points="138.31,153.98 138.61,153.98 138.61,154.98 138.31,154.98" fill="#FF6347" fill-opacity="0.9" stroke="#FF6347" stroke-width="0.08302499999999999"/>
    <polygon points="135.54999999999998,153.98 135.85,153.98 135.85,154.98 135.54999999999998,154.98" fill="#FF6347" fill-opacity="0.9" stroke="#FF6347" stroke-width="0.08302499999999999"/>
    <polygon points="132.79,153.98 133.09,153.98 133.09,154.98 132.79,154.98" fill="#FF6347" fill-opacity="0.9" stroke="#FF6347" stroke-width="0.08302499999999999"/>
    <polygon points="130.03,153.98 130.33,153.98 130.33,154.98 130.03,154.98" fill="#FF6347" fill-opacity="0.9" stroke="#FF6347" stroke-width="0.08302499999999999"/>
    <polygon points="127.27,153.98 127.57000000000001,153.98 127.57000000000001,154.98 127.27,154.98" fill="#FF6347" fill-opacity="0.9" stroke="#FF6347" stroke-width="0.08302499999999999"/>
    <polygon points="124.50999999999999,153.98 124.81,153.98 124.81,154.98 124.50999999999999,154.98" fill="#FF6347" fill-opacity="0.9" stroke="#FF6347" stroke-width="0.08302499999999999"/>
    <polygon points="121.75,153.98 122.05000000000001,153.98 122.05000000000001,154.98 121.75,154.98" fill="#FF6347" fill-opacity="0.9" stroke="#FF6347" stroke-width="0.08302499999999999"/>
    <polygon points="118.99,153.98 119.29,153.98 119.29,154.98 118.99,154.98" fill="#FF6347" fill-opacity="0.9" stroke="#FF6347" stroke-width="0.08302499999999999"/>
    <polygon points="116.22999999999999,153.98 116.53,153.98 116.53,154.98 116.22999999999999,154.98" fill="#FF6347" fill-opacity="0.9" stroke="#FF6347" stroke-width="0.08302499999999999"/>
    <polygon points="113.47,153.98 113.77000000000001,153.98 113.77000000000001,154.98 113.47,154.98" fill="#FF6347" fill-opacity="0.9" stroke="#FF6347" stroke-width="0.08302499999999999"/>
    <polygon points="110.71,153.98 111.01,153.98 111.01,154.98 110.71,154.98" fill="#FF6347" fill-opacity="0.9" stroke="#FF6347" stroke-width="0.08302499999999999"/>
    <polygon points="107.94999999999999,153.98 108.25,153.98 108.25,154.98 107.94999999999999,154.98" fill="#FF6347" fill-opacity="0.9" stroke="#FF6347" stroke-width="0.08302499999999999"/>
    <polygon points="105.19,153.98 105.49000000000001,153.98 105.49000000000001,154.98 105.19,154.98" fill="#FF6347" fill-opacity="0.9" stroke="#FF6347" stroke-width="0.08302499999999999"/>
    <polygon points="102.42999999999999,153.98 102.73,153.98 102.73,154.98 102.42999999999999,154.98" fill="#FF6347" fill-opacity="0.9" stroke="#FF6347" stroke-width="0.08302499999999999"/>
    <polygon points="99.66999999999999,153.98 99.97,153.98 99.97,154.98 99.66999999999999,154.98" fill="#FF6347" fill-opacity="0.9" stroke="#FF6347" stroke-width="0.08302499999999999"/>
    <polygon points="96.91,153.98 97.21000000000001,153.98 97.21000000000001,154.98 96.91,154.98" fill="#FF6347" fill-opacity="0.9" stroke="#FF6347" stroke-width="0.08302499999999999"/>
    <polygon points="49.99,153.98 50.29,153.98 50.29,154.98 49.99,154.98" fill="#FF6347" fill-opacity="0.9" stroke="#FF6347" stroke-width="0.08302499999999999"/>
    <polygon points="47.230000000000004,153.98 47.53,153.98 47.53,154.98 47.230000000000004,154.98" fill="#FF6347" fill-opacity="0.9" stroke="#FF6347" stroke-width="0.08302499999999999"/>
    <polygon points="44.47,153.98 44.769999999999996,153.98 44.769999999999996,154.98 44.47,154.98" fill="#FF6347" fill-opacity="0.9" stroke="#FF6347" stroke-width="0.08302499999999999"/>
    <polygon points="41.71,153.98 42.01,153.98 42.01,154.98 41.71,154.98" fill="#FF6347" fill-opacity="0.9" stroke="#FF6347" stroke-width="0.08302499999999999"/>
    <polygon points="38.95,153.98 39.25,153.98 39.25,154.98 38.95,154.98" fill="#FF6347" fill-opacity="0.9" stroke="#FF6347" stroke-width="0.08302499999999999"/>
    <polygon points="36.190000000000005,153.98 36.49,153.98 36.49,154.98 36.190000000000005,154.98" fill="#FF6347" fill-opacity="0.9" stroke="#FF6347" stroke-width="0.08302499999999999"/>
    <polygon points="33.43,153.98 33.73,153.98 33.73,154.98 33.43,154.98" fill="#FF6347" fill-opacity="0.9" stroke="#FF6347" stroke-width="0.08302499999999999"/>
    <polygon points="30.67,153.98 30.97,153.98 30.97,154.98 30.67,154.98" fill="#FF6347" fill-opacity="0.9" stroke="#FF6347" stroke-width="0.08302499999999999"/>
    <polygon points="72.07,153.98 72.37,153.98 72.37,154.98 72.07,154.98" fill="#FF6347" fill-opacity="0.9" stroke="#FF6347" stroke-width="0.08302499999999999"/>
    <polygon points="69.30999999999999,153.98 69.61,153.98 69.61,154.98 69.30999999999999,154.98" fill="#FF6347" fill-opacity="0.9" stroke="#FF6347" stroke-width="0.08302499999999999"/>
    <polygon points="66.55,153.98 66.85000000000001,153.98 66.85000000000001,154.98 66.55,154.98" fill="#FF6347" fill-opacity="0.9" stroke="#FF6347" stroke-width="0.08302499999999999"/>
    <polygon points="63.79,153.98 64.09,153.98 64.09,154.98 63.79,154.98" fill="#FF6347" fill-opacity="0.9" stroke="#FF6347" stroke-width="0.08302499999999999"/>
    <polygon points="61.03,153.98 61.33,153.98 61.33,154.98 61.03,154.98" fill="#FF6347" fill-opacity="0.9" stroke="#FF6347" stroke-width="0.08302499999999999"/>
    <polygon points="58.27,153.98 58.57,153.98 58.57,154.98 58.27,154.98" fill="#FF6347" fill-opacity="0.9" stroke="#FF6347" stroke-width="0.08302499999999999"/>
    <polygon points="55.51,153.98 55.809999999999995,153.98 55.809999999999995,154.98 55.51,154.98" fill="#FF6347" fill-opacity="0.9" stroke="#FF6347" stroke-width="0.08302499999999999"/>
    <polygon points="52.75,153.98 53.05,153.98 53.05,154.98 52.75,154.98" fill="#FF6347" fill-opacity="0.9" stroke="#FF6347" stroke-width="0.08302499999999999"/>
    <polygon points="94.14999999999999,153.98 94.45,153.98 94.45,154.98 94.14999999999999,154.98" fill="#FF6347" fill-opacity="0.9" stroke="#FF6347" stroke-width="0.08302499999999999"/>
    <polygon points="91.39,153.98 91.69000000000001,153.98 91.69000000000001,154.98 91.39,154.98" fill="#FF6347" fill-opacity="0.9" stroke="#FF6347" stroke-width="0.08302499999999999"/>
    <polygon points="88.63,153.98 88.93,153.98 88.93,154.98 88.63,154.98" fill="#FF6347" fill-opacity="0.9" stroke="#FF6347" stroke-width="0.08302499999999999"/>
    <polygon points="85.86999999999999,153.98 86.17,153.98 86.17,154.98 85.86999999999999,154.98" fill="#FF6347" fill-opacity="0.9" stroke="#FF6347" stroke-width="0.08302499999999999"/>
    <polygon points="83.11,153.98 83.41000000000001,153.98 83.41000000000001,154.98 83.11,154.98" fill="#FF6347" fill-opacity="0.9" stroke="#FF6347" stroke-width="0.08302499999999999"/>
    <polygon points="80.35,153.98 80.65,153.98 80.65,154.98 80.35,154.98" fill="#FF6347" fill-opacity="0.9" stroke="#FF6347" stroke-width="0.08302499999999999"/>
    <polygon points="77.58999999999999,153.98 77.89,153.98 77.89,154.98 77.58999999999999,154.98" fill="#FF6347" fill-opacity="0.9" stroke="#FF6347" stroke-width="0.08302499999999999"/>
    <polygon points="74.83,153.98 75.13000000000001,153.98 75.13000000000001,154.98 74.83,154.98" fill="#FF6347" fill-opacity="0.9" stroke="#FF6347" stroke-width="0.08302499999999999"/>
    <polygon points="0.5,1.0 1.5,1.0 1.5,153.98 0.5,153.98" fill="#FF6347" fill-opacity="0.9" stroke="#FF6347" stroke-width="0.08302499999999999"/>
    <polygon points="2.5,1.0 3.5,1.0 3.5,153.98 2.5,153.98" fill="#FF6347" fill-opacity="0.9" stroke="#FF6347" stroke-width="0.08302499999999999"/>
    <polygon points="48.258750000000006,76.45875 48.258750000000006,76.64625 47.883750000000006,76.64625 47.883750000000006,78.70875 48.258750000000006,78.70875 48.258750000000006,78.89625 47.508750000000006,78.89625 47.508750000000006,76.45875" fill="#4169E1" fill-opacity="0.9" stroke="#4169E1" stroke-width="0.08302499999999999"/>
    <polygon points="49.758750000000006,78.70875 49.758750000000006,77.95875 49.196250000000006,77.95875 49.196250000000006,77.77125 49.008750000000006,77.77125 49.008750000000006,76.83375 49.383750000000006,76.83375 49.383750000000006,77.77125 49.758750000000006,77.77125 49.758750000000006,76.83375 49.383750000000006,76.83375 49.008750000000006,76.83375 49.196250000000006,76.83375 49.196250000000006,76.64625 50.133750000000006,76.64625 50.133750000000006,78.70875" fill="#4169E1" fill-opacity="0.9" stroke="#4169E1" stroke-width="0.08302499999999999"/>
    <polygon points="50.883750000000006,76.83375 50.883750000000006,76.64625 51.633750000000006,76.64625 51.633750000000006,76.83375 51.071250000000006,76.83375 51.071250000000006,77.20875 51.821250000000006,77.20875 51.821250000000006,77.77125 51.633750000000006,77.77125 51.633750000000006,77.95875 50.883750000000006,77.95875 50.883750000000006,77.77125 50.696250000000006,77.77125 50.696250000000006,77.39625 51.071250000000006,77.39625 51.071250000000006,77.77125 51.446250000000006,77.77125 51.446250000000006,77.39625 51.071250000000006,77.39625 50.696250000000006,77.39625 50.696250000000006,76.83375" fill="#4169E1" fill-opacity="0.9" stroke="#4169E1" stroke-width="0.08302499999999999"/>
    <polygon points="52.571250000000006,77.95875 52.383750000000006,77.95875 52.383750000000006,77.77125 52.571250000000006,77.77125 52.571250000000006,76.64625 52.946250000000006,76.64625 52.946250000000006,77.77125 53.508750000000006,77.77125 53.508750000000006,77.95875 52.946250000000006,77.95875 52.946250000000006,78.52125 53.508750000000006,78.52125 53.508750000000006,78.70875 52.758750000000006,78.70875 52.758750000000006,78.52125 52.571250000000006,78.52125" fill="#4169E1" fill-opacity="0.9" stroke="#4169E1" stroke-width="0.08302499999999999"/>
    <polygon points="55.008750000000006,77.77125 55.008750000000006,77.95875 54.258750000000006,77.95875 54.258750000000006,77.77125 54.821250000000006,77.77125 54.821250000000006,77.58375 54.258750000000006,77.58375 54.258750000000006,77.39625 54.071250000000006,77.39625 54.071250000000006,76.83375 54.446250000000006,76.83375 54.446250000000006,77.39625 54.821250000000006,77.39625 54.821250000000006,76.83375 54.446250000000006,76.83375 54.071250000000006,76.83375 54.258750000000006,76.83375 54.258750000000006,76.64625 55.196250000000006,76.64625 55.196250000000006,77.77125" fill="#4169E1" fill-opacity="0.9" stroke="#4169E1" stroke-width="0.08302499999999999"/>
    <polygon points="55.946250000000006,76.83375 55.946250000000006,76.64625 56.883750000000006,76.64625 56.883750000000006,77.95875 56.508750000000006,77.95875 56.508750000000006,76.83375 56.133750000000006,76.83375 56.133750000000006,77.95875 55.758750000000006,77.95875 55.758750000000006,76.83375" fill="#4169E1" fill-opacity="0.9" stroke="#4169E1" stroke-width="0.08302499999999999"/>
    <polygon points="57.821250000000006,76.64625 58.571250000000006,76.64625 58.571250000000006,76.83375 58.196250000000006,76.83375 58.196250000000006,78.70875 57.446250000000006,78.70875 57.446250000000006,78.52125 57.821250000000006,78.52125" fill="#4169E1" fill-opacity="0.9" stroke="#4169E1" stroke-width="0.08302499999999999"/>
    <polygon points="59.133750000000006,77.95875 59.133750000000006,77.77125 59.321250000000006,77.77125 59.321250000000006,76.83375 59.508750000000006,76.83375 59.508750000000006,76.64625 60.258750000000006,76.64625 60.258750000000006,76.83375 59.696250000000006,76.83375 59.696250000000006,77.77125 60.258750000000006,77.77125 60.258750000000006,77.95875 59.696250000000006,77.95875 59.696250000000006,78.52125 59.321250000000006,78.52125 59.321250000000006,77.95875" fill="#4169E1" fill-opacity="0.9" stroke="#4169E1" stroke-width="0.08302499999999999"/>
    <polygon points="61.383750000000006,76.64625 61.008750000000006,76.64625 61.008750000000006,76.45875 61.758750000000006,76.45875 61.758750000000006,78.89625 61.008750000000006,78.89625 61.008750000000006,78.70875 61.383750000000006,78.70875" fill="#4169E1" fill-opacity="0.9" stroke="#4169E1" stroke-width="0.08302499999999999"/>
    <polygon points="48.258750000000006,74.02125 48.258750000000006,74.20875 47.508750000000006,74.20875 47.508750000000006,74.02125 48.071250000000006,74.02125 48.071250000000006,73.83375 47.508750000000006,73.83375 47.508750000000006,73.64625 47.321250000000006,73.64625 47.321250000000006,73.08375 47.696250000000006,73.08375 47.696250000000006,73.64625 48.071250000000006,73.64625 48.071250000000006,73.08375 47.696250000000006,73.08375 47.321250000000006,73.08375 47.508750000000006,73.08375 47.508750000000006,72.89625 48.446250000000006,72.89625 48.446250000000006,74.02125" fill="#4169E1" fill-opacity="0.9" stroke="#4169E1" stroke-width="0.08302499999999999"/>
    <polygon points="49.008750000000006,73.27125 49.008750000000006,72.89625 49.383750000000006,72.89625 49.383750000000006,73.08375 49.571250000000006,73.08375 49.571250000000006,72.89625 49.946250000000006,72.89625 49.946250000000006,73.27125 50.133750000000006,73.27125 50.133750000000006,74.20875 49.758750000000006,74.20875 49.758750000000006,73.27125 49.571250000000006,73.27125 49.571250000000006,73.83375 49.383750000000006,73.83375 49.383750000000006,73.27125 49.196250000000006,73.27125 49.196250000000006,74.20875 48.821250000000006,74.20875 48.821250000000006,73.27125" fill="#4169E1" fill-opacity="0.9" stroke="#4169E1" stroke-width="0.08302499999999999"/>
    <polygon points="50.696250000000006,73.64625 50.883750000000006,73.64625 50.883750000000006,73.45875 51.446250000000006,73.45875 51.446250000000006,73.08375 50.696250000000006,73.08375 50.696250000000006,72.89625 51.633750000000006,72.89625 51.633750000000006,73.08375 51.821250000000006,73.08375 51.821250000000006,73.45875 51.633750000000006,73.45875 51.633750000000006,73.64625 51.071250000000006,73.64625 51.071250000000006,74.02125 51.821250000000006,74.02125 51.821250000000006,74.20875 50.883750000000006,74.20875 50.883750000000006,74.02125 50.696250000000006,74.02125" fill="#4169E1" fill-opacity="0.9" stroke="#4169E1" stroke-width="0.08302499999999999"/>
    <polygon points="53.696250000000006,72.52125 52.196250000000006,72.52125 52.196250000000006,72.33375 53.696250000000006,72.33375" fill="#4169E1" fill-opacity="0.9" stroke="#4169E1" stroke-width="0.08302499999999999"/>
    <polygon points="55.008750000000006,74.02125 55.008750000000006,74.20875 54.258750000000006,74.20875 54.258750000000006,74.02125 54.821250000000006,74.02125 54.821250000000006,73.83375 54.258750000000006,73.83375 54.258750000000006,73.64625 54.071250000000006,73.64625 54.071250000000006,73.08375 54.446250000000006,73.08375 54.446250000000006,73.64625 54.821250000000006,73.64625 54.821250000000006,73.08375 54.446250000000006,73.08375 54.071250000000006,73.08375 54.258750000000006,73.08375 54.258750000000006,72.89625 55.196250000000006,72.89625 55.196250000000006,74.02125" fill="#4169E1" fill-opacity="0.9" stroke="#4169E1" stroke-width="0.08302499999999999"/>
    <polygon points="55.758750000000006,73.08375 55.946250000000006,73.08375 55.946250000000006,72.89625 56.696250000000006,72.89625 56.696250000000006,73.08375 56.883750000000006,73.08375 56.883750000000006,73.27125 56.508750000000006,73.27125 56.508750000000006,73.08375 56.133750000000006,73.08375 56.133750000000006,74.02125 56.508750000000006,74.02125 56.508750000000006,73.83375 56.883750000000006,73.83375 56.883750000000006,74.02125 56.696250000000006,74.02125 56.696250000000006,74.20875 55.946250000000006,74.20875 55.946250000000006,74.02125 55.758750000000006,74.02125" fill="#4169E1" fill-opacity="0.9" stroke="#4169E1" stroke-width="0.08302499999999999"/>
    <polygon points="57.446250000000006,73.08375 57.633750000000006,73.08375 57.633750000000006,72.89625 58.383750000000006,72.89625 58.383750000000006,73.08375 58.571250000000006,73.08375 58.571250000000006,73.27125 58.196250000000006,73.27125 58.196250000000006,73.08375 57.821250000000006,73.08375 57.821250000000006,74.02125 58.196250000000006,74.02125 58.196250000000006,73.83375 58.571250000000006,73.83375 58.571250000000006,74.02125 58.383750000000006,74.02125 58.383750000000006,74.20875 57.633750000000006,74.20875 57.633750000000006,74.02125 57.446250000000006,74.02125" fill="#4169E1" fill-opacity="0.9" stroke="#4169E1" stroke-width="0.08302499999999999"/>
    <polygon points="59.321250000000006,73.08375 59.321250000000006,72.89625 60.071250000000006,72.89625 60.071250000000006,73.08375 59.508750000000006,73.08375 59.508750000000006,73.45875 60.258750000000006,73.45875 60.258750000000006,74.02125 60.071250000000006,74.02125 60.071250000000006,74.20875 59.321250000000006,74.20875 59.321250000000006,74.02125 59.133750000000006,74.02125 59.133750000000006,73.64625 59.508750000000006,73.64625 59.508750000000006,74.02125 59.883750000000006,74.02125 59.883750000000006,73.64625 59.508750000000006,73.64625 59.133750000000006,73.64625 59.133750000000006,73.08375" fill="#4169E1" fill-opacity="0.9" stroke="#4169E1" stroke-width="0.08302499999999999"/>
    <polygon points="60.821250000000006,73.64625 61.008750000000006,73.64625 61.008750000000006,73.45875 61.571250000000006,73.45875 61.571250000000006,73.08375 60.821250000000006,73.08375 60.821250000000006,72.89625 61.758750000000006,72.89625 61.758750000000006,73.08375 61.946250000000006,73.08375 61.946250000000006,73.45875 61.758750000000006,73.45875 61.758750000000006,73.64625 61.196250000000006,73.64625 61.196250000000006,74.02125 61.946250000000006,74.02125 61.946250000000006,74.20875 61.008750000000006,74.20875 61.008750000000006,74.02125 60.821250000000006,74.02125" fill="#4169E1" fill-opacity="0.9" stroke="#4169E1" stroke-width="0.08302499999999999"/>
    <polygon points="62.508750000000006,73.64625 62.696250000000006,73.64625 62.696250000000006,73.45875 63.258750000000006,73.45875 63.258750000000006,73.08375 62.508750000000006,73.08375 62.508750000000006,72.89625 63.446250000000006,72.89625 63.446250000000006,73.08375 63.633750000000006,73.08375 63.633750000000006,73.45875 63.446250000000006,73.45875 63.446250000000006,73.64625 62.883750000000006,73.64625 62.883750000000006,74.02125 63.633750000000006,74.02125 63.633750000000006,74.20875 62.696250000000006,74.20875 62.696250000000006,74.02125 62.508750000000006,74.02125" fill="#4169E1" fill-opacity="0.9" stroke="#4169E1" stroke-width="0.08302499999999999"/>
    <polygon points="65.50875,72.52125 64.00875,72.52125 64.00875,72.33375 65.50875,72.33375" fill="#4169E1" fill-opacity="0.9" stroke="#4169E1" stroke-width="0.08302499999999999"/>
    <polygon points="66.25875,72.89625 66.25875,73.45875 66.44625,73.45875 66.44625,73.27125 66.63375,73.27125 66.63375,72.89625 67.00875,72.89625 67.00875,73.27125 66.82125,73.27125 66.82125,73.45875 66.63375,73.45875 66.63375,73.64625 66.82125,73.64625 66.82125,73.83375 67.00875,73.83375 67.00875,74.20875 66.63375,74.20875 66.63375,73.83375 66.44625,73.83375 66.44625,73.64625 66.25875,73.64625 66.25875,74.95875 65.88375,74.95875 65.88375,72.89625" fill="#4169E1" fill-opacity="0.9" stroke="#4169E1" stroke-width="0.08302499999999999"/>
    <polygon points="67.75875,73.08375 67.75875,72.89625 68.50875,72.89625 68.50875,73.08375 67.94625,73.08375 67.94625,73.45875 68.69625,73.45875 68.69625,74.02125 68.50875,74.02125 68.50875,74.20875 67.75875,74.20875 67.75875,74.02125 67.57125,74.02125 67.57125,73.64625 67.94625,73.64625 67.94625,74.02125 68.32125,74.02125 68.32125,73.64625 67.94625,73.64625 67.57125,73.64625 67.57125,73.08375" fill="#4169E1" fill-opacity="0.9" stroke="#4169E1" stroke-width="0.08302499999999999"/>
    <polygon points="69.44625,73.08375 69.44625,72.89625 70.00875,72.89625 70.00875,72.52125 69.44625,72.52125 69.44625,72.33375 70.19625,72.33375 70.19625,72.52125 70.38375,72.52125 70.38375,74.20875 70.00875,74.20875 70.00875,73.08375 69.63375,73.08375 69.63375,74.20875 69.25875,74.20875 69.25875,73.08375" fill="#4169E1" fill-opacity="0.9" stroke="#4169E1" stroke-width="0.08302499999999999"/>
    <polygon points="72.25875,72.52125 70.75875,72.52125 70.75875,72.33375 72.25875,72.33375" fill="#4169E1" fill-opacity="0.9" stroke="#4169E1" stroke-width="0.08302499999999999"/>
    <polygon points="73.38375,74.58375 73.38375,74.95875 73.00875,74.95875 73.00875,74.58375" fill="#4169E1" fill-opacity="0.9" stroke="#4169E1" stroke-width="0.08302499999999999"/>
    <polygon points="73.00875,72.89625 73.75875,72.89625 73.75875,73.08375 73.38375,73.08375 73.38375,74.20875 72.63375,74.20875 72.63375,74.02125 73.00875,74.02125" fill="#4169E1" fill-opacity="0.9" stroke="#4169E1" stroke-width="0.08302499999999999"/>
    <polygon points="75.07125,74.95875 75.07125,74.20875 74.50875,74.20875 74.50875,74.02125 74.32125,74.02125 74.32125,73.08375 74.69625,73.08375 74.69625,74.02125 75.07125,74.02125 75.07125,73.08375 74.69625,73.08375 74.32125,73.08375 74.50875,73.08375 74.50875,72.89625 75.44625,72.89625 75.44625,74.95875" fill="#4169E1" fill-opacity="0.9" stroke="#4169E1" stroke-width="0.08302499999999999"/>
    <polygon points="78.82125,74.39625 77.69625,74.39625 77.69625,74.20875 78.82125,74.20875" fill="#4169E1" fill-opacity="0.9" stroke="#4169E1" stroke-width="0.08302499999999999"/>
    <polygon points="78.82125,73.64625 77.69625,73.64625 77.69625,73.45875 78.82125,73.45875" fill="#4169E1" fill-opacity="0.9" stroke="#4169E1" stroke-width="0.08302499999999999"/>
    <polygon points="81.44625,72.89625 81.44625,73.83375 81.82125,73.83375 81.82125,72.89625 82.19625,72.89625 82.19625,74.58375 82.00875,74.58375 82.00875,74.77125 81.82125,74.77125 81.82125,74.95875 81.44625,74.95875 81.44625,74.77125 81.25875,74.77125 81.25875,74.58375 81.07125,74.58375 81.07125,74.02125 81.44625,74.02125 81.44625,74.58375 81.82125,74.58375 81.82125,74.02125 81.44625,74.02125 81.07125,74.02125 81.07125,72.89625" fill="#4169E1" fill-opacity="0.9" stroke="#4169E1" stroke-width="0.08302499999999999"/>
    <polygon points="82.94625,72.89625 82.94625,73.83375 83.13375,73.83375 83.13375,73.64625 83.32125,73.64625 83.32125,73.27125 83.50875,73.27125 83.50875,72.89625 83.88375,72.89625 83.88375,73.27125 83.69625,73.27125 83.69625,73.64625 83.50875,73.64625 83.50875,73.83375 83.32125,73.83375 83.32125,74.02125 83.50875,74.02125 83.50875,74.20875 83.69625,74.20875 83.69625,74.58375 83.88375,74.58375 83.88375,74.95875 83.50875,74.95875 83.50875,74.58375 83.32125,74.58375 83.32125,74.20875 83.13375,74.20875 83.13375,74.02125 82.94625,74.02125 82.94625,74.95875 82.57125,74.95875 82.57125,72.89625" fill="#4169E1" fill-opacity="0.9" stroke="#4169E1" stroke-width="0.08302499999999999"/>
    <polygon points="84.44625,73.08375 84.44625,72.89625 85.57125,72.89625 85.57125,73.08375 85.19625,73.08375 85.19625,74.77125 85.57125,74.77125 85.57125,74.95875 84.44625,74.95875 84.44625,74.77125 84.82125,74.77125 84.82125,73.08375" fill="#4169E1" fill-opacity="0.9" stroke="#4169E1" stroke-width="0.08302499999999999"/>
    <polygon points="86.50875,72.89625 86.50875,73.83375 86.88375,73.83375 86.88375,72.89625 87.25875,72.89625 87.25875,74.58375 87.07125,74.58375 87.07125,74.77125 86.88375,74.77125 86.88375,74.95875 86.50875,74.95875 86.50875,74.77125 86.32125,74.77125 86.32125,74.58375 86.13375,74.58375 86.13375,74.02125 86.50875,74.02125 86.50875,74.58375 86.88375,74.58375 86.88375,74.02125 86.50875,74.02125 86.13375,74.02125 86.13375,72.89625" fill="#4169E1" fill-opacity="0.9" stroke="#4169E1" stroke-width="0.08302499999999999"/>
    <polygon points="87.82125,74.58375 87.82125,74.39625 88.00875,74.39625 88.00875,74.20875 88.19625,74.20875 88.19625,73.64625 88.00875,73.64625 88.00875,73.45875 87.82125,73.45875 87.82125,73.27125 87.63375,73.27125 87.63375,72.89625 88.00875,72.89625 88.00875,73.27125 88.19625,73.27125 88.19625,73.45875 88.57125,73.45875 88.57125,73.27125 88.75875,73.27125 88.75875,72.89625 89.13375,72.89625 89.13375,73.27125 88.94625,73.27125 88.94625,73.45875 88.75875,73.45875 88.75875,73.64625 88.57125,73.64625 88.57125,74.20875 88.75875,74.20875 88.75875,74.39625 88.94625,74.39625 88.94625,74.58375 89.13375,74.58375 89.13375,74.95875 88.75875,74.95875 88.75875,74.58375 88.57125,74.58375 88.57125,74.39625 88.19625,74.39625 88.19625,74.58375 88.00875,74.58375 88.00875,74.95875 87.63375,74.95875 87.63375,74.58375" fill="#4169E1" fill-opacity="0.9" stroke="#4169E1" stroke-width="0.08302499999999999"/>
    <polygon points="89.50875,74.39625 89.88375,74.39625 89.88375,74.77125 90.25875,74.77125 90.25875,74.02125 90.07125,74.02125 90.07125,73.83375 89.88375,73.83375 89.88375,73.64625 89.69625,73.64625 89.69625,73.45875 89.50875,73.45875 89.50875,72.89625 90.63375,72.89625 90.63375,73.08375 89.88375,73.08375 89.88375,73.45875 90.07125,73.45875 90.07125,73.64625 90.25875,73.64625 90.25875,73.83375 90.44625,73.83375 90.44625,74.02125 90.63375,74.02125 90.63375,74.77125 90.44625,74.77125 90.44625,74.95875 89.69625,74.95875 89.69625,74.77125 89.50875,74.77125" fill="#4169E1" fill-opacity="0.9" stroke="#4169E1" stroke-width="0.08302499999999999"/>
    <polygon points="92.13375,72.89625 92.13375,73.64625 92.32125,73.64625 92.32125,73.83375 92.13375,73.83375 92.13375,74.95875 91.75875,74.95875 91.75875,74.77125 91.57125,74.77125 91.57125,74.58375 91.38375,74.58375 91.38375,74.39625 91.19625,74.39625 91.19625,74.20875 91.00875,74.20875 91.00875,73.83375 91.38375,73.83375 91.38375,74.20875 91.57125,74.20875 91.57125,74.39625 91.75875,74.39625 91.75875,73.83375 91.38375,73.83375 91.00875,73.83375 91.00875,73.64625 91.75875,73.64625 91.75875,72.89625" fill="#4169E1" fill-opacity="0.9" stroke="#4169E1" stroke-width="0.08302499999999999"/>
    <polygon points="93.44625,72.70875 93.63375,72.70875 93.63375,72.52125 94.00875,72.52125 94.00875,72.70875 93.82125,72.70875 93.82125,73.08375 94.00875,73.08375 94.00875,74.77125 93.82125,74.77125 93.82125,74.95875 93.07125,74.95875 93.07125,74.77125 92.88375,74.77125 92.88375,73.08375 93.25875,73.08375 93.25875,74.77125 93.63375,74.77125 93.63375,73.08375 93.25875,73.08375 92.88375,73.08375 93.07125,73.08375 93.07125,72.89625 93.44625,72.89625" fill="#4169E1" fill-opacity="0.9" stroke="#4169E1" stroke-width="0.08302499999999999"/>
    <polygon points="94.75875,72.89625 94.75875,73.83375 94.94625,73.83375 94.94625,73.64625 95.13375,73.64625 95.13375,73.27125 95.32125,73.27125 95.32125,72.89625 95.69625,72.89625 95.69625,73.27125 95.50875,73.27125 95.50875,73.64625 95.32125,73.64625 95.32125,73.83375 95.13375,73.83375 95.13375,74.02125 95.32125,74.02125 95.32125,74.20875 95.50875,74.20875 95.50875,74.58375 95.69625,74.58375 95.69625,74.95875 95.32125,74.95875 95.32125,74.58375 95.13375,74.58375 95.13375,74.20875 94.94625,74.20875 94.94625,74.02125 94.75875,74.02125 94.75875,74.95875 94.38375,74.95875 94.38375,72.89625" fill="#4169E1" fill-opacity="0.9" stroke="#4169E1" stroke-width="0.08302499999999999"/>
    <polygon points="96.44625,72.89625 96.44625,73.83375 96.63375,73.83375 96.63375,73.64625 96.82125,73.64625 96.82125,73.27125 97.00875,73.27125 97.00875,72.89625 97.38375,72.89625 97.38375,73.27125 97.19625,73.27125 97.19625,73.64625 97.00875,73.64625 97.00875,73.83375 96.82125,73.83375 96.82125,74.02125 97.00875,74.02125 97.00875,74.20875 97.19625,74.20875 97.19625,74.58375 97.38375,74.58375 97.38375,74.95875 97.00875,74.95875 97.00875,74.58375 96.82125,74.58375 96.82125,74.20875 96.63375,74.20875 96.63375,74.02125 96.44625,74.02125 96.44625,74.95875 96.07125,74.95875 96.07125,72.89625" fill="#4169E1" fill-opacity="0.9" stroke="#4169E1" stroke-width="0.08302499999999999"/>
    <polygon points="99.07125,74.77125 98.88375,74.77125 98.88375,74.95875 98.13375,74.95875 98.13375,74.77125 97.94625,74.77125 97.94625,73.08375 98.32125,73.08375 98.32125,74.77125 98.69625,74.77125 98.69625,73.08375 98.32125,73.08375 97.94625,73.08375 98.13375,73.08375 98.13375,72.89625 98.88375,72.89625 98.88375,73.08375 99.07125,73.08375" fill="#4169E1" fill-opacity="0.9" stroke="#4169E1" stroke-width="0.08302499999999999"/>
    <polygon points="100.75875,72.89625 100.75875,73.08375 100.00875,73.08375 100.00875,74.95875 99.63375,74.95875 99.63375,72.89625" fill="#4169E1" fill-opacity="0.9" stroke="#4169E1" stroke-width="0.08302499999999999"/>
    <polygon points="102.44625,72.89625 102.44625,73.08375 101.69625,73.08375 101.69625,74.95875 101.32125,74.95875 101.32125,72.89625" fill="#4169E1" fill-opacity="0.9" stroke="#4169E1" stroke-width="0.08302499999999999"/>
    <polygon points="103.00875,73.08375 103.00875,72.89625 104.13375,72.89625 104.13375,73.08375 103.75875,73.08375 103.75875,74.77125 104.13375,74.77125 104.13375,74.95875 103.00875,74.95875 103.00875,74.77125 103.38375,74.77125 103.38375,73.08375" fill="#4169E1" fill-opacity="0.9" stroke="#4169E1" stroke-width="0.08302499999999999"/>
    <polygon points="105.07125,72.89625 105.07125,73.83375 105.44625,73.83375 105.44625,72.89625 105.82125,72.89625 105.82125,74.95875 105.44625,74.95875 105.44625,74.02125 105.07125,74.02125 105.07125,74.95875 104.69625,74.95875 104.69625,72.89625" fill="#4169E1" fill-opacity="0.9" stroke="#4169E1" stroke-width="0.08302499999999999"/>
    <polygon points="106.57125,72.89625 106.57125,73.83375 106.75875,73.83375 106.75875,73.64625 106.94625,73.64625 106.94625,73.27125 107.13375,73.27125 107.13375,72.89625 107.50875,72.89625 107.50875,74.95875 107.13375,74.95875 107.13375,74.02125 106.94625,74.02125 106.94625,74.20875 106.75875,74.20875 106.75875,74.58375 106.57125,74.58375 106.57125,74.95875 106.19625,74.95875 106.19625,72.89625" fill="#4169E1" fill-opacity="0.9" stroke="#4169E1" stroke-width="0.08302499999999999"/>
    <polygon points="108.25875,72.89625 108.25875,73.08375 108.44625,73.08375 108.44625,73.45875 108.63375,73.45875 108.63375,73.08375 108.82125,73.08375 108.82125,72.89625 109.19625,72.89625 109.19625,74.95875 108.82125,74.95875 108.82125,73.64625 108.63375,73.64625 108.63375,74.02125 108.44625,74.02125 108.44625,73.64625 108.25875,73.64625 108.25875,74.95875 107.88375,74.95875 107.88375,72.89625" fill="#4169E1" fill-opacity="0.9" stroke="#4169E1" stroke-width="0.08302499999999999"/>
    <polygon points="110.13375,72.89625 110.13375,73.83375 110.69625,73.83375 110.69625,74.02125 110.88375,74.02125 110.88375,74.77125 110.69625,74.77125 110.69625,74.95875 109.75875,74.95875 109.75875,74.02125 110.13375,74.02125 110.13375,74.77125 110.50875,74.77125 110.50875,74.02125 110.13375,74.02125 109.75875,74.02125 109.75875,72.89625" fill="#4169E1" fill-opacity="0.9" stroke="#4169E1" stroke-width="0.08302499999999999"/>
    <polygon points="111.82125,72.89625 111.82125,74.02125 112.38375,74.02125 112.38375,74.20875 111.82125,74.20875 111.82125,74.77125 112.57125,74.77125 112.57125,74.95875 111.44625,74.95875 111.44625,72.89625" fill="#4169E1" fill-opacity="0.9" stroke="#4169E1" stroke-width="0.08302499999999999"/>
    <polygon points="113.13375,74.58375 113.13375,74.20875 113.32125,74.20875 113.32125,74.02125 113.50875,74.02125 113.50875,72.89625 113.88375,72.89625 113.88375,74.02125 114.07125,74.02125 114.07125,74.20875 114.25875,74.20875 114.25875,74.58375 114.44625,74.58375 114.44625,74.95875 114.07125,74.95875 114.07125,74.58375 113.88375,74.58375 113.88375,74.20875 113.50875,74.20875 113.50875,74.58375 113.32125,74.58375 113.32125,74.95875 112.94625,74.95875 112.94625,74.58375" fill="#4169E1" fill-opacity="0.9" stroke="#4169E1" stroke-width="0.08302499999999999"/>
    <polygon points="48.258750000000006,70.27125 48.258750000000006,70.45875 47.508750000000006,70.45875 47.508750000000006,70.27125 48.071250000000006,70.27125 48.071250000000006,70.08375 47.508750000000006,70.08375 47.508750000000006,69.89625 47.321250000000006,69.89625 47.321250000000006,69.33375 47.696250000000006,69.33375 47.696250000000006,69.89625 48.071250000000006,69.89625 48.071250000000006,69.33375 47.696250000000006,69.33375 47.321250000000006,69.33375 47.508750000000006,69.33375 47.508750000000006,69.14625 48.446250000000006,69.14625 48.446250000000006,70.27125" fill="#4169E1" fill-opacity="0.9" stroke="#4169E1" stroke-width="0.08302499999999999"/>
    <polygon points="49.008750000000006,69.52125 49.008750000000006,69.14625 49.383750000000006,69.14625 49.383750000000006,69.33375 49.571250000000006,69.33375 49.571250000000006,69.14625 49.946250000000006,69.14625 49.946250000000006,69.52125 50.133750000000006,69.52125 50.133750000000006,70.45875 49.758750000000006,70.45875 49.758750000000006,69.52125 49.571250000000006,69.52125 49.571250000000006,70.08375 49.383750000000006,70.08375 49.383750000000006,69.52125 49.196250000000006,69.52125 49.196250000000006,70.45875 48.821250000000006,70.45875 48.821250000000006,69.52125" fill="#4169E1" fill-opacity="0.9" stroke="#4169E1" stroke-width="0.08302499999999999"/>
    <polygon points="50.696250000000006,69.89625 50.883750000000006,69.89625 50.883750000000006,69.70875 51.446250000000006,69.70875 51.446250000000006,69.33375 50.696250000000006,69.33375 50.696250000000006,69.14625 51.633750000000006,69.14625 51.633750000000006,69.33375 51.821250000000006,69.33375 51.821250000000006,69.70875 51.633750000000006,69.70875 51.633750000000006,69.89625 51.071250000000006,69.89625 51.071250000000006,70.27125 51.821250000000006,70.27125 51.821250000000006,70.45875 50.883750000000006,70.45875 50.883750000000006,70.27125 50.696250000000006,70.27125" fill="#4169E1" fill-opacity="0.9" stroke="#4169E1" stroke-width="0.08302499999999999"/>
    <polygon points="53.696250000000006,68.77125 52.196250000000006,68.77125 52.196250000000006,68.58375 53.696250000000006,68.58375" fill="#4169E1" fill-opacity="0.9" stroke="#4169E1" stroke-width="0.08302499999999999"/>
    <polygon points="54.071250000000006,69.89625 54.258750000000006,69.89625 54.258750000000006,69.70875 54.821250000000006,69.70875 54.821250000000006,69.33375 54.071250000000006,69.33375 54.071250000000006,69.14625 55.008750000000006,69.14625 55.008750000000006,69.33375 55.196250000000006,69.33375 55.196250000000006,69.70875 55.008750000000006,69.70875 55.008750000000006,69.89625 54.446250000000006,69.89625 54.446250000000006,70.27125 55.196250000000006,70.27125 55.196250000000006,70.45875 54.258750000000006,70.45875 54.258750000000006,70.27125 54.071250000000006,70.27125" fill="#4169E1" fill-opacity="0.9" stroke="#4169E1" stroke-width="0.08302499999999999"/>
    <polygon points="55.946250000000006,69.33375 55.946250000000006,69.14625 56.696250000000006,69.14625 56.696250000000006,69.33375 56.133750000000006,69.33375 56.133750000000006,69.70875 56.883750000000006,69.70875 56.883750000000006,70.27125 56.696250000000006,70.27125 56.696250000000006,70.45875 55.946250000000006,70.45875 55.946250000000006,70.27125 55.758750000000006,70.27125 55.758750000000006,69.89625 56.133750000000006,69.89625 56.133750000000006,70.27125 56.508750000000006,70.27125 56.508750000000006,69.89625 56.133750000000006,69.89625 55.758750000000006,69.89625 55.758750000000006,69.33375" fill="#4169E1" fill-opacity="0.9" stroke="#4169E1" stroke-width="0.08302499999999999"/>
    <polygon points="57.446250000000006,69.33375 57.633750000000006,69.33375 57.633750000000006,69.14625 58.383750000000006,69.14625 58.383750000000006,69.33375 58.571250000000006,69.33375 58.571250000000006,69.52125 58.196250000000006,69.52125 58.196250000000006,69.33375 57.821250000000006,69.33375 57.821250000000006,70.27125 58.196250000000006,70.27125 58.196250000000006,70.08375 58.571250000000006,70.08375 58.571250000000006,70.27125 58.383750000000006,70.27125 58.383750000000006,70.45875 57.633750000000006,70.45875 57.633750000000006,70.27125 57.446250000000006,70.27125" fill="#4169E1" fill-opacity="0.9" stroke="#4169E1" stroke-width="0.08302499999999999"/>
    <polygon points="59.508750000000006,69.14625 59.508750000000006,70.27125 59.883750000000006,70.27125 59.883750000000006,69.89625 60.258750000000006,69.89625 60.258750000000006,70.27125 60.071250000000006,70.27125 60.071250000000006,70.45875 59.133750000000006,70.45875 59.133750000000006,69.14625" fill="#4169E1" fill-opacity="0.9" stroke="#4169E1" stroke-width="0.08302499999999999"/>
    <polygon points="61.008750000000006,69.33375 61.008750000000006,69.14625 61.758750000000006,69.14625 61.758750000000006,69.33375 61.196250000000006,69.33375 61.196250000000006,69.70875 61.946250000000006,69.70875 61.946250000000006,70.27125 61.758750000000006,70.27125 61.758750000000006,70.45875 61.008750000000006,70.45875 61.008750000000006,70.27125 60.821250000000006,70.27125 60.821250000000006,69.89625 61.196250000000006,69.89625 61.196250000000006,70.27125 61.571250000000006,70.27125 61.571250000000006,69.89625 61.196250000000006,69.89625 60.821250000000006,69.89625 60.821250000000006,69.33375" fill="#4169E1" fill-opacity="0.9" stroke="#4169E1" stroke-width="0.08302499999999999"/>
    <polygon points="62.508750000000006,70.45875 62.508750000000006,70.27125 62.696250000000006,70.27125 62.696250000000006,69.33375 62.883750000000006,69.33375 62.883750000000006,69.14625 63.633750000000006,69.14625 63.633750000000006,69.33375 63.071250000000006,69.33375 63.071250000000006,70.27125 63.633750000000006,70.27125 63.633750000000006,70.45875 63.071250000000006,70.45875 63.071250000000006,71.02125 62.696250000000006,71.02125 62.696250000000006,70.45875" fill="#4169E1" fill-opacity="0.9" stroke="#4169E1" stroke-width="0.08302499999999999"/>
    <polygon points="65.50875,68.77125 64.00875,68.77125 64.00875,68.58375 65.50875,68.58375" fill="#4169E1" fill-opacity="0.9" stroke="#4169E1" stroke-width="0.08302499999999999"/>
    <polygon points="66.82125,70.27125 66.82125,70.45875 66.07125,70.45875 66.07125,70.27125 66.63375,70.27125 66.63375,70.08375 66.07125,70.08375 66.07125,69.89625 65.88375,69.89625 65.88375,69.33375 66.25875,69.33375 66.25875,69.89625 66.63375,69.89625 66.63375,69.33375 66.25875,69.33375 65.88375,69.33375 66.07125,69.33375 66.07125,69.14625 67.00875,69.14625 67.00875,70.27125" fill="#4169E1" fill-opacity="0.9" stroke="#4169E1" stroke-width="0.08302499999999999"/>
    <polygon points="67.57125,69.33375 67.75875,69.33375 67.75875,69.14625 68.50875,69.14625 68.50875,69.33375 68.69625,69.33375 68.69625,69.52125 68.32125,69.52125 68.32125,69.33375 67.94625,69.33375 67.94625,70.27125 68.32125,70.27125 68.32125,70.08375 68.69625,70.08375 68.69625,70.27125 68.50875,70.27125 68.50875,70.45875 67.75875,70.45875 67.75875,70.27125 67.57125,70.27125" fill="#4169E1" fill-opacity="0.9" stroke="#4169E1" stroke-width="0.08302499999999999"/>
    <polygon points="69.25875,69.33375 69.44625,69.33375 69.44625,69.14625 70.19625,69.14625 70.19625,69.33375 70.38375,69.33375 70.38375,69.52125 70.00875,69.52125 70.00875,69.33375 69.63375,69.33375 69.63375,70.27125 70.00875,70.27125 70.00875,70.08375 70.38375,70.08375 70.38375,70.27125 70.19625,70.27125 70.19625,70.45875 69.44625,70.45875 69.44625,70.27125 69.25875,70.27125" fill="#4169E1" fill-opacity="0.9" stroke="#4169E1" stroke-width="0.08302499999999999"/>
    <polygon points="71.13375,69.33375 71.13375,69.14625 71.88375,69.14625 71.88375,69.33375 71.32125,69.33375 71.32125,69.70875 72.07125,69.70875 72.07125,70.27125 71.88375,70.27125 71.88375,70.45875 71.13375,70.45875 71.13375,70.27125 70.94625,70.27125 70.94625,69.89625 71.32125,69.89625 71.32125,70.27125 71.69625,70.27125 71.69625,69.89625 71.32125,69.89625 70.94625,69.89625 70.94625,69.33375" fill="#4169E1" fill-opacity="0.9" stroke="#4169E1" stroke-width="0.08302499999999999"/>
    <polygon points="72.63375,69.89625 72.82125,69.89625 72.82125,69.70875 73.38375,69.70875 73.38375,69.33375 72.63375,69.33375 72.63375,69.14625 73.57125,69.14625 73.57125,69.33375 73.75875,69.33375 73.75875,69.70875 73.57125,69.70875 73.57125,69.89625 73.00875,69.89625 73.00875,70.27125 73.75875,70.27125 73.75875,70.45875 72.82125,70.45875 72.82125,70.27125 72.63375,70.27125" fill="#4169E1" fill-opacity="0.9" stroke="#4169E1" stroke-width="0.08302499999999999"/>
    <polygon points="74.32125,69.89625 74.50875,69.89625 74.50875,69.70875 75.07125,69.70875 75.07125,69.33375 74.32125,69.33375 74.32125,69.14625 75.25875,69.14625 75.25875,69.33375 75.44625,69.33375 75.44625,69.70875 75.25875,69.70875 75.25875,69.89625 74.69625,69.89625 74.69625,70.27125 75.44625,70.27125 75.44625,70.45875 74.50875,70.45875 74.50875,70.27125 74.32125,70.27125" fill="#4169E1" fill-opacity="0.9" stroke="#4169E1" stroke-width="0.08302499999999999"/>
    <polygon points="77.32125,68.77125 75.82125,68.77125 75.82125,68.58375 77.32125,68.58375" fill="#4169E1" fill-opacity="0.9" stroke="#4169E1" stroke-width="0.08302499999999999"/>
    <polygon points="78.07125,69.14625 78.07125,69.70875 78.25875,69.70875 78.25875,69.52125 78.44625,69.52125 78.44625,69.14625 78.82125,69.14625 78.82125,69.52125 78.63375,69.52125 78.63375,69.70875 78.44625,69.70875 78.44625,69.89625 78.63375,69.89625 78.63375,70.08375 78.82125,70.08375 78.82125,70.45875 78.44625,70.45875 78.44625,70.08375 78.25875,70.08375 78.25875,69.89625 78.07125,69.89625 78.07125,71.20875 77.69625,71.20875 77.69625,69.14625" fill="#4169E1" fill-opacity="0.9" stroke="#4169E1" stroke-width="0.08302499999999999"/>
    <polygon points="79.57125,69.33375 79.57125,69.14625 80.32125,69.14625 80.32125,69.33375 79.75875,69.33375 79.75875,69.70875 80.50875,69.70875 80.50875,70.27125 80.32125,70.27125 80.32125,70.45875 79.57125,70.45875 79.57125,70.27125 79.38375,70.27125 79.38375,69.89625 79.75875,69.89625 79.75875,70.27125 80.13375,70.27125 80.13375,69.89625 79.75875,69.89625 79.38375,69.89625 79.38375,69.33375" fill="#4169E1" fill-opacity="0.9" stroke="#4169E1" stroke-width="0.08302499999999999"/>
    <polygon points="81.25875,69.33375 81.25875,69.14625 81.82125,69.14625 81.82125,68.77125 81.25875,68.77125 81.25875,68.58375 82.00875,68.58375 82.00875,68.77125 82.19625,68.77125 82.19625,70.45875 81.82125,70.45875 81.82125,69.33375 81.44625,69.33375 81.44625,70.45875 81.07125,70.45875 81.07125,69.33375" fill="#4169E1" fill-opacity="0.9" stroke="#4169E1" stroke-width="0.08302499999999999"/>
    <polygon points="85.57125,70.64625 84.44625,70.64625 84.44625,70.45875 85.57125,70.45875" fill="#4169E1" fill-opacity="0.9" stroke="#4169E1" stroke-width="0.08302499999999999"/>
    <polygon points="85.57125,69.89625 84.44625,69.89625 84.44625,69.70875 85.57125,69.70875" fill="#4169E1" fill-opacity="0.9" stroke="#4169E1" stroke-width="0.08302499999999999"/>
    <polygon points="88.19625,69.14625 88.19625,70.27125 88.57125,70.27125 88.57125,69.14625 88.94625,69.14625 88.94625,70.27125 88.75875,70.27125 88.75875,70.45875 87.82125,70.45875 87.82125,69.14625" fill="#4169E1" fill-opacity="0.9" stroke="#4169E1" stroke-width="0.08302499999999999"/>
    <polygon points="90.63375,70.27125 90.44625,70.27125 90.44625,70.45875 89.88375,70.45875 89.88375,70.83375 90.07125,70.83375 90.07125,71.02125 90.44625,71.02125 90.44625,71.20875 89.88375,71.20875 89.88375,71.02125 89.69625,71.02125 89.69625,70.83375 89.50875,70.83375 89.50875,69.33375 89.88375,69.33375 89.88375,70.27125 90.25875,70.27125 90.25875,69.33375 89.88375,69.33375 89.50875,69.33375 89.69625,69.33375 89.69625,69.14625 90.44625,69.14625 90.44625,69.33375 90.63375,69.33375" fill="#4169E1" fill-opacity="0.9" stroke="#4169E1" stroke-width="0.08302499999999999"/>
    <polygon points="91.38375,69.14625 91.38375,70.08375 91.57125,70.08375 91.57125,69.89625 91.75875,69.89625 91.75875,69.52125 91.94625,69.52125 91.94625,69.14625 92.32125,69.14625 92.32125,69.52125 92.13375,69.52125 92.13375,69.89625 91.94625,69.89625 91.94625,70.08375 91.75875,70.08375 91.75875,70.27125 91.94625,70.27125 91.94625,70.45875 92.13375,70.45875 92.13375,70.83375 92.32125,70.83375 92.32125,71.20875 91.94625,71.20875 91.94625,70.83375 91.75875,70.83375 91.75875,70.45875 91.57125,70.45875 91.57125,70.27125 91.38375,70.27125 91.38375,71.20875 91.00875,71.20875 91.00875,69.14625" fill="#4169E1" fill-opacity="0.9" stroke="#4169E1" stroke-width="0.08302499999999999"/>
    <polygon points="93.25875,69.14625 93.25875,69.70875 93.44625,69.70875 93.44625,69.52125 93.63375,69.52125 93.63375,69.14625 94.00875,69.14625 94.00875,69.52125 93.82125,69.52125 93.82125,69.70875 93.63375,69.70875 93.63375,69.89625 93.82125,69.89625 93.82125,70.08375 94.00875,70.08375 94.00875,70.45875 93.63375,70.45875 93.63375,70.08375 93.44625,70.08375 93.44625,69.89625 93.25875,69.89625 93.25875,71.20875 92.88375,71.20875 92.88375,69.14625" fill="#4169E1" fill-opacity="0.9" stroke="#4169E1" stroke-width="0.08302499999999999"/>
    <polygon points="94.57125,69.33375 94.75875,69.33375 94.75875,69.14625 95.69625,69.14625 95.69625,70.27125 95.13375,70.27125 95.13375,70.08375 95.32125,70.08375 95.32125,69.33375 94.94625,69.33375 94.94625,71.02125 95.32125,71.02125 95.32125,70.64625 95.69625,70.64625 95.69625,71.02125 95.50875,71.02125 95.50875,71.20875 94.75875,71.20875 94.75875,71.02125 94.57125,71.02125" fill="#4169E1" fill-opacity="0.9" stroke="#4169E1" stroke-width="0.08302499999999999"/>
    <polygon points="96.44625,69.33375 96.44625,69.14625 97.19625,69.14625 97.19625,69.33375 97.38375,69.33375 97.38375,71.20875 97.00875,71.20875 97.00875,69.33375 96.63375,69.33375 96.63375,69.70875 96.25875,69.70875 96.25875,69.33375" fill="#4169E1" fill-opacity="0.9" stroke="#4169E1" stroke-width="0.08302499999999999"/>
    <polygon points="99.07125,70.08375 98.88375,70.08375 98.88375,70.27125 99.07125,70.27125 99.07125,71.02125 98.88375,71.02125 98.88375,71.20875 98.13375,71.20875 98.13375,71.02125 97.94625,71.02125 97.94625,70.45875 98.32125,70.45875 98.32125,71.02125 98.69625,71.02125 98.69625,70.27125 98.50875,70.27125 98.50875,70.45875 98.32125,70.45875 97.94625,70.45875 97.94625,70.27125 98.13375,70.27125 98.13375,70.08375 97.94625,70.08375 97.94625,69.33375 98.32125,69.33375 98.32125,70.08375 98.50875,70.08375 98.50875,69.89625 98.69625,69.89625 98.69625,69.33375 98.32125,69.33375 97.94625,69.33375 98.13375,69.33375 98.13375,69.14625 98.88375,69.14625 98.88375,69.33375 99.07125,69.33375" fill="#4169E1" fill-opacity="0.9" stroke="#4169E1" stroke-width="0.08302499999999999"/>
    <polygon points="99.63375,69.52125 99.63375,69.14625 100.00875,69.14625 100.00875,69.33375 100.19625,69.33375 100.19625,69.14625 100.57125,69.14625 100.57125,69.52125 100.75875,69.52125 100.75875,70.45875 100.38375,70.45875 100.38375,69.52125 100.19625,69.52125 100.19625,70.08375 100.00875,70.08375 100.00875,69.52125 99.82125,69.52125 99.82125,70.45875 99.44625,70.45875 99.44625,69.52125" fill="#4169E1" fill-opacity="0.9" stroke="#4169E1" stroke-width="0.08302499999999999"/>
    <polygon points="101.69625,69.14625 101.69625,70.27125 102.07125,70.27125 102.07125,69.89625 102.44625,69.89625 102.44625,70.27125 102.25875,70.27125 102.25875,70.45875 101.32125,70.45875 101.32125,69.14625" fill="#4169E1" fill-opacity="0.9" stroke="#4169E1" stroke-width="0.08302499999999999"/>
    <polygon points="103.19625,69.33375 103.19625,69.14625 103.94625,69.14625 103.94625,69.33375 104.13375,69.33375 104.13375,71.20875 103.75875,71.20875 103.75875,69.33375 103.38375,69.33375 103.38375,71.20875 103.00875,71.20875 103.00875,69.33375" fill="#4169E1" fill-opacity="0.9" stroke="#4169E1" stroke-width="0.08302499999999999"/>
    <polygon points="105.07125,68.58375 105.07125,69.14625 105.63375,69.14625 105.63375,69.33375 105.82125,69.33375 105.82125,70.27125 105.63375,70.27125 105.63375,70.45875 104.69625,70.45875 104.69625,69.33375 105.07125,69.33375 105.07125,70.27125 105.44625,70.27125 105.44625,69.33375 105.07125,69.33375 104.69625,69.33375 104.69625,68.58375" fill="#4169E1" fill-opacity="0.9" stroke="#4169E1" stroke-width="0.08302499999999999"/>
    <polygon points="106.57125,69.89625 106.57125,69.52125 106.75875,69.52125 106.75875,69.14625 107.13375,69.14625 107.13375,69.52125 107.32125,69.52125 107.32125,69.89625 107.50875,69.89625 107.50875,71.20875 107.13375,71.20875 107.13375,69.89625 106.75875,69.89625 106.75875,71.20875 106.38375,71.20875 106.38375,69.89625" fill="#4169E1" fill-opacity="0.9" stroke="#4169E1" stroke-width="0.08302499999999999"/>
    <polygon points="108.25875,69.33375 108.25875,69.14625 109.00875,69.14625 109.00875,69.33375 109.19625,69.33375 109.19625,71.20875 108.82125,71.20875 108.82125,69.33375 108.44625,69.33375 108.44625,71.20875 108.07125,71.20875 108.07125,69.33375" fill="#4169E1" fill-opacity="0.9" stroke="#4169E1" stroke-width="0.08302499999999999"/>
    <polygon points="110.50875,71.20875 110.50875,70.45875 109.94625,70.45875 109.94625,70.27125 109.75875,70.27125 109.75875,69.33375 110.13375,69.33375 110.13375,70.27125 110.50875,70.27125 110.50875,69.33375 110.13375,69.33375 109.75875,69.33375 109.94625,69.33375 109.94625,69.14625 110.88375,69.14625 110.88375,71.20875" fill="#4169E1" fill-opacity="0.9" stroke="#4169E1" stroke-width="0.08302499999999999"/>
    <polygon points="112.57125,70.27125 112.38375,70.27125 112.38375,70.45875 111.82125,70.45875 111.82125,70.83375 112.00875,70.83375 112.00875,71.02125 112.38375,71.02125 112.38375,71.20875 111.82125,71.20875 111.82125,71.02125 111.63375,71.02125 111.63375,70.83375 111.44625,70.83375 111.44625,69.33375 111.82125,69.33375 111.82125,70.27125 112.19625,70.27125 112.19625,69.33375 111.82125,69.33375 111.44625,69.33375 111.63375,69.33375 111.63375,69.14625 112.38375,69.14625 112.38375,69.33375 112.57125,69.33375" fill="#4169E1" fill-opacity="0.9" stroke="#4169E1" stroke-width="0.08302499999999999"/>
    <polygon points="113.88375,70.64625 113.69625,70.64625 113.69625,70.27125 113.50875,70.27125 113.50875,70.08375 113.32125,70.08375 113.32125,69.70875 113.13375,69.70875 113.13375,69.14625 114.25875,69.14625 114.25875,69.33375 113.50875,69.33375 113.50875,69.70875 113.69625,69.70875 113.69625,70.08375 113.88375,70.08375 113.88375,70.27125 114.07125,70.27125 114.07125,70.64625 114.25875,70.64625 114.25875,71.20875 113.13375,71.20875 113.13375,71.02125 113.88375,71.02125" fill="#4169E1" fill-opacity="0.9" stroke="#4169E1" stroke-width="0.08302499999999999"/>
    <polygon points="115.19625,69.14625 115.19625,70.08375 115.57125,70.08375 115.57125,69.14625 115.94625,69.14625 115.94625,71.20875 115.57125,71.20875 115.57125,70.27125 115.19625,70.27125 115.19625,71.20875 114.82125,71.20875 114.82125,69.14625" fill="#4169E1" fill-opacity="0.9" stroke="#4169E1" stroke-width="0.08302499999999999"/>
    <polygon points="117.63375,70.08375 117.44625,70.08375 117.44625,70.27125 117.63375,70.27125 117.63375,71.02125 117.44625,71.02125 117.44625,71.20875 116.69625,71.20875 116.69625,71.02125 116.50875,71.02125 116.50875,70.45875 116.88375,70.45875 116.88375,71.02125 117.25875,71.02125 117.25875,70.27125 117.07125,70.27125 117.07125,70.45875 116.88375,70.45875 116.50875,70.45875 116.50875,70.27125 116.69625,70.27125 116.69625,70.08375 116.50875,70.08375 116.50875,69.33375 116.88375,69.33375 116.88375,70.08375 117.07125,70.08375 117.07125,69.89625 117.25875,69.89625 117.25875,69.33375 116.88375,69.33375 116.50875,69.33375 116.69625,69.33375 116.69625,69.14625 117.44625,69.14625 117.44625,69.33375 117.63375,69.33375" fill="#4169E1" fill-opacity="0.9" stroke="#4169E1" stroke-width="0.08302499999999999"/>
    <polygon points="118.57125,69.14625 118.57125,70.27125 118.94625,70.27125 118.94625,69.89625 119.32125,69.89625 119.32125,70.27125 119.13375,70.27125 119.13375,70.45875 118.19625,70.45875 118.19625,69.14625" fill="#4169E1" fill-opacity="0.9" stroke="#4169E1" stroke-width="0.08302499999999999"/>
    <polygon points="119.88375,69.52125 119.88375,69.14625 120.25875,69.14625 120.25875,69.33375 120.44625,69.33375 120.44625,69.14625 120.82125,69.14625 120.82125,69.52125 121.00875,69.52125 121.00875,70.45875 120.63375,70.45875 120.63375,69.52125 120.44625,69.52125 120.44625,70.08375 120.25875,70.08375 120.25875,69.52125 120.07125,69.52125 120.07125,70.45875 119.69625,70.45875 119.69625,69.52125" fill="#4169E1" fill-opacity="0.9" stroke="#4169E1" stroke-width="0.08302499999999999"/>
    <polygon points="122.32125,70.45875 122.13375,70.45875 122.13375,70.08375 121.94625,70.08375 121.94625,69.14625 122.32125,69.14625 122.32125,70.08375 122.50875,70.08375 122.50875,70.45875 122.69625,70.45875 122.69625,71.20875 121.57125,71.20875 121.57125,71.02125 122.32125,71.02125" fill="#4169E1" fill-opacity="0.9" stroke="#4169E1" stroke-width="0.08302499999999999"/>
    <polygon points="124.19625,69.52125 124.38375,69.52125 124.38375,70.83375 124.19625,70.83375 124.19625,71.02125 124.00875,71.02125 124.00875,71.20875 123.25875,71.20875 123.25875,69.33375 123.63375,69.33375 123.63375,71.02125 123.82125,71.02125 123.82125,70.83375 124.00875,70.83375 124.00875,69.52125 123.82125,69.52125 123.82125,69.33375 123.63375,69.33375 123.25875,69.33375 123.25875,69.14625 124.00875,69.14625 124.00875,69.33375 124.19625,69.33375" fill="#4169E1" fill-opacity="0.9" stroke="#4169E1" stroke-width="0.08302499999999999"/>
    <polygon points="125.69625,70.83375 125.69625,71.20875 125.32125,71.20875 125.32125,70.83375" fill="#4169E1" fill-opacity="0.9" stroke="#4169E1" stroke-width="0.08302499999999999"/>
    <polygon points="125.32125,69.14625 126.07125,69.14625 126.07125,69.33375 125.69625,69.33375 125.69625,70.45875 124.94625,70.45875 124.94625,70.27125 125.32125,70.27125" fill="#4169E1" fill-opacity="0.9" stroke="#4169E1" stroke-width="0.08302499999999999"/>
    <polygon points="126.82125,69.52125 126.82125,69.33375 127.00875,69.33375 127.00875,69.14625 127.38375,69.14625 127.38375,69.33375 127.57125,69.33375 127.57125,69.52125 127.75875,69.52125 127.75875,70.45875 127.38375,70.45875 127.38375,69.52125 127.00875,69.52125 127.00875,70.45875 126.63375,70.45875 126.63375,69.52125" fill="#4169E1" fill-opacity="0.9" stroke="#4169E1" stroke-width="0.08302499999999999"/>
    <polygon points="128.50875000000002,69.14625 128.50875000000002,70.08375 128.69625000000002,70.08375 128.69625000000002,69.89625 128.88375000000002,69.89625 128.88375000000002,69.52125 129.07125000000002,69.52125 129.07125000000002,69.14625 129.44625000000002,69.14625 129.44625000000002,69.52125 129.25875000000002,69.52125 129.25875000000002,69.89625 129.07125000000002,69.89625 129.07125000000002,70.08375 128.88375000000002,70.08375 128.88375000000002,70.27125 129.07125000000002,70.27125 129.07125000000002,70.45875 129.25875000000002,70.45875 129.25875000000002,70.83375 129.44625000000002,70.83375 129.44625000000002,71.20875 129.07125000000002,71.20875 129.07125000000002,70.83375 128.88375000000002,70.83375 128.88375000000002,70.45875 128.69625000000002,70.45875 128.69625000000002,70.27125 128.50875000000002,70.27125 128.50875000000002,71.20875 128.13375000000002,71.20875 128.13375000000002,69.14625" fill="#4169E1" fill-opacity="0.9" stroke="#4169E1" stroke-width="0.08302499999999999"/>
    <polygon points="130.19625000000002,69.33375 130.19625000000002,69.14625 131.13375000000002,69.14625 131.13375000000002,70.45875 130.75875000000002,70.45875 130.75875000000002,69.33375 130.38375000000002,69.33375 130.38375000000002,70.45875 130.00875000000002,70.45875 130.00875000000002,69.33375" fill="#4169E1" fill-opacity="0.9" stroke="#4169E1" stroke-width="0.08302499999999999"/>
    <polygon points="132.07125000000002,69.14625 132.07125000000002,70.27125 132.44625000000002,70.27125 132.44625000000002,69.89625 132.82125000000002,69.89625 132.82125000000002,70.27125 132.63375000000002,70.27125 132.63375000000002,70.45875 131.69625000000002,70.45875 131.69625000000002,69.14625" fill="#4169E1" fill-opacity="0.9" stroke="#4169E1" stroke-width="0.08302499999999999"/>
    <polygon points="133.38375000000002,69.52125 133.38375000000002,69.14625 133.75875000000002,69.14625 133.75875000000002,69.33375 133.94625000000002,69.33375 133.94625000000002,69.14625 134.32125000000002,69.14625 134.32125000000002,69.52125 134.50875000000002,69.52125 134.50875000000002,70.45875 134.13375000000002,70.45875 134.13375000000002,69.52125 133.94625000000002,69.52125 133.94625000000002,70.08375 133.75875000000002,70.08375 133.75875000000002,69.52125 133.57125000000002,69.52125 133.57125000000002,70.45875 133.19625000000002,70.45875 133.19625000000002,69.52125" fill="#4169E1" fill-opacity="0.9" stroke="#4169E1" stroke-width="0.08302499999999999"/>
    <polygon points="135.25875000000002,69.33375 135.25875000000002,69.14625 136.19625000000002,69.14625 136.19625000000002,70.45875 135.82125000000002,70.45875 135.82125000000002,69.33375 135.44625000000002,69.33375 135.44625000000002,70.45875 135.07125000000002,70.45875 135.07125000000002,69.33375" fill="#4169E1" fill-opacity="0.9" stroke="#4169E1" stroke-width="0.08302499999999999"/>
    <polygon points="136.75875000000002,70.08375 136.75875000000002,69.89625 136.94625000000002,69.89625 136.94625000000002,69.70875 136.75875000000002,69.70875 136.75875000000002,69.52125 136.57125000000002,69.52125 136.57125000000002,69.14625 136.94625000000002,69.14625 136.94625000000002,69.52125 137.13375000000002,69.52125 137.13375000000002,69.70875 137.32125000000002,69.70875 137.32125000000002,69.52125 137.50875000000002,69.52125 137.50875000000002,69.14625 137.88375000000002,69.14625 137.88375000000002,69.52125 137.69625000000002,69.52125 137.69625000000002,69.70875 137.50875000000002,69.70875 137.50875000000002,69.89625 137.69625000000002,69.89625 137.69625000000002,70.08375 137.88375000000002,70.08375 137.88375000000002,70.45875 137.50875000000002,70.45875 137.50875000000002,70.08375 137.32125000000002,70.08375 137.32125000000002,69.89625 137.13375000000002,69.89625 137.13375000000002,70.08375 136.94625000000002,70.08375 136.94625000000002,70.45875 136.57125000000002,70.45875 136.57125000000002,70.08375" fill="#4169E1" fill-opacity="0.9" stroke="#4169E1" stroke-width="0.08302499999999999"/>
    <polygon points="138.82125000000002,69.14625 138.82125000000002,70.08375 139.00875000000002,70.08375 139.00875000000002,69.89625 139.19625000000002,69.89625 139.19625000000002,69.14625 139.57125000000002,69.14625 139.57125000000002,69.89625 139.38375000000002,69.89625 139.38375000000002,70.27125 139.57125000000002,70.27125 139.57125000000002,71.02125 139.38375000000002,71.02125 139.38375000000002,71.20875 138.44625000000002,71.20875 138.44625000000002,70.27125 138.82125000000002,70.27125 138.82125000000002,71.02125 139.19625000000002,71.02125 139.19625000000002,70.27125 138.82125000000002,70.27125 138.44625000000002,70.27125 138.44625000000002,69.14625" fill="#4169E1" fill-opacity="0.9" stroke="#4169E1" stroke-width="0.08302499999999999"/>
    <polygon points="140.13375000000002,70.83375 140.13375000000002,70.64625 140.32125000000002,70.64625 140.32125000000002,70.45875 140.50875000000002,70.45875 140.50875000000002,69.89625 140.32125000000002,69.89625 140.32125000000002,69.70875 140.13375000000002,69.70875 140.13375000000002,69.52125 139.94625000000002,69.52125 139.94625000000002,69.14625 140.32125000000002,69.14625 140.32125000000002,69.52125 140.50875000000002,69.52125 140.50875000000002,69.70875 140.88375000000002,69.70875 140.88375000000002,69.52125 141.07125000000002,69.52125 141.07125000000002,69.14625 141.44625000000002,69.14625 141.44625000000002,69.52125 141.25875000000002,69.52125 141.25875000000002,69.70875 141.07125000000002,69.70875 141.07125000000002,69.89625 140.88375000000002,69.89625 140.88375000000002,70.45875 141.07125000000002,70.45875 141.07125000000002,70.64625 141.25875000000002,70.64625 141.25875000000002,70.83375 141.44625000000002,70.83375 141.44625000000002,71.20875 141.07125000000002,71.20875 141.07125000000002,70.83375 140.88375000000002,70.83375 140.88375000000002,70.64625 140.50875000000002,70.64625 140.50875000000002,70.83375 140.32125000000002,70.83375 140.32125000000002,71.20875 139.94625000000002,71.20875 139.94625000000002,70.83375" fill="#4169E1" fill-opacity="0.9" stroke="#4169E1" stroke-width="0.08302499999999999"/>
    <polygon points="142.00875000000002,69.33375 142.00875000000002,69.14625 142.94625000000002,69.14625 142.94625000000002,70.45875 142.57125000000002,70.45875 142.57125000000002,69.33375 142.19625000000002,69.33375 142.19625000000002,70.45875 141.82125000000002,70.45875 141.82125000000002,69.33375" fill="#4169E1" fill-opacity="0.9" stroke="#4169E1" stroke-width="0.08302499999999999"/>
    <polygon points="143.88375000000002,69.14625 143.88375000000002,70.27125 144.44625000000002,70.27125 144.44625000000002,70.45875 143.88375000000002,70.45875 143.88375000000002,71.02125 144.63375000000002,71.02125 144.63375000000002,71.20875 143.50875000000002,71.20875 143.50875000000002,69.14625" fill="#4169E1" fill-opacity="0.9" stroke="#4169E1" stroke-width="0.08302499999999999"/>
    <polygon points="145.57125000000002,69.14625 145.57125000000002,70.27125 145.94625000000002,70.27125 145.94625000000002,69.89625 146.32125000000002,69.89625 146.32125000000002,70.27125 146.13375000000002,70.27125 146.13375000000002,70.45875 145.19625000000002,70.45875 145.19625000000002,69.14625" fill="#4169E1" fill-opacity="0.9" stroke="#4169E1" stroke-width="0.08302499999999999"/>
    <polygon points="147.63375000000002,70.08375 147.44625000000002,70.08375 147.44625000000002,69.89625 147.25875000000002,69.89625 147.25875000000002,69.70875 147.07125000000002,69.70875 147.07125000000002,69.52125 146.88375000000002,69.52125 146.88375000000002,69.14625 148.00875000000002,69.14625 148.00875000000002,69.33375 147.25875000000002,69.33375 147.25875000000002,69.52125 147.44625000000002,69.52125 147.44625000000002,69.70875 147.63375000000002,69.70875 147.63375000000002,69.89625 147.82125000000002,69.89625 147.82125000000002,70.08375 148.00875000000002,70.08375 148.00875000000002,70.45875 146.88375000000002,70.45875 146.88375000000002,70.27125 147.63375000000002,70.27125" fill="#4169E1" fill-opacity="0.9" stroke="#4169E1" stroke-width="0.08302499999999999"/>
    <polygon points="148.94625000000002,69.14625 148.94625000000002,70.27125 149.32125000000002,70.27125 149.32125000000002,69.89625 149.69625000000002,69.89625 149.69625000000002,70.27125 149.50875000000002,70.27125 149.50875000000002,70.45875 148.57125000000002,70.45875 148.57125000000002,69.14625" fill="#4169E1" fill-opacity="0.9" stroke="#4169E1" stroke-width="0.08302499999999999"/>
    <polygon points="150.44625000000002,69.33375 150.44625000000002,69.14625 151.19625000000002,69.14625 151.19625000000002,69.33375 151.38375000000002,69.33375 151.38375000000002,69.89625 151.19625000000002,69.89625 151.19625000000002,70.08375 151.00875000000002,70.08375 151.00875000000002,70.27125 150.82125000000002,70.27125 150.82125000000002,70.45875 150.63375000000002,70.45875 150.63375000000002,71.02125 151.00875000000002,71.02125 151.00875000000002,70.64625 151.38375000000002,70.64625 151.38375000000002,71.02125 151.19625000000002,71.02125 151.19625000000002,71.20875 150.44625000000002,71.20875 150.44625000000002,71.02125 150.25875000000002,71.02125 150.25875000000002,70.45875 150.44625000000002,70.45875 150.44625000000002,70.27125 150.63375000000002,70.27125 150.63375000000002,70.08375 150.82125000000002,70.08375 150.82125000000002,69.89625 151.00875000000002,69.89625 151.00875000000002,69.33375 150.63375000000002,69.33375 150.63375000000002,69.70875 150.25875000000002,69.70875 150.25875000000002,69.33375" fill="#4169E1" fill-opacity="0.9" stroke="#4169E1" stroke-width="0.08302499999999999"/>
    <polygon points="152.32125000000002,68.58375 152.32125000000002,69.14625 152.88375000000002,69.14625 152.88375000000002,69.33375 153.07125000000002,69.33375 153.07125000000002,70.27125 152.88375000000002,70.27125 152.88375000000002,70.45875 151.94625000000002,70.45875 151.94625000000002,69.33375 152.32125000000002,69.33375 152.32125000000002,70.27125 152.69625000000002,70.27125 152.69625000000002,69.33375 152.32125000000002,69.33375 151.94625000000002,69.33375 151.94625000000002,68.58375" fill="#4169E1" fill-opacity="0.9" stroke="#4169E1" stroke-width="0.08302499999999999"/>
    <polygon points="154.38375000000002,70.83375 154.38375000000002,71.20875 154.00875000000002,71.20875 154.00875000000002,70.83375" fill="#4169E1" fill-opacity="0.9" stroke="#4169E1" stroke-width="0.08302499999999999"/>
    <polygon points="154.00875000000002,69.14625 154.75875000000002,69.14625 154.75875000000002,69.33375 154.38375000000002,69.33375 154.38375000000002,70.45875 153.63375000000002,70.45875 153.63375000000002,70.27125 154.00875000000002,70.27125" fill="#4169E1" fill-opacity="0.9" stroke="#4169E1" stroke-width="0.08302499999999999"/>
    <polygon points="48.446250000000006,66.52125 48.258750000000006,66.52125 48.258750000000006,66.70875 47.508750000000006,66.70875 47.508750000000006,66.52125 47.321250000000006,66.52125 47.321250000000006,65.58375 47.696250000000006,65.58375 47.696250000000006,66.52125 48.071250000000006,66.52125 48.071250000000006,65.58375 47.696250000000006,65.58375 47.321250000000006,65.58375 47.508750000000006,65.58375 47.508750000000006,65.39625 48.258750000000006,65.39625 48.258750000000006,65.58375 48.446250000000006,65.58375" fill="#4169E1" fill-opacity="0.9" stroke="#4169E1" stroke-width="0.08302499999999999"/>
    <polygon points="49.196250000000006,65.58375 49.196250000000006,65.39625 50.133750000000006,65.39625 50.133750000000006,66.70875 49.758750000000006,66.70875 49.758750000000006,65.58375 49.383750000000006,65.58375 49.383750000000006,66.70875 49.008750000000006,66.70875 49.008750000000006,65.58375" fill="#4169E1" fill-opacity="0.9" stroke="#4169E1" stroke-width="0.08302499999999999"/>
    <polygon points="50.696250000000006,66.70875 50.696250000000006,66.52125 50.883750000000006,66.52125 50.883750000000006,65.58375 51.071250000000006,65.58375 51.071250000000006,65.39625 51.821250000000006,65.39625 51.821250000000006,65.58375 51.258750000000006,65.58375 51.258750000000006,66.52125 51.821250000000006,66.52125 51.821250000000006,66.70875 51.258750000000006,66.70875 51.258750000000006,67.27125 50.883750000000006,67.27125 50.883750000000006,66.70875" fill="#4169E1" fill-opacity="0.9" stroke="#4169E1" stroke-width="0.08302499999999999"/>
    <polygon points="52.758750000000006,64.83375 52.758750000000006,65.39625 53.321250000000006,65.39625 53.321250000000006,65.58375 53.508750000000006,65.58375 53.508750000000006,66.52125 53.321250000000006,66.52125 53.321250000000006,66.70875 52.383750000000006,66.70875 52.383750000000006,65.58375 52.758750000000006,65.58375 52.758750000000006,66.52125 53.133750000000006,66.52125 53.133750000000006,65.58375 52.758750000000006,65.58375 52.383750000000006,65.58375 52.383750000000006,64.83375" fill="#4169E1" fill-opacity="0.9" stroke="#4169E1" stroke-width="0.08302499999999999"/>
    <polygon points="54.258750000000006,65.58375 54.258750000000006,65.39625 55.196250000000006,65.39625 55.196250000000006,66.70875 54.821250000000006,66.70875 54.821250000000006,65.58375 54.446250000000006,65.58375 54.446250000000006,66.70875 54.071250000000006,66.70875 54.071250000000006,65.58375" fill="#4169E1" fill-opacity="0.9" stroke="#4169E1" stroke-width="0.08302499999999999"/>
    <polygon points="55.758750000000006,66.70875 55.758750000000006,66.52125 55.946250000000006,66.52125 55.946250000000006,65.58375 56.133750000000006,65.58375 56.133750000000006,65.39625 56.883750000000006,65.39625 56.883750000000006,65.58375 56.321250000000006,65.58375 56.321250000000006,66.52125 56.883750000000006,66.52125 56.883750000000006,66.70875 56.321250000000006,66.70875 56.321250000000006,67.27125 55.946250000000006,67.27125 55.946250000000006,66.70875" fill="#4169E1" fill-opacity="0.9" stroke="#4169E1" stroke-width="0.08302499999999999"/>
    <polygon points="60.258750000000006,66.89625 59.133750000000006,66.89625 59.133750000000006,66.70875 60.258750000000006,66.70875" fill="#4169E1" fill-opacity="0.9" stroke="#4169E1" stroke-width="0.08302499999999999"/>
    <polygon points="60.258750000000006,66.14625 59.133750000000006,66.14625 59.133750000000006,65.95875 60.258750000000006,65.95875" fill="#4169E1" fill-opacity="0.9" stroke="#4169E1" stroke-width="0.08302499999999999"/>
    <polygon points="63.446250000000006,67.08375 63.446250000000006,67.45875 63.071250000000006,67.45875 63.071250000000006,67.08375" fill="#4169E1" fill-opacity="0.9" stroke="#4169E1" stroke-width="0.08302499999999999"/>
    <polygon points="62.508750000000006,65.02125 62.508750000000006,64.83375 63.258750000000006,64.83375 63.258750000000006,65.02125 63.446250000000006,65.02125 63.446250000000006,66.70875 63.071250000000006,66.70875 63.071250000000006,65.02125" fill="#4169E1" fill-opacity="0.9" stroke="#4169E1" stroke-width="0.08302499999999999"/>
    <polygon points="64.19625,66.14625 64.38375,66.14625 64.38375,65.95875 64.94625,65.95875 64.94625,65.58375 64.19625,65.58375 64.19625,65.39625 65.13375,65.39625 65.13375,65.58375 65.32125,65.58375 65.32125,65.95875 65.13375,65.95875 65.13375,66.14625 64.57125,66.14625 64.57125,66.52125 65.32125,66.52125 65.32125,66.70875 64.38375,66.70875 64.38375,66.52125 64.19625,66.52125" fill="#4169E1" fill-opacity="0.9" stroke="#4169E1" stroke-width="0.08302499999999999"/>
    <polygon points="67.00875,66.52125 66.82125,66.52125 66.82125,66.70875 66.07125,66.70875 66.07125,66.52125 65.88375,66.52125 65.88375,65.58375 66.25875,65.58375 66.25875,66.52125 66.63375,66.52125 66.63375,65.58375 66.25875,65.58375 65.88375,65.58375 66.07125,65.58375 66.07125,65.39625 66.82125,65.39625 66.82125,65.58375 67.00875,65.58375" fill="#4169E1" fill-opacity="0.9" stroke="#4169E1" stroke-width="0.08302499999999999"/>
    <polygon points="67.94625,65.39625 67.94625,66.52125 68.32125,66.52125 68.32125,65.39625 68.69625,65.39625 68.69625,66.52125 68.50875,66.52125 68.50875,66.70875 67.57125,66.70875 67.57125,65.39625" fill="#4169E1" fill-opacity="0.9" stroke="#4169E1" stroke-width="0.08302499999999999"/>
    <polygon points="47.696250000000006,61.646249999999995 47.696250000000006,62.771249999999995 48.071250000000006,62.771249999999995 48.071250000000006,62.396249999999995 48.446250000000006,62.396249999999995 48.446250000000006,62.771249999999995 48.258750000000006,62.771249999999995 48.258750000000006,62.958749999999995 47.321250000000006,62.958749999999995 47.321250000000006,61.646249999999995" fill="#4169E1" fill-opacity="0.9" stroke="#4169E1" stroke-width="0.08302499999999999"/>
    <polygon points="49.196250000000006,61.833749999999995 49.196250000000006,61.646249999999995 49.946250000000006,61.646249999999995 49.946250000000006,61.833749999999995 49.383750000000006,61.833749999999995 49.383750000000006,62.208749999999995 50.133750000000006,62.208749999999995 50.133750000000006,62.771249999999995 49.946250000000006,62.771249999999995 49.946250000000006,62.958749999999995 49.196250000000006,62.958749999999995 49.196250000000006,62.771249999999995 49.008750000000006,62.771249999999995 49.008750000000006,62.396249999999995 49.383750000000006,62.396249999999995 49.383750000000006,62.771249999999995 49.758750000000006,62.771249999999995 49.758750000000006,62.396249999999995 49.383750000000006,62.396249999999995 49.008750000000006,62.396249999999995 49.008750000000006,61.833749999999995" fill="#4169E1" fill-opacity="0.9" stroke="#4169E1" stroke-width="0.08302499999999999"/>
    <polygon points="51.446250000000006,61.271249999999995 50.696250000000006,61.271249999999995 50.696250000000006,61.083749999999995 51.633750000000006,61.083749999999995 51.633750000000006,61.271249999999995 51.821250000000006,61.271249999999995 51.821250000000006,62.958749999999995 50.883750000000006,62.958749999999995 50.883750000000006,62.771249999999995 50.696250000000006,62.771249999999995 50.696250000000006,61.833749999999995 51.071250000000006,61.833749999999995 51.071250000000006,62.771249999999995 51.446250000000006,62.771249999999995 51.446250000000006,61.833749999999995 51.071250000000006,61.833749999999995 50.696250000000006,61.833749999999995 50.883750000000006,61.833749999999995 50.883750000000006,61.646249999999995 51.446250000000006,61.646249999999995" fill="#4169E1" fill-opacity="0.9" stroke="#4169E1" stroke-width="0.08302499999999999"/>
    <polygon points="53.133750000000006,63.333749999999995 53.133750000000006,63.708749999999995 52.758750000000006,63.708749999999995 52.758750000000006,63.333749999999995" fill="#4169E1" fill-opacity="0.9" stroke="#4169E1" stroke-width="0.08302499999999999"/>
    <polygon points="52.758750000000006,61.646249999999995 53.508750000000006,61.646249999999995 53.508750000000006,61.833749999999995 53.133750000000006,61.833749999999995 53.133750000000006,62.958749999999995 52.383750000000006,62.958749999999995 52.383750000000006,62.771249999999995 52.758750000000006,62.771249999999995" fill="#4169E1" fill-opacity="0.9" stroke="#4169E1" stroke-width="0.08302499999999999"/>
    <polygon points="55.196250000000006,62.771249999999995 55.008750000000006,62.771249999999995 55.008750000000006,62.958749999999995 54.258750000000006,62.958749999999995 54.258750000000006,62.771249999999995 54.071250000000006,62.771249999999995 54.071250000000006,61.833749999999995 54.446250000000006,61.833749999999995 54.446250000000006,62.771249999999995 54.821250000000006,62.771249999999995 54.821250000000006,61.833749999999995 54.446250000000006,61.833749999999995 54.071250000000006,61.833749999999995 54.258750000000006,61.833749999999995 54.258750000000006,61.646249999999995 55.008750000000006,61.646249999999995 55.008750000000006,61.833749999999995 55.196250000000006,61.833749999999995" fill="#4169E1" fill-opacity="0.9" stroke="#4169E1" stroke-width="0.08302499999999999"/>
    <polygon points="56.133750000000006,61.646249999999995 56.133750000000006,62.771249999999995 56.508750000000006,62.771249999999995 56.508750000000006,61.646249999999995 56.883750000000006,61.646249999999995 56.883750000000006,62.771249999999995 56.696250000000006,62.771249999999995 56.696250000000006,62.958749999999995 55.758750000000006,62.958749999999995 55.758750000000006,61.646249999999995" fill="#4169E1" fill-opacity="0.9" stroke="#4169E1" stroke-width="0.08302499999999999"/>
    <polygon points="60.258750000000006,63.146249999999995 59.133750000000006,63.146249999999995 59.133750000000006,62.958749999999995 60.258750000000006,62.958749999999995" fill="#4169E1" fill-opacity="0.9" stroke="#4169E1" stroke-width="0.08302499999999999"/>
    <polygon points="60.258750000000006,62.396249999999995 59.133750000000006,62.396249999999995 59.133750000000006,62.208749999999995 60.258750000000006,62.208749999999995" fill="#4169E1" fill-opacity="0.9" stroke="#4169E1" stroke-width="0.08302499999999999"/>
    <polygon points="62.696250000000006,61.833749999999995 62.696250000000006,61.646249999999995 63.633750000000006,61.646249999999995 63.633750000000006,62.958749999999995 63.258750000000006,62.958749999999995 63.258750000000006,61.833749999999995 62.883750000000006,61.833749999999995 62.883750000000006,62.958749999999995 62.508750000000006,62.958749999999995 62.508750000000006,61.833749999999995" fill="#4169E1" fill-opacity="0.9" stroke="#4169E1" stroke-width="0.08302499999999999"/>
    <polygon points="64.19625,62.396249999999995 64.38375,62.396249999999995 64.38375,62.208749999999995 64.94625,62.208749999999995 64.94625,61.833749999999995 64.19625,61.833749999999995 64.19625,61.646249999999995 65.13375,61.646249999999995 65.13375,61.833749999999995 65.32125,61.833749999999995 65.32125,62.208749999999995 65.13375,62.208749999999995 65.13375,62.396249999999995 64.57125,62.396249999999995 64.57125,62.771249999999995 65.32125,62.771249999999995 65.32125,62.958749999999995 64.38375,62.958749999999995 64.38375,62.771249999999995 64.19625,62.771249999999995" fill="#4169E1" fill-opacity="0.9" stroke="#4169E1" stroke-width="0.08302499999999999"/>
    <polygon points="67.00875,62.771249999999995 65.88375,62.771249999999995 65.88375,62.583749999999995 67.00875,62.583749999999995" fill="#4169E1" fill-opacity="0.9" stroke="#4169E1" stroke-width="0.08302499999999999"/>
    <polygon points="67.75875,61.833749999999995 67.75875,61.646249999999995 68.50875,61.646249999999995 68.50875,61.833749999999995 67.94625,61.833749999999995 67.94625,62.208749999999995 68.69625,62.208749999999995 68.69625,62.771249999999995 68.50875,62.771249999999995 68.50875,62.958749999999995 67.75875,62.958749999999995 67.75875,62.771249999999995 67.57125,62.771249999999995 67.57125,62.396249999999995 67.94625,62.396249999999995 67.94625,62.771249999999995 68.32125,62.771249999999995 68.32125,62.396249999999995 67.94625,62.396249999999995 67.57125,62.396249999999995 67.57125,61.833749999999995" fill="#4169E1" fill-opacity="0.9" stroke="#4169E1" stroke-width="0.08302499999999999"/>
    <polygon points="70.19625,62.771249999999995 70.19625,62.958749999999995 69.44625,62.958749999999995 69.44625,62.771249999999995 70.00875,62.771249999999995 70.00875,62.583749999999995 69.44625,62.583749999999995 69.44625,62.396249999999995 69.25875,62.396249999999995 69.25875,61.833749999999995 69.63375,61.833749999999995 69.63375,62.396249999999995 70.00875,62.396249999999995 70.00875,61.833749999999995 69.63375,61.833749999999995 69.25875,61.833749999999995 69.44625,61.833749999999995 69.44625,61.646249999999995 70.38375,61.646249999999995 70.38375,62.771249999999995" fill="#4169E1" fill-opacity="0.9" stroke="#4169E1" stroke-width="0.08302499999999999"/>
    <polygon points="70.94625,62.396249999999995 71.13375,62.396249999999995 71.13375,62.208749999999995 71.69625,62.208749999999995 71.69625,61.833749999999995 70.94625,61.833749999999995 70.94625,61.646249999999995 71.88375,61.646249999999995 71.88375,61.833749999999995 72.07125,61.833749999999995 72.07125,62.208749999999995 71.88375,62.208749999999995 71.88375,62.396249999999995 71.32125,62.396249999999995 71.32125,62.771249999999995 72.07125,62.771249999999995 72.07125,62.958749999999995 71.13375,62.958749999999995 71.13375,62.771249999999995 70.94625,62.771249999999995" fill="#4169E1" fill-opacity="0.9" stroke="#4169E1" stroke-width="0.08302499999999999"/>
    <polygon points="72.63375,62.958749999999995 72.63375,62.771249999999995 72.82125,62.771249999999995 72.82125,61.833749999999995 73.00875,61.833749999999995 73.00875,61.646249999999995 73.75875,61.646249999999995 73.75875,61.833749999999995 73.19625,61.833749999999995 73.19625,62.771249999999995 73.75875,62.771249999999995 73.75875,62.958749999999995 73.19625,62.958749999999995 73.19625,63.521249999999995 72.82125,63.521249999999995 72.82125,62.958749999999995" fill="#4169E1" fill-opacity="0.9" stroke="#4169E1" stroke-width="0.08302499999999999"/>
    <polygon points="75.44625,62.771249999999995 74.32125,62.771249999999995 74.32125,62.583749999999995 75.44625,62.583749999999995" fill="#4169E1" fill-opacity="0.9" stroke="#4169E1" stroke-width="0.08302499999999999"/>
    <polygon points="76.00875,63.146249999999995 76.38375,63.146249999999995 76.38375,63.521249999999995 76.75875,63.521249999999995 76.75875,62.771249999999995 76.57125,62.771249999999995 76.57125,62.583749999999995 76.38375,62.583749999999995 76.38375,62.396249999999995 76.19625,62.396249999999995 76.19625,62.208749999999995 76.00875,62.208749999999995 76.00875,61.646249999999995 77.13375,61.646249999999995 77.13375,61.833749999999995 76.38375,61.833749999999995 76.38375,62.208749999999995 76.57125,62.208749999999995 76.57125,62.396249999999995 76.75875,62.396249999999995 76.75875,62.583749999999995 76.94625,62.583749999999995 76.94625,62.771249999999995 77.13375,62.771249999999995 77.13375,63.521249999999995 76.94625,63.521249999999995 76.94625,63.708749999999995 76.19625,63.708749999999995 76.19625,63.521249999999995 76.00875,63.521249999999995" fill="#4169E1" fill-opacity="0.9" stroke="#4169E1" stroke-width="0.08302499999999999"/>
    <polygon points="197.08,141.98 5.0,141.98 5.0,7.0 7.0,7.0 7.0,139.98 195.08,139.98 195.08,7.0 7.0,7.0 5.0,7.0 5.0,5.0 197.08,5.0" fill="#4169E1" fill-opacity="0.9" stroke="#4169E1" stroke-width="0.08302499999999999"/>
  </g>
  <text x="400.0" y="30" text-anchor="middle" fill="white" font-size="16">
    TinyTapeout Silicon Art - tt_um_silicon_art
  </text>
</svg>