<?xml version="1.0" encoding="UTF-8"?>
<svg xmlns="http://www.w3.org/2000/svg" width="800" height="600">
  <rect width="100%" height="100%" fill="#1a1a2e"/>
  <g transform="translate(20,580) scale(4.720496894409938,-4.720496894409938) translate(-0.0,-0.0)">
    <polygon points="0.0,0.0 161.0,0.0 161.0,111.52 0.0,111.52" fill="#CCCCCC" fill-opacity="0.3" stroke="#CCCCCC" stroke-width="0.06355263157894736"/>
    <polygon points="143.82999999999998,110.52 144.13,110.52 144.13,111.52 143.82999999999998,111.52" fill="#FF6347" fill-opacity="0.9" stroke="#FF6347" stroke-width="0.06355263157894736"/>
    <polygon points="146.59,110.52 146.89000000000001,110.52 146.89000000000001,111.52 146.59,111.52" fill="#FF6347" fill-opacity="0.9" stroke="#FF6347" stroke-width="0.06355263157894736"/>
    <polygon points="141.07,110.52 141.37,110.52 141.37,111.52 141.07,111.52" fill="#FF6347" fill-opacity="0.9" stroke="#FF6347" stroke-width="0.06355263157894736"/>
    <polygon points="138.31,110.52 138.61,110.52 138.61,111.52 138.31,111.52" fill="#FF6347" fill-opacity="0.9" stroke="#FF6347" stroke-width="0.06355263157894736"/>
    <polygon points="135.54999999999998,110.52 135.85,110.52 135.85,111.52 135.54999999999998,111.52" fill="#FF6347" fill-opacity="0.9" stroke="#FF6347" stroke-width="0.06355263157894736"/>
    <polygon points="132.79,110.52 133.09,110.52 133.09,111.52 132.79,111.52" fill="#FF6347" fill-opacity="0.9" stroke="#FF6347" stroke-width="0.06355263157894736"/>
    <polygon points="130.03,110.52 130.33,110.52 130.33,111.52 130.03,111.52" fill="#FF6347" fill-opacity="0.9" stroke="#FF6347" stroke-width="0.06355263157894736"/>
    <polygon points="127.27,110.52 127.57000000000001,110.52 127.57000000000001,111.52 127.27,111.52" fill="#FF6347" fill-opacity="0.9" stroke="#FF6347" stroke-width="0.06355263157894736"/>
    <polygon points="124.50999999999999,110.52 124.81,110.52 124.81,111.52 124.50999999999999,111.52" fill="#FF6347" fill-opacity="0.9" stroke="#FF6347" stroke-width="0.06355263157894736"/>
    <polygon points="121.75,110.52 122.05000000000001,110.52 122.05000000000001,111.52 121.75,111.52" fill="#FF6347" fill-opacity="0.9" stroke="#FF6347" stroke-width="0.06355263157894736"/>
    <polygon points="118.99,110.52 119.29,110.52 119.29,111.52 118.99,111.52" fill="#FF6347" fill-opacity="0.9" stroke="#FF6347" stroke-width="0.06355263157894736"/>
    <polygon points="116.22999999999999,110.52 116.53,110.52 116.53,111.52 116.22999999999999,111.52" fill="#FF6347" fill-opacity="0.9" stroke="#FF6347" stroke-width="0.06355263157894736"/>
    <polygon points="113.47,110.52 113.77000000000001,110.52 113.77000000000001,111.52 113.47,111.52" fill="#FF6347" fill-opacity="0.9" stroke="#FF6347" stroke-width="0.06355263157894736"/>
    <polygon points="110.71,110.52 111.01,110.52 111.01,111.52 110.71,111.52" fill="#FF6347" fill-opacity="0.9" stroke="#FF6347" stroke-width="0.06355263157894736"/>
    <polygon points="107.94999999999999,110.52 108.25,110.52 108.25,111.52 107.94999999999999,111.52" fill="#FF6347" fill-opacity="0.9" stroke="#FF6347" stroke-width="0.06355263157894736"/>
    <polygon points="105.19,110.52 105.49000000000001,110.52 105.49000000000001,111.52 105.19,111.52" fill="#FF6347" fill-opacity="0.9" stroke="#FF6347" stroke-width="0.06355263157894736"/>
    <polygon points="102.42999999999999,110.52 102.73,110.52 102.73,111.52 102.42999999999999,111.52" fill="#FF6347" fill-opacity="0.9" stroke="#FF6347" stroke-width="0.06355263157894736"/>
    <polygon points="99.66999999999999,110.52 99.97,110.52 99.97,111.52 99.66999999999999,111.52" fill="#FF6347" fill-opacity="0.9" stroke="#FF6347" stroke-width="0.06355263157894736"/>
    <polygon points="96.91,110.52 97.21000000000001,110.52 97.21000000000001,111.52 96.91,111.52" fill="#FF6347" fill-opacity="0.9" stroke="#FF6347" stroke-width="0.06355263157894736"/>
    <polygon points="49.99,110.52 50.29,110.52 50.29,111.52 49.99,111.52" fill="#FF6347" fill-opacity="0.9" stroke="#FF6347" stroke-width="0.06355263157894736"/>
    <polygon points="47.230000000000004,110.52 47.53,110.52 47.53,111.52 47.230000000000004,111.52" fill="#FF6347" fill-opacity="0.9" stroke="#FF6347" stroke-width="0.06355263157894736"/>
    <polygon points="44.47,110.52 44.769999999999996,110.52 44.769999999999996,111.52 44.47,111.52" fill="#FF6347" fill-opacity="0.9" stroke="#FF6347" stroke-width="0.06355263157894736"/>
    <polygon points="41.71,110.52 42.01,110.52 42.01,111.52 41.71,111.52" fill="#FF6347" fill-opacity="0.9" stroke="#FF6347" stroke-width="0.06355263157894736"/>
    <polygon points="38.95,110.52 39.25,110.52 39.25,111.52 38.95,111.52" fill="#FF6347" fill-opacity="0.9" stroke="#FF6347" stroke-width="0.06355263157894736"/>
    <polygon points="36.190000000000005,110.52 36.49,110.52 36.49,111.52 36.190000000000005,111.52" fill="#FF6347" fill-opacity="0.9" stroke="#FF6347" stroke-width="0.06355263157894736"/>
    <polygon points="33.43,110.52 33.73,110.52 33.73,111.52 33.43,111.52" fill="#FF6347" fill-opacity="0.9" stroke="#FF6347" stroke-width="0.06355263157894736"/>
    <polygon points="30.67,110.52 30.97,110.52 30.97,111.52 30.67,111.52" fill="#FF6347" fill-opacity="0.9" stroke="#FF6347" stroke-width="0.06355263157894736"/>
    <polygon points="72.07,110.52 72.37,110.52 72.37,111.52 72.07,111.52" fill="#FF6347" fill-opacity="0.9" stroke="#FF6347" stroke-width="0.06355263157894736"/>
    <polygon points="69.30999999999999,110.52 69.61,110.52 69.61,111.52 69.30999999999999,111.52" fill="#FF6347" fill-opacity="0.9" stroke="#FF6347" stroke-width="0.06355263157894736"/>
    <polygon points="66.55,110.52 66.85000000000001,110.52 66.85000000000001,111.52 66.55,111.52" fill="#FF6347" fill-opacity="0.9" stroke="#FF6347" stroke-width="0.06355263157894736"/>
    <polygon points="63.79,110.52 64.09,110.52 64.09,111.52 63.79,111.52" fill="#FF6347" fill-opacity="0.9" stroke="#FF6347" stroke-width="0.06355263157894736"/>
    <polygon points="61.03,110.52 61.33,110.52 61.33,111.52 61.03,111.52" fill="#FF6347" fill-opacity="0.9" stroke="#FF6347" stroke-width="0.06355263157894736"/>
    <polygon points="58.27,110.52 58.57,110.52 58.57,111.52 58.27,111.52" fill="#FF6347" fill-opacity="0.9" stroke="#FF6347" stroke-width="0.06355263157894736"/>
    <polygon points="55.51,110.52 55.809999999999995,110.52 55.809999999999995,111.52 55.51,111.52" fill="#FF6347" fill-opacity="0.9" stroke="#FF6347" stroke-width="0.06355263157894736"/>
    <polygon points="52.75,110.52 53.05,110.52 53.05,111.52 52.75,111.52" fill="#FF6347" fill-opacity="0.9" stroke="#FF6347" stroke-width="0.06355263157894736"/>
    <polygon points="94.14999999999999,110.52 94.45,110.52 94.45,111.52 94.14999999999999,111.52" fill="#FF6347" fill-opacity="0.9" stroke="#FF6347" stroke-width="0.06355263157894736"/>
    <polygon points="91.39,110.52 91.69000000000001,110.52 91.69000000000001,111.52 91.39,111.52" fill="#FF6347" fill-opacity="0.9" stroke="#FF6347" stroke-width="0.06355263157894736"/>
    <polygon points="88.63,110.52 88.93,110.52 88.93,111.52 88.63,111.52" fill="#FF6347" fill-opacity="0.9" stroke="#FF6347" stroke-width="0.06355263157894736"/>
    <polygon points="85.86999999999999,110.52 86.17,110.52 86.17,111.52 85.86999999999999,111.52" fill="#FF6347" fill-opacity="0.9" stroke="#FF6347" stroke-width="0.06355263157894736"/>
    <polygon points="83.11,110.52 83.41000000000001,110.52 83.41000000000001,111.52 83.11,111.52" fill="#FF6347" fill-opacity="0.9" stroke="#FF6347" stroke-width="0.06355263157894736"/>
    <polygon points="80.35,110.52 80.65,110.52 80.65,111.52 80.35,111.52" fill="#FF6347" fill-opacity="0.9" stroke="#FF6347" stroke-width="0.06355263157894736"/>
    <polygon points="77.58999999999999,110.52 77.89,110.52 77.89,111.52 77.58999999999999,111.52" fill="#FF6347" fill-opacity="0.9" stroke="#FF6347" stroke-width="0.06355263157894736"/>
    <polygon points="74.83,110.52 75.13000000000001,110.52 75.13000000000001,111.52 74.83,111.52" fill="#FF6347" fill-opacity="0.9" stroke="#FF6347" stroke-width="0.06355263157894736"/>
    <polygon points="51.59375,55.29125 51.59375,63.10375 54.71875,63.10375 54.71875,55.29125 57.84375,55.29125 57.84375,72.47874999999999 54.71875,72.47874999999999 54.71875,64.66624999999999 51.59375,64.66624999999999 51.59375,72.47874999999999 48.46875,72.47874999999999 48.46875,55.29125" fill="#4169E1" fill-opacity="0.9" stroke="#4169E1" stroke-width="0.06355263157894736"/>
    <polygon points="71.90625,55.29125 71.90625,56.85375 65.65625,56.85375 65.65625,63.10375 70.34375,63.10375 70.34375,64.66624999999999 65.65625,64.66624999999999 65.65625,70.91624999999999 71.90625,70.91624999999999 71.90625,72.47874999999999 62.53125,72.47874999999999 62.53125,55.29125" fill="#4169E1" fill-opacity="0.9" stroke="#4169E1" stroke-width="0.06355263157894736"/>
    <polygon points="85.96875,55.29125 85.96875,56.85375 79.71875,56.85375 79.71875,72.47874999999999 76.59375,72.47874999999999 76.59375,55.29125" fill="#4169E1" fill-opacity="0.9" stroke="#4169E1" stroke-width="0.06355263157894736"/>
    <polygon points="100.03125,55.29125 100.03125,56.85375 93.78125,56.85375 93.78125,72.47874999999999 90.65625,72.47874999999999 90.65625,55.29125" fill="#4169E1" fill-opacity="0.9" stroke="#4169E1" stroke-width="0.06355263157894736"/>
    <polygon points="114.09375,70.91624999999999 112.53125,70.91624999999999 112.53125,72.47874999999999 106.28125,72.47874999999999 106.28125,70.91624999999999 104.71875,70.91624999999999 104.71875,56.85375 107.84375,56.85375 107.84375,70.91624999999999 110.96875,70.91624999999999 110.96875,56.85375 107.84375,56.85375 104.71875,56.85375 106.28125,56.85375 106.28125,55.29125 112.53125,55.29125 112.53125,56.85375 114.09375,56.85375" fill="#4169E1" fill-opacity="0.9" stroke="#4169E1" stroke-width="0.06355263157894736"/>
    <polygon points="50.03125,24.041249999999998 50.03125,25.603749999999998 51.59375,25.603749999999998 51.59375,28.728749999999998 53.15625,28.728749999999998 53.15625,25.603749999999998 54.71875,25.603749999999998 54.71875,24.041249999999998 57.84375,24.041249999999998 57.84375,41.22875 54.71875,41.22875 54.71875,30.291249999999998 53.15625,30.291249999999998 53.15625,33.41625 51.59375,33.41625 51.59375,30.291249999999998 50.03125,30.291249999999998 50.03125,41.22875 46.90625,41.22875 46.90625,24.041249999999998" fill="#4169E1" fill-opacity="0.9" stroke="#4169E1" stroke-width="0.06355263157894736"/>
    <polygon points="71.90625,39.66625 70.34375,39.66625 70.34375,41.22875 64.09375,41.22875 64.09375,39.66625 62.53125,39.66625 62.53125,25.603749999999998 65.65625,25.603749999999998 65.65625,39.66625 68.78125,39.66625 68.78125,25.603749999999998 65.65625,25.603749999999998 62.53125,25.603749999999998 64.09375,25.603749999999998 64.09375,24.041249999999998 70.34375,24.041249999999998 70.34375,25.603749999999998 71.90625,25.603749999999998" fill="#4169E1" fill-opacity="0.9" stroke="#4169E1" stroke-width="0.06355263157894736"/>
    <polygon points="79.71875,24.041249999999998 79.71875,31.853749999999998 81.28125,31.853749999999998 81.28125,30.291249999999998 82.84375,30.291249999999998 82.84375,24.041249999999998 85.96875,24.041249999999998 85.96875,30.291249999999998 84.40625,30.291249999999998 84.40625,33.41625 85.96875,33.41625 85.96875,39.66625 84.40625,39.66625 84.40625,41.22875 76.59375,41.22875 76.59375,33.41625 79.71875,33.41625 79.71875,39.66625 82.84375,39.66625 82.84375,33.41625 79.71875,33.41625 76.59375,33.41625 76.59375,24.041249999999998" fill="#4169E1" fill-opacity="0.9" stroke="#4169E1" stroke-width="0.06355263157894736"/>
    <polygon points="100.03125,24.041249999999998 100.03125,25.603749999999998 93.78125,25.603749999999998 93.78125,41.22875 90.65625,41.22875 90.65625,24.041249999999998" fill="#4169E1" fill-opacity="0.9" stroke="#4169E1" stroke-width="0.06355263157894736"/>
    <polygon points="112.53125,27.166249999999998 114.09375,27.166249999999998 114.09375,38.10375 112.53125,38.10375 112.53125,39.66625 110.96875,39.66625 110.96875,41.22875 104.71875,41.22875 104.71875,25.603749999999998 107.84375,25.603749999999998 107.84375,39.66625 109.40625,39.66625 109.40625,38.10375 110.96875,38.10375 110.96875,27.166249999999998 109.40625,27.166249999999998 109.40625,25.603749999999998 107.84375,25.603749999999998 104.71875,25.603749999999998 104.71875,24.041249999999998 110.96875,24.041249999999998 110.96875,25.603749999999998 112.53125,25.603749999999998" fill="#4169E1" fill-opacity="0.9" stroke="#4169E1" stroke-width="0.06355263157894736"/>
    <polygon points="156.0,98.52 5.0,98.52 5.0,7.0 7.0,7.0 7.0,96.52 154.0,96.52 154.0,7.0 7.0,7.0 5.0,7.0 5.0,5.0 156.0,5.0" fill="#4169E1" fill-opacity="0.9" stroke="#4169E1" stroke-width="0.06355263157894736"/>
  </g>
  <text x="400.0" y="30" text-anchor="middle" fill="white" font-size="16">
    TinyTapeout Silicon Art - tt_um_silicon_art
  </text>
</svg>