<?xml version="1.0" encoding="UTF-8"?>
<svg xmlns="http://www.w3.org/2000/svg" width="800" height="600">
  <rect width="100%" height="100%" fill="white"/>
  <g transform="translate(20,580) scale(4.720496894409938,-4.720496894409938) translate(-0.0,-0.0)">
    <polygon points="30.164,66.056 30.164,77.496 34.74,77.496 34.74,66.056 39.316,66.056 39.316,91.224 34.74,91.224 34.74,79.784 30.164,79.784 30.164,91.224 25.588,91.224 25.588,66.056" fill="#4169E1" stroke="#000" stroke-width="0.10592105263157894"/>
    <polygon points="48.468,68.34400000000001 48.468,66.056 57.620000000000005,66.056 57.620000000000005,68.34400000000001 50.756,68.34400000000001 50.756,72.92 59.908,72.92 59.908,79.784 57.620000000000005,79.784 57.620000000000005,82.072 48.468,82.072 48.468,79.784 46.18,79.784 46.18,75.208 50.756,75.208 50.756,79.784 55.332,79.784 55.332,75.208 50.756,75.208 46.18,75.208 46.18,68.34400000000001" fill="#4169E1" stroke="#000" stroke-width="0.10592105263157894"/>
    <polygon points="71.348,66.056 80.5,66.056 80.5,68.34400000000001 75.924,68.34400000000001 75.924,91.224 66.772,91.224 66.772,88.936 71.348,88.936" fill="#4169E1" stroke="#000" stroke-width="0.10592105263157894"/>
    <polygon points="91.94,66.056 101.092,66.056 101.092,68.34400000000001 96.516,68.34400000000001 96.516,91.224 87.364,91.224 87.364,88.936 91.94,88.936" fill="#4169E1" stroke="#000" stroke-width="0.10592105263157894"/>
    <polygon points="121.684,79.784 119.396,79.784 119.396,82.072 110.244,82.072 110.244,79.784 107.956,79.784 107.956,68.34400000000001 112.532,68.34400000000001 112.532,79.784 117.108,79.784 117.108,68.34400000000001 112.532,68.34400000000001 107.956,68.34400000000001 110.244,68.34400000000001 110.244,66.056 119.396,66.056 119.396,68.34400000000001 121.684,68.34400000000001" fill="#4169E1" stroke="#000" stroke-width="0.10592105263157894"/>
    <polygon points="27.876,20.296 27.876,22.584 30.164,22.584 30.164,27.16 32.452,27.16 32.452,22.584 34.74,22.584 34.74,20.296 39.316,20.296 39.316,45.464 34.74,45.464 34.74,29.448 32.452,29.448 32.452,34.024 30.164,34.024 30.164,29.448 27.876,29.448 27.876,45.464 23.3,45.464 23.3,20.296" fill="#4169E1" stroke="#000" stroke-width="0.10592105263157894"/>
    <polygon points="59.908,34.024 57.620000000000005,34.024 57.620000000000005,36.312 48.468,36.312 48.468,34.024 46.18,34.024 46.18,22.584 50.756,22.584 50.756,34.024 55.332,34.024 55.332,22.584 50.756,22.584 46.18,22.584 48.468,22.584 48.468,20.296 57.620000000000005,20.296 57.620000000000005,22.584 59.908,22.584" fill="#4169E1" stroke="#000" stroke-width="0.10592105263157894"/>
    <polygon points="71.348,20.296 71.348,34.024 75.924,34.024 75.924,29.448 80.5,29.448 80.5,34.024 78.212,34.024 78.212,36.312 66.772,36.312 66.772,20.296" fill="#4169E1" stroke="#000" stroke-width="0.10592105263157894"/>
    <polygon points="91.94,20.296 101.092,20.296 101.092,22.584 96.516,22.584 96.516,45.464 87.364,45.464 87.364,43.176 91.94,43.176" fill="#4169E1" stroke="#000" stroke-width="0.10592105263157894"/>
    <polygon points="117.108,45.464 117.108,36.312 110.244,36.312 110.244,34.024 107.956,34.024 107.956,22.584 112.532,22.584 112.532,34.024 117.108,34.024 117.108,22.584 112.532,22.584 107.956,22.584 110.244,22.584 110.244,20.296 121.684,20.296 121.684,45.464" fill="#4169E1" stroke="#000" stroke-width="0.10592105263157894"/>
    <polygon points="137.70000000000002,29.448 137.70000000000002,47.752 133.124,47.752 133.124,29.448" fill="#4169E1" stroke="#000" stroke-width="0.10592105263157894"/>
    <polygon points="137.70000000000002,20.296 137.70000000000002,24.872 133.124,24.872 133.124,20.296" fill="#4169E1" stroke="#000" stroke-width="0.10592105263157894"/>
    <polygon points="161.0,111.52 0.0,111.52 0.0,2.0 2.0,2.0 2.0,109.52 159.0,109.52 159.0,2.0 2.0,2.0 0.0,2.0 0.0,0.0 161.0,0.0" fill="#4169E1" stroke="#000" stroke-width="0.10592105263157894"/>
  </g>
</svg>