<?xml version="1.0" encoding="UTF-8"?>
<svg xmlns="http://www.w3.org/2000/svg" width="800" height="600">
  <defs>
    <style>
      .title { font-family: Arial, sans-serif; font-size: 16px; fill: #333; }
      .subtitle { font-family: Arial, sans-serif; font-size: 12px; fill: #666; }
    </style>
  </defs>
  <rect width="100%" height="100%" fill="#FAFAFA"/>
  <g transform="translate(40,560) scale(3.355271647954575,-3.355271647954575) translate(-0.0,-0.0)">
    <polygon points="0.0,0.0 202.08,0.0 202.08,154.98 0.0,154.98" fill="#EEEEEE" fill-opacity="0.2" stroke="#999" stroke-width="0.08941153846153846"/>
    <polygon points="114.99600000000001,18.165999999999997 124.30000000000001,18.165999999999997 124.30000000000001,27.47 114.99600000000001,27.47" fill="#DD8E88" fill-opacity="1.0" stroke="none" stroke-width="0"/>
    <polygon points="142.90800000000002,18.165999999999997 152.21200000000002,18.165999999999997 152.21200000000002,27.47 142.90800000000002,27.47" fill="#DD8E88" fill-opacity="1.0" stroke="none" stroke-width="0"/>
    <polygon points="142.90800000000002,27.47 152.21200000000002,27.47 152.21200000000002,36.774 142.90800000000002,36.774" fill="#DD8E88" fill-opacity="1.0" stroke="none" stroke-width="0"/>
    <polygon points="124.3,36.774 133.60399999999998,36.774 133.60399999999998,46.078 124.3,46.078" fill="#DD8E88" fill-opacity="1.0" stroke="none" stroke-width="0"/>
    <polygon points="133.60399999999998,36.774 142.908,36.774 142.908,46.078 133.60399999999998,46.078" fill="#DD8E88" fill-opacity="1.0" stroke="none" stroke-width="0"/>
    <polygon points="142.90800000000002,36.774 152.21200000000002,36.774 152.21200000000002,46.078 142.90800000000002,46.078" fill="#DD8E88" fill-opacity="1.0" stroke="none" stroke-width="0"/>
    <polygon points="152.212,36.774 161.516,36.774 161.516,46.078 152.212,46.078" fill="#DD8E88" fill-opacity="1.0" stroke="none" stroke-width="0"/>
    <polygon points="124.3,46.077999999999996 133.60399999999998,46.077999999999996 133.60399999999998,55.382 124.3,55.382" fill="#DD8E88" fill-opacity="1.0" stroke="none" stroke-width="0"/>
    <polygon points="133.60399999999998,46.077999999999996 142.908,46.077999999999996 142.908,55.382 133.60399999999998,55.382" fill="#DD8E88" fill-opacity="1.0" stroke="none" stroke-width="0"/>
    <polygon points="142.90800000000002,46.077999999999996 152.21200000000002,46.077999999999996 152.21200000000002,55.382 142.90800000000002,55.382" fill="#DD8E88" fill-opacity="1.0" stroke="none" stroke-width="0"/>
    <polygon points="152.212,46.077999999999996 161.516,46.077999999999996 161.516,55.382 152.212,55.382" fill="#DD8E88" fill-opacity="1.0" stroke="none" stroke-width="0"/>
    <polygon points="161.51600000000002,46.077999999999996 170.82000000000002,46.077999999999996 170.82000000000002,55.382 161.51600000000002,55.382" fill="#DD8E88" fill-opacity="1.0" stroke="none" stroke-width="0"/>
    <polygon points="124.3,55.382 133.60399999999998,55.382 133.60399999999998,64.68599999999999 124.3,64.68599999999999" fill="#DD8E88" fill-opacity="1.0" stroke="none" stroke-width="0"/>
    <polygon points="133.60399999999998,55.382 142.908,55.382 142.908,64.68599999999999 133.60399999999998,64.68599999999999" fill="#DD8E88" fill-opacity="1.0" stroke="none" stroke-width="0"/>
    <polygon points="142.90800000000002,55.382 152.21200000000002,55.382 152.21200000000002,64.68599999999999 142.90800000000002,64.68599999999999" fill="#DD8E88" fill-opacity="1.0" stroke="none" stroke-width="0"/>
    <polygon points="152.212,55.382 161.516,55.382 161.516,64.68599999999999 152.212,64.68599999999999" fill="#DD8E88" fill-opacity="1.0" stroke="none" stroke-width="0"/>
    <polygon points="114.99600000000001,64.686 124.30000000000001,64.686 124.30000000000001,73.99000000000001 114.99600000000001,73.99000000000001" fill="#DD8E88" fill-opacity="1.0" stroke="none" stroke-width="0"/>
    <polygon points="124.3,64.686 133.60399999999998,64.686 133.60399999999998,73.99000000000001 124.3,73.99000000000001" fill="#DD8E88" fill-opacity="1.0" stroke="none" stroke-width="0"/>
    <polygon points="142.90800000000002,64.686 152.21200000000002,64.686 152.21200000000002,73.99000000000001 142.90800000000002,73.99000000000001" fill="#DD8E88" fill-opacity="1.0" stroke="none" stroke-width="0"/>
    <polygon points="152.212,64.686 161.516,64.686 161.516,73.99000000000001 152.212,73.99000000000001" fill="#DD8E88" fill-opacity="1.0" stroke="none" stroke-width="0"/>
    <polygon points="105.69200000000001,73.99 114.99600000000001,73.99 114.99600000000001,83.294 105.69200000000001,83.294" fill="#DD8E88" fill-opacity="1.0" stroke="none" stroke-width="0"/>
    <polygon points="114.99600000000001,73.99 124.30000000000001,73.99 124.30000000000001,83.294 114.99600000000001,83.294" fill="#DD8E88" fill-opacity="1.0" stroke="none" stroke-width="0"/>
    <polygon points="124.3,73.99 133.60399999999998,73.99 133.60399999999998,83.294 124.3,83.294" fill="#DD8E88" fill-opacity="1.0" stroke="none" stroke-width="0"/>
    <polygon points="133.60399999999998,73.99 142.908,73.99 142.908,83.294 133.60399999999998,83.294" fill="#DD8E88" fill-opacity="1.0" stroke="none" stroke-width="0"/>
    <polygon points="105.69200000000001,18.165999999999997 114.99600000000001,18.165999999999997 114.99600000000001,27.47 105.69200000000001,27.47" fill="#995A56" fill-opacity="1.0" stroke="none" stroke-width="0"/>
    <polygon points="133.60399999999998,18.165999999999997 142.908,18.165999999999997 142.908,27.47 133.60399999999998,27.47" fill="#995A56" fill-opacity="1.0" stroke="none" stroke-width="0"/>
    <polygon points="161.51600000000002,18.165999999999997 170.82000000000002,18.165999999999997 170.82000000000002,27.47 161.51600000000002,27.47" fill="#995A56" fill-opacity="1.0" stroke="none" stroke-width="0"/>
    <polygon points="96.388,27.47 105.69200000000001,27.47 105.69200000000001,36.774 96.388,36.774" fill="#995A56" fill-opacity="1.0" stroke="none" stroke-width="0"/>
    <polygon points="105.69200000000001,27.47 114.99600000000001,27.47 114.99600000000001,36.774 105.69200000000001,36.774" fill="#995A56" fill-opacity="1.0" stroke="none" stroke-width="0"/>
    <polygon points="114.99600000000001,27.47 124.30000000000001,27.47 124.30000000000001,36.774 114.99600000000001,36.774" fill="#995A56" fill-opacity="1.0" stroke="none" stroke-width="0"/>
    <polygon points="124.3,27.47 133.60399999999998,27.47 133.60399999999998,36.774 124.3,36.774" fill="#995A56" fill-opacity="1.0" stroke="none" stroke-width="0"/>
    <polygon points="133.60399999999998,27.47 142.908,27.47 142.908,36.774 133.60399999999998,36.774" fill="#995A56" fill-opacity="1.0" stroke="none" stroke-width="0"/>
    <polygon points="152.212,27.47 161.516,27.47 161.516,36.774 152.212,36.774" fill="#995A56" fill-opacity="1.0" stroke="none" stroke-width="0"/>
    <polygon points="161.51600000000002,27.47 170.82000000000002,27.47 170.82000000000002,36.774 161.51600000000002,36.774" fill="#995A56" fill-opacity="1.0" stroke="none" stroke-width="0"/>
    <polygon points="161.51600000000002,36.774 170.82000000000002,36.774 170.82000000000002,46.078 161.51600000000002,46.078" fill="#995A56" fill-opacity="1.0" stroke="none" stroke-width="0"/>
    <polygon points="180.12400000000002,36.774 189.42800000000003,36.774 189.42800000000003,46.078 180.12400000000002,46.078" fill="#995A56" fill-opacity="1.0" stroke="none" stroke-width="0"/>
    <polygon points="87.084,46.077999999999996 96.388,46.077999999999996 96.388,55.382 87.084,55.382" fill="#995A56" fill-opacity="1.0" stroke="none" stroke-width="0"/>
    <polygon points="105.69200000000001,46.077999999999996 114.99600000000001,46.077999999999996 114.99600000000001,55.382 105.69200000000001,55.382" fill="#995A56" fill-opacity="1.0" stroke="none" stroke-width="0"/>
    <polygon points="170.82,46.077999999999996 180.124,46.077999999999996 180.124,55.382 170.82,55.382" fill="#995A56" fill-opacity="1.0" stroke="none" stroke-width="0"/>
    <polygon points="161.51600000000002,55.382 170.82000000000002,55.382 170.82000000000002,64.68599999999999 161.51600000000002,64.68599999999999" fill="#995A56" fill-opacity="1.0" stroke="none" stroke-width="0"/>
    <polygon points="96.388,64.686 105.69200000000001,64.686 105.69200000000001,73.99000000000001 96.388,73.99000000000001" fill="#995A56" fill-opacity="1.0" stroke="none" stroke-width="0"/>
    <polygon points="161.51600000000002,64.686 170.82000000000002,64.686 170.82000000000002,73.99000000000001 161.51600000000002,73.99000000000001" fill="#995A56" fill-opacity="1.0" stroke="none" stroke-width="0"/>
    <polygon points="96.388,73.99 105.69200000000001,73.99 105.69200000000001,83.294 96.388,83.294" fill="#995A56" fill-opacity="1.0" stroke="none" stroke-width="0"/>
    <polygon points="142.90800000000002,73.99 152.21200000000002,73.99 152.21200000000002,83.294 142.90800000000002,83.294" fill="#995A56" fill-opacity="1.0" stroke="none" stroke-width="0"/>
    <polygon points="152.212,73.99 161.516,73.99 161.516,83.294 152.212,83.294" fill="#995A56" fill-opacity="1.0" stroke="none" stroke-width="0"/>
    <polygon points="96.388,83.294 105.69200000000001,83.294 105.69200000000001,92.598 96.388,92.598" fill="#995A56" fill-opacity="1.0" stroke="none" stroke-width="0"/>
    <polygon points="105.69200000000001,83.294 114.99600000000001,83.294 114.99600000000001,92.598 105.69200000000001,92.598" fill="#995A56" fill-opacity="1.0" stroke="none" stroke-width="0"/>
    <polygon points="114.99600000000001,83.294 124.30000000000001,83.294 124.30000000000001,92.598 114.99600000000001,92.598" fill="#995A56" fill-opacity="1.0" stroke="none" stroke-width="0"/>
    <polygon points="124.3,83.294 133.60399999999998,83.294 133.60399999999998,92.598 124.3,92.598" fill="#995A56" fill-opacity="1.0" stroke="none" stroke-width="0"/>
    <polygon points="133.60399999999998,83.294 142.908,83.294 142.908,92.598 133.60399999999998,92.598" fill="#995A56" fill-opacity="1.0" stroke="none" stroke-width="0"/>
    <polygon points="142.90800000000002,83.294 152.21200000000002,83.294 152.21200000000002,92.598 142.90800000000002,92.598" fill="#995A56" fill-opacity="1.0" stroke="none" stroke-width="0"/>
    <polygon points="96.388,92.598 105.69200000000001,92.598 105.69200000000001,101.902 96.388,101.902" fill="#995A56" fill-opacity="1.0" stroke="none" stroke-width="0"/>
    <polygon points="142.90800000000002,92.598 152.21200000000002,92.598 152.21200000000002,101.902 142.90800000000002,101.902" fill="#995A56" fill-opacity="1.0" stroke="none" stroke-width="0"/>
    <polygon points="40.564,55.382 49.868,55.382 49.868,64.68599999999999 40.564,64.68599999999999" fill="#AE8C57" fill-opacity="1.0" stroke="none" stroke-width="0"/>
    <polygon points="49.868,55.382 59.172000000000004,55.382 59.172000000000004,64.68599999999999 49.868,64.68599999999999" fill="#AE8C57" fill-opacity="1.0" stroke="none" stroke-width="0"/>
    <polygon points="59.172000000000004,55.382 68.476,55.382 68.476,64.68599999999999 59.172000000000004,64.68599999999999" fill="#AE8C57" fill-opacity="1.0" stroke="none" stroke-width="0"/>
    <polygon points="31.26,64.686 40.564,64.686 40.564,73.99000000000001 31.26,73.99000000000001" fill="#AE8C57" fill-opacity="1.0" stroke="none" stroke-width="0"/>
    <polygon points="68.476,64.686 77.78,64.686 77.78,73.99000000000001 68.476,73.99000000000001" fill="#AE8C57" fill-opacity="1.0" stroke="none" stroke-width="0"/>
    <polygon points="31.26,73.99 40.564,73.99 40.564,83.294 31.26,83.294" fill="#AE8C57" fill-opacity="1.0" stroke="none" stroke-width="0"/>
    <polygon points="68.476,73.99 77.78,73.99 77.78,83.294 68.476,83.294" fill="#AE8C57" fill-opacity="1.0" stroke="none" stroke-width="0"/>
    <polygon points="40.564,83.294 49.868,83.294 49.868,92.598 40.564,92.598" fill="#AE8C57" fill-opacity="1.0" stroke="none" stroke-width="0"/>
    <polygon points="49.868,83.294 59.172000000000004,83.294 59.172000000000004,92.598 49.868,92.598" fill="#AE8C57" fill-opacity="1.0" stroke="none" stroke-width="0"/>
    <polygon points="59.172000000000004,83.294 68.476,83.294 68.476,92.598 59.172000000000004,92.598" fill="#AE8C57" fill-opacity="1.0" stroke="none" stroke-width="0"/>
    <polygon points="49.868,92.598 59.172000000000004,92.598 59.172000000000004,101.902 49.868,101.902" fill="#AE8C57" fill-opacity="1.0" stroke="none" stroke-width="0"/>
    <polygon points="49.868,101.902 59.172000000000004,101.902 59.172000000000004,111.206 49.868,111.206" fill="#AE8C57" fill-opacity="1.0" stroke="none" stroke-width="0"/>
    <polygon points="59.172000000000004,101.902 68.476,101.902 68.476,111.206 59.172000000000004,111.206" fill="#AE8C57" fill-opacity="1.0" stroke="none" stroke-width="0"/>
    <polygon points="49.868,111.206 59.172000000000004,111.206 59.172000000000004,120.51 49.868,120.51" fill="#AE8C57" fill-opacity="1.0" stroke="none" stroke-width="0"/>
    <polygon points="49.868,120.51 59.172000000000004,120.51 59.172000000000004,129.814 49.868,129.814" fill="#AE8C57" fill-opacity="1.0" stroke="none" stroke-width="0"/>
    <polygon points="59.172000000000004,120.51 68.476,120.51 68.476,129.814 59.172000000000004,129.814" fill="#AE8C57" fill-opacity="1.0" stroke="none" stroke-width="0"/>
    <polygon points="105.69200000000001,64.686 114.99600000000001,64.686 114.99600000000001,73.99000000000001 105.69200000000001,73.99000000000001" fill="#1E1E1E" fill-opacity="1.0" stroke="none" stroke-width="0"/>
    <polygon points="133.60399999999998,64.686 142.908,64.686 142.908,73.99000000000001 133.60399999999998,73.99000000000001" fill="#1E1E1E" fill-opacity="1.0" stroke="none" stroke-width="0"/>
    <polygon points="143.82999999999998,153.98 144.13,153.98 144.13,154.98 143.82999999999998,154.98" fill="#666666" fill-opacity="1.0" stroke="none" stroke-width="0"/>
    <polygon points="146.59,153.98 146.89000000000001,153.98 146.89000000000001,154.98 146.59,154.98" fill="#666666" fill-opacity="1.0" stroke="none" stroke-width="0"/>
    <polygon points="141.07,153.98 141.37,153.98 141.37,154.98 141.07,154.98" fill="#666666" fill-opacity="1.0" stroke="none" stroke-width="0"/>
    <polygon points="138.31,153.98 138.61,153.98 138.61,154.98 138.31,154.98" fill="#666666" fill-opacity="1.0" stroke="none" stroke-width="0"/>
    <polygon points="135.54999999999998,153.98 135.85,153.98 135.85,154.98 135.54999999999998,154.98" fill="#666666" fill-opacity="1.0" stroke="none" stroke-width="0"/>
    <polygon points="132.79,153.98 133.09,153.98 133.09,154.98 132.79,154.98" fill="#666666" fill-opacity="1.0" stroke="none" stroke-width="0"/>
    <polygon points="130.03,153.98 130.33,153.98 130.33,154.98 130.03,154.98" fill="#666666" fill-opacity="1.0" stroke="none" stroke-width="0"/>
    <polygon points="127.27,153.98 127.57000000000001,153.98 127.57000000000001,154.98 127.27,154.98" fill="#666666" fill-opacity="1.0" stroke="none" stroke-width="0"/>
    <polygon points="124.50999999999999,153.98 124.81,153.98 124.81,154.98 124.50999999999999,154.98" fill="#666666" fill-opacity="1.0" stroke="none" stroke-width="0"/>
    <polygon points="121.75,153.98 122.05000000000001,153.98 122.05000000000001,154.98 121.75,154.98" fill="#666666" fill-opacity="1.0" stroke="none" stroke-width="0"/>
    <polygon points="118.99,153.98 119.29,153.98 119.29,154.98 118.99,154.98" fill="#666666" fill-opacity="1.0" stroke="none" stroke-width="0"/>
    <polygon points="116.22999999999999,153.98 116.53,153.98 116.53,154.98 116.22999999999999,154.98" fill="#666666" fill-opacity="1.0" stroke="none" stroke-width="0"/>
    <polygon points="113.47,153.98 113.77000000000001,153.98 113.77000000000001,154.98 113.47,154.98" fill="#666666" fill-opacity="1.0" stroke="none" stroke-width="0"/>
    <polygon points="110.71,153.98 111.01,153.98 111.01,154.98 110.71,154.98" fill="#666666" fill-opacity="1.0" stroke="none" stroke-width="0"/>
    <polygon points="107.94999999999999,153.98 108.25,153.98 108.25,154.98 107.94999999999999,154.98" fill="#666666" fill-opacity="1.0" stroke="none" stroke-width="0"/>
    <polygon points="105.19,153.98 105.49000000000001,153.98 105.49000000000001,154.98 105.19,154.98" fill="#666666" fill-opacity="1.0" stroke="none" stroke-width="0"/>
    <polygon points="102.42999999999999,153.98 102.73,153.98 102.73,154.98 102.42999999999999,154.98" fill="#666666" fill-opacity="1.0" stroke="none" stroke-width="0"/>
    <polygon points="99.66999999999999,153.98 99.97,153.98 99.97,154.98 99.66999999999999,154.98" fill="#666666" fill-opacity="1.0" stroke="none" stroke-width="0"/>
    <polygon points="96.91,153.98 97.21000000000001,153.98 97.21000000000001,154.98 96.91,154.98" fill="#666666" fill-opacity="1.0" stroke="none" stroke-width="0"/>
    <polygon points="49.99,153.98 50.29,153.98 50.29,154.98 49.99,154.98" fill="#666666" fill-opacity="1.0" stroke="none" stroke-width="0"/>
    <polygon points="47.230000000000004,153.98 47.53,153.98 47.53,154.98 47.230000000000004,154.98" fill="#666666" fill-opacity="1.0" stroke="none" stroke-width="0"/>
    <polygon points="44.47,153.98 44.769999999999996,153.98 44.769999999999996,154.98 44.47,154.98" fill="#666666" fill-opacity="1.0" stroke="none" stroke-width="0"/>
    <polygon points="41.71,153.98 42.01,153.98 42.01,154.98 41.71,154.98" fill="#666666" fill-opacity="1.0" stroke="none" stroke-width="0"/>
    <polygon points="38.95,153.98 39.25,153.98 39.25,154.98 38.95,154.98" fill="#666666" fill-opacity="1.0" stroke="none" stroke-width="0"/>
    <polygon points="36.190000000000005,153.98 36.49,153.98 36.49,154.98 36.190000000000005,154.98" fill="#666666" fill-opacity="1.0" stroke="none" stroke-width="0"/>
    <polygon points="33.43,153.98 33.73,153.98 33.73,154.98 33.43,154.98" fill="#666666" fill-opacity="1.0" stroke="none" stroke-width="0"/>
    <polygon points="30.67,153.98 30.97,153.98 30.97,154.98 30.67,154.98" fill="#666666" fill-opacity="1.0" stroke="none" stroke-width="0"/>
    <polygon points="72.07,153.98 72.37,153.98 72.37,154.98 72.07,154.98" fill="#666666" fill-opacity="1.0" stroke="none" stroke-width="0"/>
    <polygon points="69.30999999999999,153.98 69.61,153.98 69.61,154.98 69.30999999999999,154.98" fill="#666666" fill-opacity="1.0" stroke="none" stroke-width="0"/>
    <polygon points="66.55,153.98 66.85000000000001,153.98 66.85000000000001,154.98 66.55,154.98" fill="#666666" fill-opacity="1.0" stroke="none" stroke-width="0"/>
    <polygon points="63.79,153.98 64.09,153.98 64.09,154.98 63.79,154.98" fill="#666666" fill-opacity="1.0" stroke="none" stroke-width="0"/>
    <polygon points="61.03,153.98 61.33,153.98 61.33,154.98 61.03,154.98" fill="#666666" fill-opacity="1.0" stroke="none" stroke-width="0"/>
    <polygon points="58.27,153.98 58.57,153.98 58.57,154.98 58.27,154.98" fill="#666666" fill-opacity="1.0" stroke="none" stroke-width="0"/>
    <polygon points="55.51,153.98 55.809999999999995,153.98 55.809999999999995,154.98 55.51,154.98" fill="#666666" fill-opacity="1.0" stroke="none" stroke-width="0"/>
    <polygon points="52.75,153.98 53.05,153.98 53.05,154.98 52.75,154.98" fill="#666666" fill-opacity="1.0" stroke="none" stroke-width="0"/>
    <polygon points="94.14999999999999,153.98 94.45,153.98 94.45,154.98 94.14999999999999,154.98" fill="#666666" fill-opacity="1.0" stroke="none" stroke-width="0"/>
    <polygon points="91.39,153.98 91.69000000000001,153.98 91.69000000000001,154.98 91.39,154.98" fill="#666666" fill-opacity="1.0" stroke="none" stroke-width="0"/>
    <polygon points="88.63,153.98 88.93,153.98 88.93,154.98 88.63,154.98" fill="#666666" fill-opacity="1.0" stroke="none" stroke-width="0"/>
    <polygon points="85.86999999999999,153.98 86.17,153.98 86.17,154.98 85.86999999999999,154.98" fill="#666666" fill-opacity="1.0" stroke="none" stroke-width="0"/>
    <polygon points="83.11,153.98 83.41000000000001,153.98 83.41000000000001,154.98 83.11,154.98" fill="#666666" fill-opacity="1.0" stroke="none" stroke-width="0"/>
    <polygon points="80.35,153.98 80.65,153.98 80.65,154.98 80.35,154.98" fill="#666666" fill-opacity="1.0" stroke="none" stroke-width="0"/>
    <polygon points="77.58999999999999,153.98 77.89,153.98 77.89,154.98 77.58999999999999,154.98" fill="#666666" fill-opacity="1.0" stroke="none" stroke-width="0"/>
    <polygon points="74.83,153.98 75.13000000000001,153.98 75.13000000000001,154.98 74.83,154.98" fill="#666666" fill-opacity="1.0" stroke="none" stroke-width="0"/>
    <polygon points="0.5,1.0 1.5,1.0 1.5,153.98 0.5,153.98" fill="#666666" fill-opacity="1.0" stroke="none" stroke-width="0"/>
    <polygon points="2.5,1.0 3.5,1.0 3.5,153.98 2.5,153.98" fill="#666666" fill-opacity="1.0" stroke="none" stroke-width="0"/>
  </g>
  <text x="400.0" y="25" text-anchor="middle" class="title">
    TinyTapeout Pixel Pig - Multi-Layer Silicon Art
  </text>
  <text x="400.0" y="45" text-anchor="middle" class="subtitle">
    met1: body | met2: details | poly: snout | met3: key | li1: eyes
  </text>
</svg>