<?xml version="1.0" encoding="UTF-8"?>
<svg xmlns="http://www.w3.org/2000/svg" width="800" height="600">
  <defs>
    <style>
      .title { font-family: Arial, sans-serif; font-size: 16px; fill: #333; }
      .subtitle { font-family: Arial, sans-serif; font-size: 12px; fill: #666; }
    </style>
  </defs>
  <rect width="100%" height="100%" fill="#FAFAFA"/>
  <g transform="translate(40,560) scale(3.355271647954575,-3.355271647954575) translate(-0.0,-0.0)">
    <polygon points="0.0,0.0 202.08,0.0 202.08,154.98 0.0,154.98" fill="#DDDDDD" fill-opacity="0.2" stroke="#999" stroke-width="0.08941153846153846"/>
    <polygon points="89.07771428571428,35.71068571428571 93.86262857142856,35.71068571428571 93.86262857142856,40.495599999999996 89.07771428571428,40.495599999999996" fill="#E8A89E" fill-opacity="1.0" stroke="none" stroke-width="0"/>
    <polygon points="93.86262857142857,35.71068571428571 98.64754285714285,35.71068571428571 98.64754285714285,40.495599999999996 93.86262857142857,40.495599999999996" fill="#E8A89E" fill-opacity="1.0" stroke="none" stroke-width="0"/>
    <polygon points="136.92685714285716,35.71068571428571 141.71177142857144,35.71068571428571 141.71177142857144,40.495599999999996 136.92685714285716,40.495599999999996" fill="#E8A89E" fill-opacity="1.0" stroke="none" stroke-width="0"/>
    <polygon points="141.7117714285714,35.71068571428571 146.4966857142857,35.71068571428571 146.4966857142857,40.495599999999996 141.7117714285714,40.495599999999996" fill="#E8A89E" fill-opacity="1.0" stroke="none" stroke-width="0"/>
    <polygon points="89.07771428571428,40.495599999999996 93.86262857142856,40.495599999999996 93.86262857142856,45.28051428571428 89.07771428571428,45.28051428571428" fill="#E8A89E" fill-opacity="1.0" stroke="none" stroke-width="0"/>
    <polygon points="93.86262857142857,40.495599999999996 98.64754285714285,40.495599999999996 98.64754285714285,45.28051428571428 93.86262857142857,45.28051428571428" fill="#E8A89E" fill-opacity="1.0" stroke="none" stroke-width="0"/>
    <polygon points="136.92685714285716,40.495599999999996 141.71177142857144,40.495599999999996 141.71177142857144,45.28051428571428 136.92685714285716,45.28051428571428" fill="#E8A89E" fill-opacity="1.0" stroke="none" stroke-width="0"/>
    <polygon points="141.7117714285714,40.495599999999996 146.4966857142857,40.495599999999996 146.4966857142857,45.28051428571428 141.7117714285714,45.28051428571428" fill="#E8A89E" fill-opacity="1.0" stroke="none" stroke-width="0"/>
    <polygon points="89.07771428571428,45.280514285714276 93.86262857142856,45.280514285714276 93.86262857142856,50.06542857142856 89.07771428571428,50.06542857142856" fill="#E8A89E" fill-opacity="1.0" stroke="none" stroke-width="0"/>
    <polygon points="93.86262857142857,45.280514285714276 98.64754285714285,45.280514285714276 98.64754285714285,50.06542857142856 93.86262857142857,50.06542857142856" fill="#E8A89E" fill-opacity="1.0" stroke="none" stroke-width="0"/>
    <polygon points="136.92685714285716,45.280514285714276 141.71177142857144,45.280514285714276 141.71177142857144,50.06542857142856 136.92685714285716,50.06542857142856" fill="#E8A89E" fill-opacity="1.0" stroke="none" stroke-width="0"/>
    <polygon points="141.7117714285714,45.280514285714276 146.4966857142857,45.280514285714276 146.4966857142857,50.06542857142856 141.7117714285714,50.06542857142856" fill="#E8A89E" fill-opacity="1.0" stroke="none" stroke-width="0"/>
    <polygon points="79.50788571428572,50.06542857142857 84.2928,50.06542857142857 84.2928,54.850342857142856 79.50788571428572,54.850342857142856" fill="#E8A89E" fill-opacity="1.0" stroke="none" stroke-width="0"/>
    <polygon points="84.2928,50.06542857142857 89.07771428571428,50.06542857142857 89.07771428571428,54.850342857142856 84.2928,54.850342857142856" fill="#E8A89E" fill-opacity="1.0" stroke="none" stroke-width="0"/>
    <polygon points="89.07771428571428,50.06542857142857 93.86262857142856,50.06542857142857 93.86262857142856,54.850342857142856 89.07771428571428,54.850342857142856" fill="#E8A89E" fill-opacity="1.0" stroke="none" stroke-width="0"/>
    <polygon points="93.86262857142857,50.06542857142857 98.64754285714285,50.06542857142857 98.64754285714285,54.850342857142856 93.86262857142857,54.850342857142856" fill="#E8A89E" fill-opacity="1.0" stroke="none" stroke-width="0"/>
    <polygon points="98.64754285714287,50.06542857142857 103.43245714285715,50.06542857142857 103.43245714285715,54.850342857142856 98.64754285714287,54.850342857142856" fill="#E8A89E" fill-opacity="1.0" stroke="none" stroke-width="0"/>
    <polygon points="103.43245714285715,50.06542857142857 108.21737142857143,50.06542857142857 108.21737142857143,54.850342857142856 103.43245714285715,54.850342857142856" fill="#E8A89E" fill-opacity="1.0" stroke="none" stroke-width="0"/>
    <polygon points="108.21737142857143,50.06542857142857 113.0022857142857,50.06542857142857 113.0022857142857,54.850342857142856 108.21737142857143,54.850342857142856" fill="#E8A89E" fill-opacity="1.0" stroke="none" stroke-width="0"/>
    <polygon points="113.00228571428572,50.06542857142857 117.7872,50.06542857142857 117.7872,54.850342857142856 113.00228571428572,54.850342857142856" fill="#E8A89E" fill-opacity="1.0" stroke="none" stroke-width="0"/>
    <polygon points="117.7872,50.06542857142857 122.57211428571428,50.06542857142857 122.57211428571428,54.850342857142856 117.7872,54.850342857142856" fill="#E8A89E" fill-opacity="1.0" stroke="none" stroke-width="0"/>
    <polygon points="122.57211428571429,50.06542857142857 127.35702857142857,50.06542857142857 127.35702857142857,54.850342857142856 122.57211428571429,54.850342857142856" fill="#E8A89E" fill-opacity="1.0" stroke="none" stroke-width="0"/>
    <polygon points="127.35702857142857,50.06542857142857 132.14194285714285,50.06542857142857 132.14194285714285,54.850342857142856 127.35702857142857,54.850342857142856" fill="#E8A89E" fill-opacity="1.0" stroke="none" stroke-width="0"/>
    <polygon points="132.14194285714285,50.06542857142857 136.92685714285713,50.06542857142857 136.92685714285713,54.850342857142856 132.14194285714285,54.850342857142856" fill="#E8A89E" fill-opacity="1.0" stroke="none" stroke-width="0"/>
    <polygon points="136.92685714285716,50.06542857142857 141.71177142857144,50.06542857142857 141.71177142857144,54.850342857142856 136.92685714285716,54.850342857142856" fill="#E8A89E" fill-opacity="1.0" stroke="none" stroke-width="0"/>
    <polygon points="141.7117714285714,50.06542857142857 146.4966857142857,50.06542857142857 146.4966857142857,54.850342857142856 141.7117714285714,54.850342857142856" fill="#E8A89E" fill-opacity="1.0" stroke="none" stroke-width="0"/>
    <polygon points="146.49668571428572,50.06542857142857 151.2816,50.06542857142857 151.2816,54.850342857142856 146.49668571428572,54.850342857142856" fill="#E8A89E" fill-opacity="1.0" stroke="none" stroke-width="0"/>
    <polygon points="151.2816,50.06542857142857 156.06651428571428,50.06542857142857 156.06651428571428,54.850342857142856 151.2816,54.850342857142856" fill="#E8A89E" fill-opacity="1.0" stroke="none" stroke-width="0"/>
    <polygon points="79.50788571428572,54.85034285714285 84.2928,54.85034285714285 84.2928,59.635257142857135 79.50788571428572,59.635257142857135" fill="#E8A89E" fill-opacity="1.0" stroke="none" stroke-width="0"/>
    <polygon points="84.2928,54.85034285714285 89.07771428571428,54.85034285714285 89.07771428571428,59.635257142857135 84.2928,59.635257142857135" fill="#E8A89E" fill-opacity="1.0" stroke="none" stroke-width="0"/>
    <polygon points="89.07771428571428,54.85034285714285 93.86262857142856,54.85034285714285 93.86262857142856,59.635257142857135 89.07771428571428,59.635257142857135" fill="#E8A89E" fill-opacity="1.0" stroke="none" stroke-width="0"/>
    <polygon points="93.86262857142857,54.85034285714285 98.64754285714285,54.85034285714285 98.64754285714285,59.635257142857135 93.86262857142857,59.635257142857135" fill="#E8A89E" fill-opacity="1.0" stroke="none" stroke-width="0"/>
    <polygon points="98.64754285714287,54.85034285714285 103.43245714285715,54.85034285714285 103.43245714285715,59.635257142857135 98.64754285714287,59.635257142857135" fill="#E8A89E" fill-opacity="1.0" stroke="none" stroke-width="0"/>
    <polygon points="103.43245714285715,54.85034285714285 108.21737142857143,54.85034285714285 108.21737142857143,59.635257142857135 103.43245714285715,59.635257142857135" fill="#E8A89E" fill-opacity="1.0" stroke="none" stroke-width="0"/>
    <polygon points="108.21737142857143,54.85034285714285 113.0022857142857,54.85034285714285 113.0022857142857,59.635257142857135 108.21737142857143,59.635257142857135" fill="#E8A89E" fill-opacity="1.0" stroke="none" stroke-width="0"/>
    <polygon points="113.00228571428572,54.85034285714285 117.7872,54.85034285714285 117.7872,59.635257142857135 113.00228571428572,59.635257142857135" fill="#E8A89E" fill-opacity="1.0" stroke="none" stroke-width="0"/>
    <polygon points="117.7872,54.85034285714285 122.57211428571428,54.85034285714285 122.57211428571428,59.635257142857135 117.7872,59.635257142857135" fill="#E8A89E" fill-opacity="1.0" stroke="none" stroke-width="0"/>
    <polygon points="122.57211428571429,54.85034285714285 127.35702857142857,54.85034285714285 127.35702857142857,59.635257142857135 122.57211428571429,59.635257142857135" fill="#E8A89E" fill-opacity="1.0" stroke="none" stroke-width="0"/>
    <polygon points="127.35702857142857,54.85034285714285 132.14194285714285,54.85034285714285 132.14194285714285,59.635257142857135 127.35702857142857,59.635257142857135" fill="#E8A89E" fill-opacity="1.0" stroke="none" stroke-width="0"/>
    <polygon points="132.14194285714285,54.85034285714285 136.92685714285713,54.85034285714285 136.92685714285713,59.635257142857135 132.14194285714285,59.635257142857135" fill="#E8A89E" fill-opacity="1.0" stroke="none" stroke-width="0"/>
    <polygon points="136.92685714285716,54.85034285714285 141.71177142857144,54.85034285714285 141.71177142857144,59.635257142857135 136.92685714285716,59.635257142857135" fill="#E8A89E" fill-opacity="1.0" stroke="none" stroke-width="0"/>
    <polygon points="141.7117714285714,54.85034285714285 146.4966857142857,54.85034285714285 146.4966857142857,59.635257142857135 141.7117714285714,59.635257142857135" fill="#E8A89E" fill-opacity="1.0" stroke="none" stroke-width="0"/>
    <polygon points="146.49668571428572,54.85034285714285 151.2816,54.85034285714285 151.2816,59.635257142857135 146.49668571428572,59.635257142857135" fill="#E8A89E" fill-opacity="1.0" stroke="none" stroke-width="0"/>
    <polygon points="151.2816,54.85034285714285 156.06651428571428,54.85034285714285 156.06651428571428,59.635257142857135 151.2816,59.635257142857135" fill="#E8A89E" fill-opacity="1.0" stroke="none" stroke-width="0"/>
    <polygon points="156.06651428571428,54.85034285714285 160.85142857142856,54.85034285714285 160.85142857142856,59.635257142857135 156.06651428571428,59.635257142857135" fill="#E8A89E" fill-opacity="1.0" stroke="none" stroke-width="0"/>
    <polygon points="160.85142857142858,54.85034285714285 165.63634285714286,54.85034285714285 165.63634285714286,59.635257142857135 160.85142857142858,59.635257142857135" fill="#E8A89E" fill-opacity="1.0" stroke="none" stroke-width="0"/>
    <polygon points="69.93805714285715,59.635257142857135 74.72297142857143,59.635257142857135 74.72297142857143,64.42017142857142 69.93805714285715,64.42017142857142" fill="#E8A89E" fill-opacity="1.0" stroke="none" stroke-width="0"/>
    <polygon points="74.72297142857143,59.635257142857135 79.5078857142857,59.635257142857135 79.5078857142857,64.42017142857142 74.72297142857143,64.42017142857142" fill="#E8A89E" fill-opacity="1.0" stroke="none" stroke-width="0"/>
    <polygon points="79.50788571428572,59.635257142857135 84.2928,59.635257142857135 84.2928,64.42017142857142 79.50788571428572,64.42017142857142" fill="#E8A89E" fill-opacity="1.0" stroke="none" stroke-width="0"/>
    <polygon points="84.2928,59.635257142857135 89.07771428571428,59.635257142857135 89.07771428571428,64.42017142857142 84.2928,64.42017142857142" fill="#E8A89E" fill-opacity="1.0" stroke="none" stroke-width="0"/>
    <polygon points="89.07771428571428,59.635257142857135 93.86262857142856,59.635257142857135 93.86262857142856,64.42017142857142 89.07771428571428,64.42017142857142" fill="#E8A89E" fill-opacity="1.0" stroke="none" stroke-width="0"/>
    <polygon points="93.86262857142857,59.635257142857135 98.64754285714285,59.635257142857135 98.64754285714285,64.42017142857142 93.86262857142857,64.42017142857142" fill="#E8A89E" fill-opacity="1.0" stroke="none" stroke-width="0"/>
    <polygon points="98.64754285714287,59.635257142857135 103.43245714285715,59.635257142857135 103.43245714285715,64.42017142857142 98.64754285714287,64.42017142857142" fill="#E8A89E" fill-opacity="1.0" stroke="none" stroke-width="0"/>
    <polygon points="103.43245714285715,59.635257142857135 108.21737142857143,59.635257142857135 108.21737142857143,64.42017142857142 103.43245714285715,64.42017142857142" fill="#E8A89E" fill-opacity="1.0" stroke="none" stroke-width="0"/>
    <polygon points="108.21737142857143,59.635257142857135 113.0022857142857,59.635257142857135 113.0022857142857,64.42017142857142 108.21737142857143,64.42017142857142" fill="#E8A89E" fill-opacity="1.0" stroke="none" stroke-width="0"/>
    <polygon points="113.00228571428572,59.635257142857135 117.7872,59.635257142857135 117.7872,64.42017142857142 113.00228571428572,64.42017142857142" fill="#E8A89E" fill-opacity="1.0" stroke="none" stroke-width="0"/>
    <polygon points="117.7872,59.635257142857135 122.57211428571428,59.635257142857135 122.57211428571428,64.42017142857142 117.7872,64.42017142857142" fill="#E8A89E" fill-opacity="1.0" stroke="none" stroke-width="0"/>
    <polygon points="122.57211428571429,59.635257142857135 127.35702857142857,59.635257142857135 127.35702857142857,64.42017142857142 122.57211428571429,64.42017142857142" fill="#E8A89E" fill-opacity="1.0" stroke="none" stroke-width="0"/>
    <polygon points="127.35702857142857,59.635257142857135 132.14194285714285,59.635257142857135 132.14194285714285,64.42017142857142 127.35702857142857,64.42017142857142" fill="#E8A89E" fill-opacity="1.0" stroke="none" stroke-width="0"/>
    <polygon points="132.14194285714285,59.635257142857135 136.92685714285713,59.635257142857135 136.92685714285713,64.42017142857142 132.14194285714285,64.42017142857142" fill="#E8A89E" fill-opacity="1.0" stroke="none" stroke-width="0"/>
    <polygon points="136.92685714285716,59.635257142857135 141.71177142857144,59.635257142857135 141.71177142857144,64.42017142857142 136.92685714285716,64.42017142857142" fill="#E8A89E" fill-opacity="1.0" stroke="none" stroke-width="0"/>
    <polygon points="141.7117714285714,59.635257142857135 146.4966857142857,59.635257142857135 146.4966857142857,64.42017142857142 141.7117714285714,64.42017142857142" fill="#E8A89E" fill-opacity="1.0" stroke="none" stroke-width="0"/>
    <polygon points="146.49668571428572,59.635257142857135 151.2816,59.635257142857135 151.2816,64.42017142857142 146.49668571428572,64.42017142857142" fill="#E8A89E" fill-opacity="1.0" stroke="none" stroke-width="0"/>
    <polygon points="151.2816,59.635257142857135 156.06651428571428,59.635257142857135 156.06651428571428,64.42017142857142 151.2816,64.42017142857142" fill="#E8A89E" fill-opacity="1.0" stroke="none" stroke-width="0"/>
    <polygon points="156.06651428571428,59.635257142857135 160.85142857142856,59.635257142857135 160.85142857142856,64.42017142857142 156.06651428571428,64.42017142857142" fill="#E8A89E" fill-opacity="1.0" stroke="none" stroke-width="0"/>
    <polygon points="160.85142857142858,59.635257142857135 165.63634285714286,59.635257142857135 165.63634285714286,64.42017142857142 160.85142857142858,64.42017142857142" fill="#E8A89E" fill-opacity="1.0" stroke="none" stroke-width="0"/>
    <polygon points="165.63634285714286,59.635257142857135 170.42125714285714,59.635257142857135 170.42125714285714,64.42017142857142 165.63634285714286,64.42017142857142" fill="#E8A89E" fill-opacity="1.0" stroke="none" stroke-width="0"/>
    <polygon points="170.42125714285714,59.635257142857135 175.20617142857142,59.635257142857135 175.20617142857142,64.42017142857142 170.42125714285714,64.42017142857142" fill="#E8A89E" fill-opacity="1.0" stroke="none" stroke-width="0"/>
    <polygon points="69.93805714285715,64.42017142857142 74.72297142857143,64.42017142857142 74.72297142857143,69.2050857142857 69.93805714285715,69.2050857142857" fill="#E8A89E" fill-opacity="1.0" stroke="none" stroke-width="0"/>
    <polygon points="74.72297142857143,64.42017142857142 79.5078857142857,64.42017142857142 79.5078857142857,69.2050857142857 74.72297142857143,69.2050857142857" fill="#E8A89E" fill-opacity="1.0" stroke="none" stroke-width="0"/>
    <polygon points="79.50788571428572,64.42017142857142 84.2928,64.42017142857142 84.2928,69.2050857142857 79.50788571428572,69.2050857142857" fill="#E8A89E" fill-opacity="1.0" stroke="none" stroke-width="0"/>
    <polygon points="84.2928,64.42017142857142 89.07771428571428,64.42017142857142 89.07771428571428,69.2050857142857 84.2928,69.2050857142857" fill="#E8A89E" fill-opacity="1.0" stroke="none" stroke-width="0"/>
    <polygon points="89.07771428571428,64.42017142857142 93.86262857142856,64.42017142857142 93.86262857142856,69.2050857142857 89.07771428571428,69.2050857142857" fill="#E8A89E" fill-opacity="1.0" stroke="none" stroke-width="0"/>
    <polygon points="93.86262857142857,64.42017142857142 98.64754285714285,64.42017142857142 98.64754285714285,69.2050857142857 93.86262857142857,69.2050857142857" fill="#E8A89E" fill-opacity="1.0" stroke="none" stroke-width="0"/>
    <polygon points="98.64754285714287,64.42017142857142 103.43245714285715,64.42017142857142 103.43245714285715,69.2050857142857 98.64754285714287,69.2050857142857" fill="#E8A89E" fill-opacity="1.0" stroke="none" stroke-width="0"/>
    <polygon points="103.43245714285715,64.42017142857142 108.21737142857143,64.42017142857142 108.21737142857143,69.2050857142857 103.43245714285715,69.2050857142857" fill="#E8A89E" fill-opacity="1.0" stroke="none" stroke-width="0"/>
    <polygon points="108.21737142857143,64.42017142857142 113.0022857142857,64.42017142857142 113.0022857142857,69.2050857142857 108.21737142857143,69.2050857142857" fill="#E8A89E" fill-opacity="1.0" stroke="none" stroke-width="0"/>
    <polygon points="113.00228571428572,64.42017142857142 117.7872,64.42017142857142 117.7872,69.2050857142857 113.00228571428572,69.2050857142857" fill="#E8A89E" fill-opacity="1.0" stroke="none" stroke-width="0"/>
    <polygon points="117.7872,64.42017142857142 122.57211428571428,64.42017142857142 122.57211428571428,69.2050857142857 117.7872,69.2050857142857" fill="#E8A89E" fill-opacity="1.0" stroke="none" stroke-width="0"/>
    <polygon points="122.57211428571429,64.42017142857142 127.35702857142857,64.42017142857142 127.35702857142857,69.2050857142857 122.57211428571429,69.2050857142857" fill="#E8A89E" fill-opacity="1.0" stroke="none" stroke-width="0"/>
    <polygon points="127.35702857142857,64.42017142857142 132.14194285714285,64.42017142857142 132.14194285714285,69.2050857142857 127.35702857142857,69.2050857142857" fill="#E8A89E" fill-opacity="1.0" stroke="none" stroke-width="0"/>
    <polygon points="132.14194285714285,64.42017142857142 136.92685714285713,64.42017142857142 136.92685714285713,69.2050857142857 132.14194285714285,69.2050857142857" fill="#E8A89E" fill-opacity="1.0" stroke="none" stroke-width="0"/>
    <polygon points="136.92685714285716,64.42017142857142 141.71177142857144,64.42017142857142 141.71177142857144,69.2050857142857 136.92685714285716,69.2050857142857" fill="#E8A89E" fill-opacity="1.0" stroke="none" stroke-width="0"/>
    <polygon points="141.7117714285714,64.42017142857142 146.4966857142857,64.42017142857142 146.4966857142857,69.2050857142857 141.7117714285714,69.2050857142857" fill="#E8A89E" fill-opacity="1.0" stroke="none" stroke-width="0"/>
    <polygon points="146.49668571428572,64.42017142857142 151.2816,64.42017142857142 151.2816,69.2050857142857 146.49668571428572,69.2050857142857" fill="#E8A89E" fill-opacity="1.0" stroke="none" stroke-width="0"/>
    <polygon points="151.2816,64.42017142857142 156.06651428571428,64.42017142857142 156.06651428571428,69.2050857142857 151.2816,69.2050857142857" fill="#E8A89E" fill-opacity="1.0" stroke="none" stroke-width="0"/>
    <polygon points="156.06651428571428,64.42017142857142 160.85142857142856,64.42017142857142 160.85142857142856,69.2050857142857 156.06651428571428,69.2050857142857" fill="#E8A89E" fill-opacity="1.0" stroke="none" stroke-width="0"/>
    <polygon points="160.85142857142858,64.42017142857142 165.63634285714286,64.42017142857142 165.63634285714286,69.2050857142857 160.85142857142858,69.2050857142857" fill="#E8A89E" fill-opacity="1.0" stroke="none" stroke-width="0"/>
    <polygon points="165.63634285714286,64.42017142857142 170.42125714285714,64.42017142857142 170.42125714285714,69.2050857142857 165.63634285714286,69.2050857142857" fill="#E8A89E" fill-opacity="1.0" stroke="none" stroke-width="0"/>
    <polygon points="170.42125714285714,64.42017142857142 175.20617142857142,64.42017142857142 175.20617142857142,69.2050857142857 170.42125714285714,69.2050857142857" fill="#E8A89E" fill-opacity="1.0" stroke="none" stroke-width="0"/>
    <polygon points="60.368228571428574,69.2050857142857 65.15314285714285,69.2050857142857 65.15314285714285,73.98999999999998 60.368228571428574,73.98999999999998" fill="#E8A89E" fill-opacity="1.0" stroke="none" stroke-width="0"/>
    <polygon points="65.15314285714285,69.2050857142857 69.93805714285713,69.2050857142857 69.93805714285713,73.98999999999998 65.15314285714285,73.98999999999998" fill="#E8A89E" fill-opacity="1.0" stroke="none" stroke-width="0"/>
    <polygon points="69.93805714285715,69.2050857142857 74.72297142857143,69.2050857142857 74.72297142857143,73.98999999999998 69.93805714285715,73.98999999999998" fill="#E8A89E" fill-opacity="1.0" stroke="none" stroke-width="0"/>
    <polygon points="74.72297142857143,69.2050857142857 79.5078857142857,69.2050857142857 79.5078857142857,73.98999999999998 74.72297142857143,73.98999999999998" fill="#E8A89E" fill-opacity="1.0" stroke="none" stroke-width="0"/>
    <polygon points="79.50788571428572,69.2050857142857 84.2928,69.2050857142857 84.2928,73.98999999999998 79.50788571428572,73.98999999999998" fill="#E8A89E" fill-opacity="1.0" stroke="none" stroke-width="0"/>
    <polygon points="84.2928,69.2050857142857 89.07771428571428,69.2050857142857 89.07771428571428,73.98999999999998 84.2928,73.98999999999998" fill="#E8A89E" fill-opacity="1.0" stroke="none" stroke-width="0"/>
    <polygon points="89.07771428571428,69.2050857142857 93.86262857142856,69.2050857142857 93.86262857142856,73.98999999999998 89.07771428571428,73.98999999999998" fill="#E8A89E" fill-opacity="1.0" stroke="none" stroke-width="0"/>
    <polygon points="93.86262857142857,69.2050857142857 98.64754285714285,69.2050857142857 98.64754285714285,73.98999999999998 93.86262857142857,73.98999999999998" fill="#E8A89E" fill-opacity="1.0" stroke="none" stroke-width="0"/>
    <polygon points="98.64754285714287,69.2050857142857 103.43245714285715,69.2050857142857 103.43245714285715,73.98999999999998 98.64754285714287,73.98999999999998" fill="#E8A89E" fill-opacity="1.0" stroke="none" stroke-width="0"/>
    <polygon points="103.43245714285715,69.2050857142857 108.21737142857143,69.2050857142857 108.21737142857143,73.98999999999998 103.43245714285715,73.98999999999998" fill="#E8A89E" fill-opacity="1.0" stroke="none" stroke-width="0"/>
    <polygon points="108.21737142857143,69.2050857142857 113.0022857142857,69.2050857142857 113.0022857142857,73.98999999999998 108.21737142857143,73.98999999999998" fill="#E8A89E" fill-opacity="1.0" stroke="none" stroke-width="0"/>
    <polygon points="113.00228571428572,69.2050857142857 117.7872,69.2050857142857 117.7872,73.98999999999998 113.00228571428572,73.98999999999998" fill="#E8A89E" fill-opacity="1.0" stroke="none" stroke-width="0"/>
    <polygon points="117.7872,69.2050857142857 122.57211428571428,69.2050857142857 122.57211428571428,73.98999999999998 117.7872,73.98999999999998" fill="#E8A89E" fill-opacity="1.0" stroke="none" stroke-width="0"/>
    <polygon points="122.57211428571429,69.2050857142857 127.35702857142857,69.2050857142857 127.35702857142857,73.98999999999998 122.57211428571429,73.98999999999998" fill="#E8A89E" fill-opacity="1.0" stroke="none" stroke-width="0"/>
    <polygon points="127.35702857142857,69.2050857142857 132.14194285714285,69.2050857142857 132.14194285714285,73.98999999999998 127.35702857142857,73.98999999999998" fill="#E8A89E" fill-opacity="1.0" stroke="none" stroke-width="0"/>
    <polygon points="132.14194285714285,69.2050857142857 136.92685714285713,69.2050857142857 136.92685714285713,73.98999999999998 132.14194285714285,73.98999999999998" fill="#E8A89E" fill-opacity="1.0" stroke="none" stroke-width="0"/>
    <polygon points="136.92685714285716,69.2050857142857 141.71177142857144,69.2050857142857 141.71177142857144,73.98999999999998 136.92685714285716,73.98999999999998" fill="#E8A89E" fill-opacity="1.0" stroke="none" stroke-width="0"/>
    <polygon points="141.7117714285714,69.2050857142857 146.4966857142857,69.2050857142857 146.4966857142857,73.98999999999998 141.7117714285714,73.98999999999998" fill="#E8A89E" fill-opacity="1.0" stroke="none" stroke-width="0"/>
    <polygon points="146.49668571428572,69.2050857142857 151.2816,69.2050857142857 151.2816,73.98999999999998 146.49668571428572,73.98999999999998" fill="#E8A89E" fill-opacity="1.0" stroke="none" stroke-width="0"/>
    <polygon points="151.2816,69.2050857142857 156.06651428571428,69.2050857142857 156.06651428571428,73.98999999999998 151.2816,73.98999999999998" fill="#E8A89E" fill-opacity="1.0" stroke="none" stroke-width="0"/>
    <polygon points="156.06651428571428,69.2050857142857 160.85142857142856,69.2050857142857 160.85142857142856,73.98999999999998 156.06651428571428,73.98999999999998" fill="#E8A89E" fill-opacity="1.0" stroke="none" stroke-width="0"/>
    <polygon points="160.85142857142858,69.2050857142857 165.63634285714286,69.2050857142857 165.63634285714286,73.98999999999998 160.85142857142858,73.98999999999998" fill="#E8A89E" fill-opacity="1.0" stroke="none" stroke-width="0"/>
    <polygon points="60.368228571428574,73.99 65.15314285714285,73.99 65.15314285714285,78.77491428571427 60.368228571428574,78.77491428571427" fill="#E8A89E" fill-opacity="1.0" stroke="none" stroke-width="0"/>
    <polygon points="65.15314285714285,73.99 69.93805714285713,73.99 69.93805714285713,78.77491428571427 65.15314285714285,78.77491428571427" fill="#E8A89E" fill-opacity="1.0" stroke="none" stroke-width="0"/>
    <polygon points="69.93805714285715,73.99 74.72297142857143,73.99 74.72297142857143,78.77491428571427 69.93805714285715,78.77491428571427" fill="#E8A89E" fill-opacity="1.0" stroke="none" stroke-width="0"/>
    <polygon points="74.72297142857143,73.99 79.5078857142857,73.99 79.5078857142857,78.77491428571427 74.72297142857143,78.77491428571427" fill="#E8A89E" fill-opacity="1.0" stroke="none" stroke-width="0"/>
    <polygon points="79.50788571428572,73.99 84.2928,73.99 84.2928,78.77491428571427 79.50788571428572,78.77491428571427" fill="#E8A89E" fill-opacity="1.0" stroke="none" stroke-width="0"/>
    <polygon points="84.2928,73.99 89.07771428571428,73.99 89.07771428571428,78.77491428571427 84.2928,78.77491428571427" fill="#E8A89E" fill-opacity="1.0" stroke="none" stroke-width="0"/>
    <polygon points="89.07771428571428,73.99 93.86262857142856,73.99 93.86262857142856,78.77491428571427 89.07771428571428,78.77491428571427" fill="#E8A89E" fill-opacity="1.0" stroke="none" stroke-width="0"/>
    <polygon points="93.86262857142857,73.99 98.64754285714285,73.99 98.64754285714285,78.77491428571427 93.86262857142857,78.77491428571427" fill="#E8A89E" fill-opacity="1.0" stroke="none" stroke-width="0"/>
    <polygon points="98.64754285714287,73.99 103.43245714285715,73.99 103.43245714285715,78.77491428571427 98.64754285714287,78.77491428571427" fill="#E8A89E" fill-opacity="1.0" stroke="none" stroke-width="0"/>
    <polygon points="103.43245714285715,73.99 108.21737142857143,73.99 108.21737142857143,78.77491428571427 103.43245714285715,78.77491428571427" fill="#E8A89E" fill-opacity="1.0" stroke="none" stroke-width="0"/>
    <polygon points="108.21737142857143,73.99 113.0022857142857,73.99 113.0022857142857,78.77491428571427 108.21737142857143,78.77491428571427" fill="#E8A89E" fill-opacity="1.0" stroke="none" stroke-width="0"/>
    <polygon points="113.00228571428572,73.99 117.7872,73.99 117.7872,78.77491428571427 113.00228571428572,78.77491428571427" fill="#E8A89E" fill-opacity="1.0" stroke="none" stroke-width="0"/>
    <polygon points="117.7872,73.99 122.57211428571428,73.99 122.57211428571428,78.77491428571427 117.7872,78.77491428571427" fill="#E8A89E" fill-opacity="1.0" stroke="none" stroke-width="0"/>
    <polygon points="122.57211428571429,73.99 127.35702857142857,73.99 127.35702857142857,78.77491428571427 122.57211428571429,78.77491428571427" fill="#E8A89E" fill-opacity="1.0" stroke="none" stroke-width="0"/>
    <polygon points="127.35702857142857,73.99 132.14194285714285,73.99 132.14194285714285,78.77491428571427 127.35702857142857,78.77491428571427" fill="#E8A89E" fill-opacity="1.0" stroke="none" stroke-width="0"/>
    <polygon points="132.14194285714285,73.99 136.92685714285713,73.99 136.92685714285713,78.77491428571427 132.14194285714285,78.77491428571427" fill="#E8A89E" fill-opacity="1.0" stroke="none" stroke-width="0"/>
    <polygon points="136.92685714285716,73.99 141.71177142857144,73.99 141.71177142857144,78.77491428571427 136.92685714285716,78.77491428571427" fill="#E8A89E" fill-opacity="1.0" stroke="none" stroke-width="0"/>
    <polygon points="141.7117714285714,73.99 146.4966857142857,73.99 146.4966857142857,78.77491428571427 141.7117714285714,78.77491428571427" fill="#E8A89E" fill-opacity="1.0" stroke="none" stroke-width="0"/>
    <polygon points="146.49668571428572,73.99 151.2816,73.99 151.2816,78.77491428571427 146.49668571428572,78.77491428571427" fill="#E8A89E" fill-opacity="1.0" stroke="none" stroke-width="0"/>
    <polygon points="151.2816,73.99 156.06651428571428,73.99 156.06651428571428,78.77491428571427 151.2816,78.77491428571427" fill="#E8A89E" fill-opacity="1.0" stroke="none" stroke-width="0"/>
    <polygon points="156.06651428571428,73.99 160.85142857142856,73.99 160.85142857142856,78.77491428571427 156.06651428571428,78.77491428571427" fill="#E8A89E" fill-opacity="1.0" stroke="none" stroke-width="0"/>
    <polygon points="160.85142857142858,73.99 165.63634285714286,73.99 165.63634285714286,78.77491428571427 160.85142857142858,78.77491428571427" fill="#E8A89E" fill-opacity="1.0" stroke="none" stroke-width="0"/>
    <polygon points="60.368228571428574,78.77491428571429 65.15314285714285,78.77491428571429 65.15314285714285,83.55982857142857 60.368228571428574,83.55982857142857" fill="#E8A89E" fill-opacity="1.0" stroke="none" stroke-width="0"/>
    <polygon points="65.15314285714285,78.77491428571429 69.93805714285713,78.77491428571429 69.93805714285713,83.55982857142857 65.15314285714285,83.55982857142857" fill="#E8A89E" fill-opacity="1.0" stroke="none" stroke-width="0"/>
    <polygon points="69.93805714285715,78.77491428571429 74.72297142857143,78.77491428571429 74.72297142857143,83.55982857142857 69.93805714285715,83.55982857142857" fill="#E8A89E" fill-opacity="1.0" stroke="none" stroke-width="0"/>
    <polygon points="74.72297142857143,78.77491428571429 79.5078857142857,78.77491428571429 79.5078857142857,83.55982857142857 74.72297142857143,83.55982857142857" fill="#E8A89E" fill-opacity="1.0" stroke="none" stroke-width="0"/>
    <polygon points="98.64754285714287,78.77491428571429 103.43245714285715,78.77491428571429 103.43245714285715,83.55982857142857 98.64754285714287,83.55982857142857" fill="#E8A89E" fill-opacity="1.0" stroke="none" stroke-width="0"/>
    <polygon points="103.43245714285715,78.77491428571429 108.21737142857143,78.77491428571429 108.21737142857143,83.55982857142857 103.43245714285715,83.55982857142857" fill="#E8A89E" fill-opacity="1.0" stroke="none" stroke-width="0"/>
    <polygon points="108.21737142857143,78.77491428571429 113.0022857142857,78.77491428571429 113.0022857142857,83.55982857142857 108.21737142857143,83.55982857142857" fill="#E8A89E" fill-opacity="1.0" stroke="none" stroke-width="0"/>
    <polygon points="113.00228571428572,78.77491428571429 117.7872,78.77491428571429 117.7872,83.55982857142857 113.00228571428572,83.55982857142857" fill="#E8A89E" fill-opacity="1.0" stroke="none" stroke-width="0"/>
    <polygon points="117.7872,78.77491428571429 122.57211428571428,78.77491428571429 122.57211428571428,83.55982857142857 117.7872,83.55982857142857" fill="#E8A89E" fill-opacity="1.0" stroke="none" stroke-width="0"/>
    <polygon points="122.57211428571429,78.77491428571429 127.35702857142857,78.77491428571429 127.35702857142857,83.55982857142857 122.57211428571429,83.55982857142857" fill="#E8A89E" fill-opacity="1.0" stroke="none" stroke-width="0"/>
    <polygon points="127.35702857142857,78.77491428571429 132.14194285714285,78.77491428571429 132.14194285714285,83.55982857142857 127.35702857142857,83.55982857142857" fill="#E8A89E" fill-opacity="1.0" stroke="none" stroke-width="0"/>
    <polygon points="132.14194285714285,78.77491428571429 136.92685714285713,78.77491428571429 136.92685714285713,83.55982857142857 132.14194285714285,83.55982857142857" fill="#E8A89E" fill-opacity="1.0" stroke="none" stroke-width="0"/>
    <polygon points="136.92685714285716,78.77491428571429 141.71177142857144,78.77491428571429 141.71177142857144,83.55982857142857 136.92685714285716,83.55982857142857" fill="#E8A89E" fill-opacity="1.0" stroke="none" stroke-width="0"/>
    <polygon points="141.7117714285714,78.77491428571429 146.4966857142857,78.77491428571429 146.4966857142857,83.55982857142857 141.7117714285714,83.55982857142857" fill="#E8A89E" fill-opacity="1.0" stroke="none" stroke-width="0"/>
    <polygon points="146.49668571428572,78.77491428571429 151.2816,78.77491428571429 151.2816,83.55982857142857 146.49668571428572,83.55982857142857" fill="#E8A89E" fill-opacity="1.0" stroke="none" stroke-width="0"/>
    <polygon points="151.2816,78.77491428571429 156.06651428571428,78.77491428571429 156.06651428571428,83.55982857142857 151.2816,83.55982857142857" fill="#E8A89E" fill-opacity="1.0" stroke="none" stroke-width="0"/>
    <polygon points="156.06651428571428,78.77491428571429 160.85142857142856,78.77491428571429 160.85142857142856,83.55982857142857 156.06651428571428,83.55982857142857" fill="#E8A89E" fill-opacity="1.0" stroke="none" stroke-width="0"/>
    <polygon points="160.85142857142858,78.77491428571429 165.63634285714286,78.77491428571429 165.63634285714286,83.55982857142857 160.85142857142858,83.55982857142857" fill="#E8A89E" fill-opacity="1.0" stroke="none" stroke-width="0"/>
    <polygon points="165.63634285714286,78.77491428571429 170.42125714285714,78.77491428571429 170.42125714285714,83.55982857142857 165.63634285714286,83.55982857142857" fill="#E8A89E" fill-opacity="1.0" stroke="none" stroke-width="0"/>
    <polygon points="170.42125714285714,78.77491428571429 175.20617142857142,78.77491428571429 175.20617142857142,83.55982857142857 170.42125714285714,83.55982857142857" fill="#E8A89E" fill-opacity="1.0" stroke="none" stroke-width="0"/>
    <polygon points="60.368228571428574,83.55982857142857 65.15314285714285,83.55982857142857 65.15314285714285,88.34474285714285 60.368228571428574,88.34474285714285" fill="#E8A89E" fill-opacity="1.0" stroke="none" stroke-width="0"/>
    <polygon points="65.15314285714285,83.55982857142857 69.93805714285713,83.55982857142857 69.93805714285713,88.34474285714285 65.15314285714285,88.34474285714285" fill="#E8A89E" fill-opacity="1.0" stroke="none" stroke-width="0"/>
    <polygon points="79.50788571428572,83.55982857142857 84.2928,83.55982857142857 84.2928,88.34474285714285 79.50788571428572,88.34474285714285" fill="#E8A89E" fill-opacity="1.0" stroke="none" stroke-width="0"/>
    <polygon points="84.2928,83.55982857142857 89.07771428571428,83.55982857142857 89.07771428571428,88.34474285714285 84.2928,88.34474285714285" fill="#E8A89E" fill-opacity="1.0" stroke="none" stroke-width="0"/>
    <polygon points="89.07771428571428,83.55982857142857 93.86262857142856,83.55982857142857 93.86262857142856,88.34474285714285 89.07771428571428,88.34474285714285" fill="#E8A89E" fill-opacity="1.0" stroke="none" stroke-width="0"/>
    <polygon points="93.86262857142857,83.55982857142857 98.64754285714285,83.55982857142857 98.64754285714285,88.34474285714285 93.86262857142857,88.34474285714285" fill="#E8A89E" fill-opacity="1.0" stroke="none" stroke-width="0"/>
    <polygon points="108.21737142857143,83.55982857142857 113.0022857142857,83.55982857142857 113.0022857142857,88.34474285714285 108.21737142857143,88.34474285714285" fill="#E8A89E" fill-opacity="1.0" stroke="none" stroke-width="0"/>
    <polygon points="113.00228571428572,83.55982857142857 117.7872,83.55982857142857 117.7872,88.34474285714285 113.00228571428572,88.34474285714285" fill="#E8A89E" fill-opacity="1.0" stroke="none" stroke-width="0"/>
    <polygon points="117.7872,83.55982857142857 122.57211428571428,83.55982857142857 122.57211428571428,88.34474285714285 117.7872,88.34474285714285" fill="#E8A89E" fill-opacity="1.0" stroke="none" stroke-width="0"/>
    <polygon points="122.57211428571429,83.55982857142857 127.35702857142857,83.55982857142857 127.35702857142857,88.34474285714285 122.57211428571429,88.34474285714285" fill="#E8A89E" fill-opacity="1.0" stroke="none" stroke-width="0"/>
    <polygon points="127.35702857142857,83.55982857142857 132.14194285714285,83.55982857142857 132.14194285714285,88.34474285714285 127.35702857142857,88.34474285714285" fill="#E8A89E" fill-opacity="1.0" stroke="none" stroke-width="0"/>
    <polygon points="132.14194285714285,83.55982857142857 136.92685714285713,83.55982857142857 136.92685714285713,88.34474285714285 132.14194285714285,88.34474285714285" fill="#E8A89E" fill-opacity="1.0" stroke="none" stroke-width="0"/>
    <polygon points="136.92685714285716,83.55982857142857 141.71177142857144,83.55982857142857 141.71177142857144,88.34474285714285 136.92685714285716,88.34474285714285" fill="#E8A89E" fill-opacity="1.0" stroke="none" stroke-width="0"/>
    <polygon points="141.7117714285714,83.55982857142857 146.4966857142857,83.55982857142857 146.4966857142857,88.34474285714285 141.7117714285714,88.34474285714285" fill="#E8A89E" fill-opacity="1.0" stroke="none" stroke-width="0"/>
    <polygon points="146.49668571428572,83.55982857142857 151.2816,83.55982857142857 151.2816,88.34474285714285 146.49668571428572,88.34474285714285" fill="#E8A89E" fill-opacity="1.0" stroke="none" stroke-width="0"/>
    <polygon points="151.2816,83.55982857142857 156.06651428571428,83.55982857142857 156.06651428571428,88.34474285714285 151.2816,88.34474285714285" fill="#E8A89E" fill-opacity="1.0" stroke="none" stroke-width="0"/>
    <polygon points="156.06651428571428,83.55982857142857 160.85142857142856,83.55982857142857 160.85142857142856,88.34474285714285 156.06651428571428,88.34474285714285" fill="#E8A89E" fill-opacity="1.0" stroke="none" stroke-width="0"/>
    <polygon points="160.85142857142858,83.55982857142857 165.63634285714286,83.55982857142857 165.63634285714286,88.34474285714285 160.85142857142858,88.34474285714285" fill="#E8A89E" fill-opacity="1.0" stroke="none" stroke-width="0"/>
    <polygon points="165.63634285714286,83.55982857142857 170.42125714285714,83.55982857142857 170.42125714285714,88.34474285714285 165.63634285714286,88.34474285714285" fill="#E8A89E" fill-opacity="1.0" stroke="none" stroke-width="0"/>
    <polygon points="170.42125714285714,83.55982857142857 175.20617142857142,83.55982857142857 175.20617142857142,88.34474285714285 170.42125714285714,88.34474285714285" fill="#E8A89E" fill-opacity="1.0" stroke="none" stroke-width="0"/>
    <polygon points="60.368228571428574,88.34474285714285 65.15314285714285,88.34474285714285 65.15314285714285,93.12965714285713 60.368228571428574,93.12965714285713" fill="#E8A89E" fill-opacity="1.0" stroke="none" stroke-width="0"/>
    <polygon points="65.15314285714285,88.34474285714285 69.93805714285713,88.34474285714285 69.93805714285713,93.12965714285713 65.15314285714285,93.12965714285713" fill="#E8A89E" fill-opacity="1.0" stroke="none" stroke-width="0"/>
    <polygon points="69.93805714285715,88.34474285714285 74.72297142857143,88.34474285714285 74.72297142857143,93.12965714285713 69.93805714285715,93.12965714285713" fill="#E8A89E" fill-opacity="1.0" stroke="none" stroke-width="0"/>
    <polygon points="74.72297142857143,88.34474285714285 79.5078857142857,88.34474285714285 79.5078857142857,93.12965714285713 74.72297142857143,93.12965714285713" fill="#E8A89E" fill-opacity="1.0" stroke="none" stroke-width="0"/>
    <polygon points="79.50788571428572,88.34474285714285 84.2928,88.34474285714285 84.2928,93.12965714285713 79.50788571428572,93.12965714285713" fill="#E8A89E" fill-opacity="1.0" stroke="none" stroke-width="0"/>
    <polygon points="84.2928,88.34474285714285 89.07771428571428,88.34474285714285 89.07771428571428,93.12965714285713 84.2928,93.12965714285713" fill="#E8A89E" fill-opacity="1.0" stroke="none" stroke-width="0"/>
    <polygon points="89.07771428571428,88.34474285714285 93.86262857142856,88.34474285714285 93.86262857142856,93.12965714285713 89.07771428571428,93.12965714285713" fill="#E8A89E" fill-opacity="1.0" stroke="none" stroke-width="0"/>
    <polygon points="93.86262857142857,88.34474285714285 98.64754285714285,88.34474285714285 98.64754285714285,93.12965714285713 93.86262857142857,93.12965714285713" fill="#E8A89E" fill-opacity="1.0" stroke="none" stroke-width="0"/>
    <polygon points="98.64754285714287,88.34474285714285 103.43245714285715,88.34474285714285 103.43245714285715,93.12965714285713 98.64754285714287,93.12965714285713" fill="#E8A89E" fill-opacity="1.0" stroke="none" stroke-width="0"/>
    <polygon points="103.43245714285715,88.34474285714285 108.21737142857143,88.34474285714285 108.21737142857143,93.12965714285713 103.43245714285715,93.12965714285713" fill="#E8A89E" fill-opacity="1.0" stroke="none" stroke-width="0"/>
    <polygon points="108.21737142857143,88.34474285714285 113.0022857142857,88.34474285714285 113.0022857142857,93.12965714285713 108.21737142857143,93.12965714285713" fill="#E8A89E" fill-opacity="1.0" stroke="none" stroke-width="0"/>
    <polygon points="113.00228571428572,88.34474285714285 117.7872,88.34474285714285 117.7872,93.12965714285713 113.00228571428572,93.12965714285713" fill="#E8A89E" fill-opacity="1.0" stroke="none" stroke-width="0"/>
    <polygon points="127.35702857142857,88.34474285714285 132.14194285714285,88.34474285714285 132.14194285714285,93.12965714285713 127.35702857142857,93.12965714285713" fill="#E8A89E" fill-opacity="1.0" stroke="none" stroke-width="0"/>
    <polygon points="132.14194285714285,88.34474285714285 136.92685714285713,88.34474285714285 136.92685714285713,93.12965714285713 132.14194285714285,93.12965714285713" fill="#E8A89E" fill-opacity="1.0" stroke="none" stroke-width="0"/>
    <polygon points="136.92685714285716,88.34474285714285 141.71177142857144,88.34474285714285 141.71177142857144,93.12965714285713 136.92685714285716,93.12965714285713" fill="#E8A89E" fill-opacity="1.0" stroke="none" stroke-width="0"/>
    <polygon points="141.7117714285714,88.34474285714285 146.4966857142857,88.34474285714285 146.4966857142857,93.12965714285713 141.7117714285714,93.12965714285713" fill="#E8A89E" fill-opacity="1.0" stroke="none" stroke-width="0"/>
    <polygon points="156.06651428571428,88.34474285714285 160.85142857142856,88.34474285714285 160.85142857142856,93.12965714285713 156.06651428571428,93.12965714285713" fill="#E8A89E" fill-opacity="1.0" stroke="none" stroke-width="0"/>
    <polygon points="160.85142857142858,88.34474285714285 165.63634285714286,88.34474285714285 165.63634285714286,93.12965714285713 160.85142857142858,93.12965714285713" fill="#E8A89E" fill-opacity="1.0" stroke="none" stroke-width="0"/>
    <polygon points="69.93805714285715,93.12965714285713 74.72297142857143,93.12965714285713 74.72297142857143,97.9145714285714 69.93805714285715,97.9145714285714" fill="#E8A89E" fill-opacity="1.0" stroke="none" stroke-width="0"/>
    <polygon points="74.72297142857143,93.12965714285713 79.5078857142857,93.12965714285713 79.5078857142857,97.9145714285714 74.72297142857143,97.9145714285714" fill="#E8A89E" fill-opacity="1.0" stroke="none" stroke-width="0"/>
    <polygon points="79.50788571428572,93.12965714285713 84.2928,93.12965714285713 84.2928,97.9145714285714 79.50788571428572,97.9145714285714" fill="#E8A89E" fill-opacity="1.0" stroke="none" stroke-width="0"/>
    <polygon points="84.2928,93.12965714285713 89.07771428571428,93.12965714285713 89.07771428571428,97.9145714285714 84.2928,97.9145714285714" fill="#E8A89E" fill-opacity="1.0" stroke="none" stroke-width="0"/>
    <polygon points="89.07771428571428,93.12965714285713 93.86262857142856,93.12965714285713 93.86262857142856,97.9145714285714 89.07771428571428,97.9145714285714" fill="#E8A89E" fill-opacity="1.0" stroke="none" stroke-width="0"/>
    <polygon points="93.86262857142857,93.12965714285713 98.64754285714285,93.12965714285713 98.64754285714285,97.9145714285714 93.86262857142857,97.9145714285714" fill="#E8A89E" fill-opacity="1.0" stroke="none" stroke-width="0"/>
    <polygon points="98.64754285714287,93.12965714285713 103.43245714285715,93.12965714285713 103.43245714285715,97.9145714285714 98.64754285714287,97.9145714285714" fill="#E8A89E" fill-opacity="1.0" stroke="none" stroke-width="0"/>
    <polygon points="103.43245714285715,93.12965714285713 108.21737142857143,93.12965714285713 108.21737142857143,97.9145714285714 103.43245714285715,97.9145714285714" fill="#E8A89E" fill-opacity="1.0" stroke="none" stroke-width="0"/>
    <polygon points="108.21737142857143,93.12965714285713 113.0022857142857,93.12965714285713 113.0022857142857,97.9145714285714 108.21737142857143,97.9145714285714" fill="#E8A89E" fill-opacity="1.0" stroke="none" stroke-width="0"/>
    <polygon points="113.00228571428572,93.12965714285713 117.7872,93.12965714285713 117.7872,97.9145714285714 113.00228571428572,97.9145714285714" fill="#E8A89E" fill-opacity="1.0" stroke="none" stroke-width="0"/>
    <polygon points="117.7872,93.12965714285713 122.57211428571428,93.12965714285713 122.57211428571428,97.9145714285714 117.7872,97.9145714285714" fill="#E8A89E" fill-opacity="1.0" stroke="none" stroke-width="0"/>
    <polygon points="122.57211428571429,93.12965714285713 127.35702857142857,93.12965714285713 127.35702857142857,97.9145714285714 122.57211428571429,97.9145714285714" fill="#E8A89E" fill-opacity="1.0" stroke="none" stroke-width="0"/>
    <polygon points="127.35702857142857,93.12965714285713 132.14194285714285,93.12965714285713 132.14194285714285,97.9145714285714 127.35702857142857,97.9145714285714" fill="#E8A89E" fill-opacity="1.0" stroke="none" stroke-width="0"/>
    <polygon points="132.14194285714285,93.12965714285713 136.92685714285713,93.12965714285713 136.92685714285713,97.9145714285714 132.14194285714285,97.9145714285714" fill="#E8A89E" fill-opacity="1.0" stroke="none" stroke-width="0"/>
    <polygon points="136.92685714285716,93.12965714285713 141.71177142857144,93.12965714285713 141.71177142857144,97.9145714285714 136.92685714285716,97.9145714285714" fill="#E8A89E" fill-opacity="1.0" stroke="none" stroke-width="0"/>
    <polygon points="141.7117714285714,93.12965714285713 146.4966857142857,93.12965714285713 146.4966857142857,97.9145714285714 141.7117714285714,97.9145714285714" fill="#E8A89E" fill-opacity="1.0" stroke="none" stroke-width="0"/>
    <polygon points="146.49668571428572,93.12965714285713 151.2816,93.12965714285713 151.2816,97.9145714285714 146.49668571428572,97.9145714285714" fill="#E8A89E" fill-opacity="1.0" stroke="none" stroke-width="0"/>
    <polygon points="151.2816,93.12965714285713 156.06651428571428,93.12965714285713 156.06651428571428,97.9145714285714 151.2816,97.9145714285714" fill="#E8A89E" fill-opacity="1.0" stroke="none" stroke-width="0"/>
    <polygon points="156.06651428571428,93.12965714285713 160.85142857142856,93.12965714285713 160.85142857142856,97.9145714285714 156.06651428571428,97.9145714285714" fill="#E8A89E" fill-opacity="1.0" stroke="none" stroke-width="0"/>
    <polygon points="160.85142857142858,93.12965714285713 165.63634285714286,93.12965714285713 165.63634285714286,97.9145714285714 160.85142857142858,97.9145714285714" fill="#E8A89E" fill-opacity="1.0" stroke="none" stroke-width="0"/>
    <polygon points="79.50788571428572,97.91457142857143 84.2928,97.91457142857143 84.2928,102.69948571428571 79.50788571428572,102.69948571428571" fill="#E8A89E" fill-opacity="1.0" stroke="none" stroke-width="0"/>
    <polygon points="84.2928,97.91457142857143 89.07771428571428,97.91457142857143 89.07771428571428,102.69948571428571 84.2928,102.69948571428571" fill="#E8A89E" fill-opacity="1.0" stroke="none" stroke-width="0"/>
    <polygon points="89.07771428571428,97.91457142857143 93.86262857142856,97.91457142857143 93.86262857142856,102.69948571428571 89.07771428571428,102.69948571428571" fill="#E8A89E" fill-opacity="1.0" stroke="none" stroke-width="0"/>
    <polygon points="93.86262857142857,97.91457142857143 98.64754285714285,97.91457142857143 98.64754285714285,102.69948571428571 93.86262857142857,102.69948571428571" fill="#E8A89E" fill-opacity="1.0" stroke="none" stroke-width="0"/>
    <polygon points="98.64754285714287,97.91457142857143 103.43245714285715,97.91457142857143 103.43245714285715,102.69948571428571 98.64754285714287,102.69948571428571" fill="#E8A89E" fill-opacity="1.0" stroke="none" stroke-width="0"/>
    <polygon points="103.43245714285715,97.91457142857143 108.21737142857143,97.91457142857143 108.21737142857143,102.69948571428571 103.43245714285715,102.69948571428571" fill="#E8A89E" fill-opacity="1.0" stroke="none" stroke-width="0"/>
    <polygon points="108.21737142857143,97.91457142857143 113.0022857142857,97.91457142857143 113.0022857142857,102.69948571428571 108.21737142857143,102.69948571428571" fill="#E8A89E" fill-opacity="1.0" stroke="none" stroke-width="0"/>
    <polygon points="113.00228571428572,97.91457142857143 117.7872,97.91457142857143 117.7872,102.69948571428571 113.00228571428572,102.69948571428571" fill="#E8A89E" fill-opacity="1.0" stroke="none" stroke-width="0"/>
    <polygon points="117.7872,97.91457142857143 122.57211428571428,97.91457142857143 122.57211428571428,102.69948571428571 117.7872,102.69948571428571" fill="#E8A89E" fill-opacity="1.0" stroke="none" stroke-width="0"/>
    <polygon points="122.57211428571429,97.91457142857143 127.35702857142857,97.91457142857143 127.35702857142857,102.69948571428571 122.57211428571429,102.69948571428571" fill="#E8A89E" fill-opacity="1.0" stroke="none" stroke-width="0"/>
    <polygon points="127.35702857142857,97.91457142857143 132.14194285714285,97.91457142857143 132.14194285714285,102.69948571428571 127.35702857142857,102.69948571428571" fill="#E8A89E" fill-opacity="1.0" stroke="none" stroke-width="0"/>
    <polygon points="132.14194285714285,97.91457142857143 136.92685714285713,97.91457142857143 136.92685714285713,102.69948571428571 132.14194285714285,102.69948571428571" fill="#E8A89E" fill-opacity="1.0" stroke="none" stroke-width="0"/>
    <polygon points="136.92685714285716,97.91457142857143 141.71177142857144,97.91457142857143 141.71177142857144,102.69948571428571 136.92685714285716,102.69948571428571" fill="#E8A89E" fill-opacity="1.0" stroke="none" stroke-width="0"/>
    <polygon points="141.7117714285714,97.91457142857143 146.4966857142857,97.91457142857143 146.4966857142857,102.69948571428571 141.7117714285714,102.69948571428571" fill="#E8A89E" fill-opacity="1.0" stroke="none" stroke-width="0"/>
    <polygon points="146.49668571428572,97.91457142857143 151.2816,97.91457142857143 151.2816,102.69948571428571 146.49668571428572,102.69948571428571" fill="#E8A89E" fill-opacity="1.0" stroke="none" stroke-width="0"/>
    <polygon points="151.2816,97.91457142857143 156.06651428571428,97.91457142857143 156.06651428571428,102.69948571428571 151.2816,102.69948571428571" fill="#E8A89E" fill-opacity="1.0" stroke="none" stroke-width="0"/>
    <polygon points="156.06651428571428,97.91457142857143 160.85142857142856,97.91457142857143 160.85142857142856,102.69948571428571 156.06651428571428,102.69948571428571" fill="#E8A89E" fill-opacity="1.0" stroke="none" stroke-width="0"/>
    <polygon points="160.85142857142858,97.91457142857143 165.63634285714286,97.91457142857143 165.63634285714286,102.69948571428571 160.85142857142858,102.69948571428571" fill="#E8A89E" fill-opacity="1.0" stroke="none" stroke-width="0"/>
    <polygon points="89.07771428571428,102.69948571428571 93.86262857142856,102.69948571428571 93.86262857142856,107.4844 89.07771428571428,107.4844" fill="#E8A89E" fill-opacity="1.0" stroke="none" stroke-width="0"/>
    <polygon points="93.86262857142857,102.69948571428571 98.64754285714285,102.69948571428571 98.64754285714285,107.4844 93.86262857142857,107.4844" fill="#E8A89E" fill-opacity="1.0" stroke="none" stroke-width="0"/>
    <polygon points="98.64754285714287,102.69948571428571 103.43245714285715,102.69948571428571 103.43245714285715,107.4844 98.64754285714287,107.4844" fill="#E8A89E" fill-opacity="1.0" stroke="none" stroke-width="0"/>
    <polygon points="103.43245714285715,102.69948571428571 108.21737142857143,102.69948571428571 108.21737142857143,107.4844 103.43245714285715,107.4844" fill="#E8A89E" fill-opacity="1.0" stroke="none" stroke-width="0"/>
    <polygon points="108.21737142857143,102.69948571428571 113.0022857142857,102.69948571428571 113.0022857142857,107.4844 108.21737142857143,107.4844" fill="#E8A89E" fill-opacity="1.0" stroke="none" stroke-width="0"/>
    <polygon points="113.00228571428572,102.69948571428571 117.7872,102.69948571428571 117.7872,107.4844 113.00228571428572,107.4844" fill="#E8A89E" fill-opacity="1.0" stroke="none" stroke-width="0"/>
    <polygon points="117.7872,102.69948571428571 122.57211428571428,102.69948571428571 122.57211428571428,107.4844 117.7872,107.4844" fill="#E8A89E" fill-opacity="1.0" stroke="none" stroke-width="0"/>
    <polygon points="122.57211428571429,102.69948571428571 127.35702857142857,102.69948571428571 127.35702857142857,107.4844 122.57211428571429,107.4844" fill="#E8A89E" fill-opacity="1.0" stroke="none" stroke-width="0"/>
    <polygon points="127.35702857142857,102.69948571428571 132.14194285714285,102.69948571428571 132.14194285714285,107.4844 127.35702857142857,107.4844" fill="#E8A89E" fill-opacity="1.0" stroke="none" stroke-width="0"/>
    <polygon points="132.14194285714285,102.69948571428571 136.92685714285713,102.69948571428571 136.92685714285713,107.4844 132.14194285714285,107.4844" fill="#E8A89E" fill-opacity="1.0" stroke="none" stroke-width="0"/>
    <polygon points="136.92685714285716,102.69948571428571 141.71177142857144,102.69948571428571 141.71177142857144,107.4844 136.92685714285716,107.4844" fill="#E8A89E" fill-opacity="1.0" stroke="none" stroke-width="0"/>
    <polygon points="141.7117714285714,102.69948571428571 146.4966857142857,102.69948571428571 146.4966857142857,107.4844 141.7117714285714,107.4844" fill="#E8A89E" fill-opacity="1.0" stroke="none" stroke-width="0"/>
    <polygon points="146.49668571428572,102.69948571428571 151.2816,102.69948571428571 151.2816,107.4844 146.49668571428572,107.4844" fill="#E8A89E" fill-opacity="1.0" stroke="none" stroke-width="0"/>
    <polygon points="151.2816,102.69948571428571 156.06651428571428,102.69948571428571 156.06651428571428,107.4844 151.2816,107.4844" fill="#E8A89E" fill-opacity="1.0" stroke="none" stroke-width="0"/>
    <polygon points="89.07771428571428,107.4844 93.86262857142856,107.4844 93.86262857142856,112.26931428571427 89.07771428571428,112.26931428571427" fill="#E8A89E" fill-opacity="1.0" stroke="none" stroke-width="0"/>
    <polygon points="93.86262857142857,107.4844 98.64754285714285,107.4844 98.64754285714285,112.26931428571427 93.86262857142857,112.26931428571427" fill="#E8A89E" fill-opacity="1.0" stroke="none" stroke-width="0"/>
    <polygon points="98.64754285714287,107.4844 103.43245714285715,107.4844 103.43245714285715,112.26931428571427 98.64754285714287,112.26931428571427" fill="#E8A89E" fill-opacity="1.0" stroke="none" stroke-width="0"/>
    <polygon points="103.43245714285715,107.4844 108.21737142857143,107.4844 108.21737142857143,112.26931428571427 103.43245714285715,112.26931428571427" fill="#E8A89E" fill-opacity="1.0" stroke="none" stroke-width="0"/>
    <polygon points="108.21737142857143,107.4844 113.0022857142857,107.4844 113.0022857142857,112.26931428571427 108.21737142857143,112.26931428571427" fill="#E8A89E" fill-opacity="1.0" stroke="none" stroke-width="0"/>
    <polygon points="113.00228571428572,107.4844 117.7872,107.4844 117.7872,112.26931428571427 113.00228571428572,112.26931428571427" fill="#E8A89E" fill-opacity="1.0" stroke="none" stroke-width="0"/>
    <polygon points="117.7872,107.4844 122.57211428571428,107.4844 122.57211428571428,112.26931428571427 117.7872,112.26931428571427" fill="#E8A89E" fill-opacity="1.0" stroke="none" stroke-width="0"/>
    <polygon points="122.57211428571429,107.4844 127.35702857142857,107.4844 127.35702857142857,112.26931428571427 122.57211428571429,112.26931428571427" fill="#E8A89E" fill-opacity="1.0" stroke="none" stroke-width="0"/>
    <polygon points="127.35702857142857,107.4844 132.14194285714285,107.4844 132.14194285714285,112.26931428571427 127.35702857142857,112.26931428571427" fill="#E8A89E" fill-opacity="1.0" stroke="none" stroke-width="0"/>
    <polygon points="132.14194285714285,107.4844 136.92685714285713,107.4844 136.92685714285713,112.26931428571427 132.14194285714285,112.26931428571427" fill="#E8A89E" fill-opacity="1.0" stroke="none" stroke-width="0"/>
    <polygon points="136.92685714285716,107.4844 141.71177142857144,107.4844 141.71177142857144,112.26931428571427 136.92685714285716,112.26931428571427" fill="#E8A89E" fill-opacity="1.0" stroke="none" stroke-width="0"/>
    <polygon points="141.7117714285714,107.4844 146.4966857142857,107.4844 146.4966857142857,112.26931428571427 141.7117714285714,112.26931428571427" fill="#E8A89E" fill-opacity="1.0" stroke="none" stroke-width="0"/>
    <polygon points="146.49668571428572,107.4844 151.2816,107.4844 151.2816,112.26931428571427 146.49668571428572,112.26931428571427" fill="#E8A89E" fill-opacity="1.0" stroke="none" stroke-width="0"/>
    <polygon points="151.2816,107.4844 156.06651428571428,107.4844 156.06651428571428,112.26931428571427 151.2816,112.26931428571427" fill="#E8A89E" fill-opacity="1.0" stroke="none" stroke-width="0"/>
    <polygon points="89.07771428571428,112.26931428571427 93.86262857142856,112.26931428571427 93.86262857142856,117.05422857142855 89.07771428571428,117.05422857142855" fill="#E8A89E" fill-opacity="1.0" stroke="none" stroke-width="0"/>
    <polygon points="93.86262857142857,112.26931428571427 98.64754285714285,112.26931428571427 98.64754285714285,117.05422857142855 93.86262857142857,117.05422857142855" fill="#E8A89E" fill-opacity="1.0" stroke="none" stroke-width="0"/>
    <polygon points="108.21737142857143,112.26931428571427 113.0022857142857,112.26931428571427 113.0022857142857,117.05422857142855 108.21737142857143,117.05422857142855" fill="#E8A89E" fill-opacity="1.0" stroke="none" stroke-width="0"/>
    <polygon points="113.00228571428572,112.26931428571427 117.7872,112.26931428571427 117.7872,117.05422857142855 113.00228571428572,117.05422857142855" fill="#E8A89E" fill-opacity="1.0" stroke="none" stroke-width="0"/>
    <polygon points="117.7872,112.26931428571427 122.57211428571428,112.26931428571427 122.57211428571428,117.05422857142855 117.7872,117.05422857142855" fill="#E8A89E" fill-opacity="1.0" stroke="none" stroke-width="0"/>
    <polygon points="122.57211428571429,112.26931428571427 127.35702857142857,112.26931428571427 127.35702857142857,117.05422857142855 122.57211428571429,117.05422857142855" fill="#E8A89E" fill-opacity="1.0" stroke="none" stroke-width="0"/>
    <polygon points="127.35702857142857,112.26931428571427 132.14194285714285,112.26931428571427 132.14194285714285,117.05422857142855 127.35702857142857,117.05422857142855" fill="#E8A89E" fill-opacity="1.0" stroke="none" stroke-width="0"/>
    <polygon points="132.14194285714285,112.26931428571427 136.92685714285713,112.26931428571427 136.92685714285713,117.05422857142855 132.14194285714285,117.05422857142855" fill="#E8A89E" fill-opacity="1.0" stroke="none" stroke-width="0"/>
    <polygon points="136.92685714285716,112.26931428571427 141.71177142857144,112.26931428571427 141.71177142857144,117.05422857142855 136.92685714285716,117.05422857142855" fill="#E8A89E" fill-opacity="1.0" stroke="none" stroke-width="0"/>
    <polygon points="141.7117714285714,112.26931428571427 146.4966857142857,112.26931428571427 146.4966857142857,117.05422857142855 141.7117714285714,117.05422857142855" fill="#E8A89E" fill-opacity="1.0" stroke="none" stroke-width="0"/>
    <polygon points="156.06651428571428,112.26931428571427 160.85142857142856,112.26931428571427 160.85142857142856,117.05422857142855 156.06651428571428,117.05422857142855" fill="#E8A89E" fill-opacity="1.0" stroke="none" stroke-width="0"/>
    <polygon points="160.85142857142858,112.26931428571427 165.63634285714286,112.26931428571427 165.63634285714286,117.05422857142855 160.85142857142858,117.05422857142855" fill="#E8A89E" fill-opacity="1.0" stroke="none" stroke-width="0"/>
    <polygon points="108.21737142857143,117.05422857142855 113.0022857142857,117.05422857142855 113.0022857142857,121.83914285714283 108.21737142857143,121.83914285714283" fill="#E8A89E" fill-opacity="1.0" stroke="none" stroke-width="0"/>
    <polygon points="113.00228571428572,117.05422857142855 117.7872,117.05422857142855 117.7872,121.83914285714283 113.00228571428572,121.83914285714283" fill="#E8A89E" fill-opacity="1.0" stroke="none" stroke-width="0"/>
    <polygon points="117.7872,117.05422857142855 122.57211428571428,117.05422857142855 122.57211428571428,121.83914285714283 117.7872,121.83914285714283" fill="#E8A89E" fill-opacity="1.0" stroke="none" stroke-width="0"/>
    <polygon points="122.57211428571429,117.05422857142855 127.35702857142857,117.05422857142855 127.35702857142857,121.83914285714283 122.57211428571429,121.83914285714283" fill="#E8A89E" fill-opacity="1.0" stroke="none" stroke-width="0"/>
    <polygon points="127.35702857142857,117.05422857142855 132.14194285714285,117.05422857142855 132.14194285714285,121.83914285714283 127.35702857142857,121.83914285714283" fill="#E8A89E" fill-opacity="1.0" stroke="none" stroke-width="0"/>
    <polygon points="132.14194285714285,117.05422857142855 136.92685714285713,117.05422857142855 136.92685714285713,121.83914285714283 132.14194285714285,121.83914285714283" fill="#E8A89E" fill-opacity="1.0" stroke="none" stroke-width="0"/>
    <polygon points="136.92685714285716,117.05422857142855 141.71177142857144,117.05422857142855 141.71177142857144,121.83914285714283 136.92685714285716,121.83914285714283" fill="#E8A89E" fill-opacity="1.0" stroke="none" stroke-width="0"/>
    <polygon points="141.7117714285714,117.05422857142855 146.4966857142857,117.05422857142855 146.4966857142857,121.83914285714283 141.7117714285714,121.83914285714283" fill="#E8A89E" fill-opacity="1.0" stroke="none" stroke-width="0"/>
    <polygon points="89.07771428571428,26.140857142857136 93.86262857142856,26.140857142857136 93.86262857142856,30.925771428571423 89.07771428571428,30.925771428571423" fill="#A65B5B" fill-opacity="1.0" stroke="none" stroke-width="0"/>
    <polygon points="93.86262857142857,26.140857142857136 98.64754285714285,26.140857142857136 98.64754285714285,30.925771428571423 93.86262857142857,30.925771428571423" fill="#A65B5B" fill-opacity="1.0" stroke="none" stroke-width="0"/>
    <polygon points="136.92685714285716,26.140857142857136 141.71177142857144,26.140857142857136 141.71177142857144,30.925771428571423 136.92685714285716,30.925771428571423" fill="#A65B5B" fill-opacity="1.0" stroke="none" stroke-width="0"/>
    <polygon points="141.7117714285714,26.140857142857136 146.4966857142857,26.140857142857136 146.4966857142857,30.925771428571423 141.7117714285714,30.925771428571423" fill="#A65B5B" fill-opacity="1.0" stroke="none" stroke-width="0"/>
    <polygon points="89.07771428571428,30.925771428571423 93.86262857142856,30.925771428571423 93.86262857142856,35.71068571428571 89.07771428571428,35.71068571428571" fill="#A65B5B" fill-opacity="1.0" stroke="none" stroke-width="0"/>
    <polygon points="93.86262857142857,30.925771428571423 98.64754285714285,30.925771428571423 98.64754285714285,35.71068571428571 93.86262857142857,35.71068571428571" fill="#A65B5B" fill-opacity="1.0" stroke="none" stroke-width="0"/>
    <polygon points="136.92685714285716,30.925771428571423 141.71177142857144,30.925771428571423 141.71177142857144,35.71068571428571 136.92685714285716,35.71068571428571" fill="#A65B5B" fill-opacity="1.0" stroke="none" stroke-width="0"/>
    <polygon points="141.7117714285714,30.925771428571423 146.4966857142857,30.925771428571423 146.4966857142857,35.71068571428571 141.7117714285714,35.71068571428571" fill="#A65B5B" fill-opacity="1.0" stroke="none" stroke-width="0"/>
    <polygon points="175.20617142857142,64.42017142857142 179.9910857142857,64.42017142857142 179.9910857142857,69.2050857142857 175.20617142857142,69.2050857142857" fill="#A65B5B" fill-opacity="1.0" stroke="none" stroke-width="0"/>
    <polygon points="179.9910857142857,64.42017142857142 184.77599999999998,64.42017142857142 184.77599999999998,69.2050857142857 179.9910857142857,69.2050857142857" fill="#A65B5B" fill-opacity="1.0" stroke="none" stroke-width="0"/>
    <polygon points="175.20617142857142,69.2050857142857 179.9910857142857,69.2050857142857 179.9910857142857,73.98999999999998 175.20617142857142,73.98999999999998" fill="#A65B5B" fill-opacity="1.0" stroke="none" stroke-width="0"/>
    <polygon points="179.9910857142857,69.2050857142857 184.77599999999998,69.2050857142857 184.77599999999998,73.98999999999998 179.9910857142857,73.98999999999998" fill="#A65B5B" fill-opacity="1.0" stroke="none" stroke-width="0"/>
    <polygon points="165.63634285714286,73.99 170.42125714285714,73.99 170.42125714285714,78.77491428571427 165.63634285714286,78.77491428571427" fill="#A65B5B" fill-opacity="1.0" stroke="none" stroke-width="0"/>
    <polygon points="170.42125714285714,73.99 175.20617142857142,73.99 175.20617142857142,78.77491428571427 170.42125714285714,78.77491428571427" fill="#A65B5B" fill-opacity="1.0" stroke="none" stroke-width="0"/>
    <polygon points="79.50788571428572,78.77491428571429 84.2928,78.77491428571429 84.2928,83.55982857142857 79.50788571428572,83.55982857142857" fill="#A65B5B" fill-opacity="1.0" stroke="none" stroke-width="0"/>
    <polygon points="84.2928,78.77491428571429 89.07771428571428,78.77491428571429 89.07771428571428,83.55982857142857 84.2928,83.55982857142857" fill="#A65B5B" fill-opacity="1.0" stroke="none" stroke-width="0"/>
    <polygon points="89.07771428571428,78.77491428571429 93.86262857142856,78.77491428571429 93.86262857142856,83.55982857142857 89.07771428571428,83.55982857142857" fill="#A65B5B" fill-opacity="1.0" stroke="none" stroke-width="0"/>
    <polygon points="93.86262857142857,78.77491428571429 98.64754285714285,78.77491428571429 98.64754285714285,83.55982857142857 93.86262857142857,83.55982857142857" fill="#A65B5B" fill-opacity="1.0" stroke="none" stroke-width="0"/>
    <polygon points="69.93805714285715,83.55982857142857 74.72297142857143,83.55982857142857 74.72297142857143,88.34474285714285 69.93805714285715,88.34474285714285" fill="#A65B5B" fill-opacity="1.0" stroke="none" stroke-width="0"/>
    <polygon points="74.72297142857143,83.55982857142857 79.5078857142857,83.55982857142857 79.5078857142857,88.34474285714285 74.72297142857143,88.34474285714285" fill="#A65B5B" fill-opacity="1.0" stroke="none" stroke-width="0"/>
    <polygon points="98.64754285714287,83.55982857142857 103.43245714285715,83.55982857142857 103.43245714285715,88.34474285714285 98.64754285714287,88.34474285714285" fill="#A65B5B" fill-opacity="1.0" stroke="none" stroke-width="0"/>
    <polygon points="103.43245714285715,83.55982857142857 108.21737142857143,83.55982857142857 108.21737142857143,88.34474285714285 103.43245714285715,88.34474285714285" fill="#A65B5B" fill-opacity="1.0" stroke="none" stroke-width="0"/>
    <polygon points="165.63634285714286,88.34474285714285 170.42125714285714,88.34474285714285 170.42125714285714,93.12965714285713 165.63634285714286,93.12965714285713" fill="#A65B5B" fill-opacity="1.0" stroke="none" stroke-width="0"/>
    <polygon points="170.42125714285714,88.34474285714285 175.20617142857142,88.34474285714285 175.20617142857142,93.12965714285713 170.42125714285714,93.12965714285713" fill="#A65B5B" fill-opacity="1.0" stroke="none" stroke-width="0"/>
    <polygon points="165.63634285714286,93.12965714285713 170.42125714285714,93.12965714285713 170.42125714285714,97.9145714285714 165.63634285714286,97.9145714285714" fill="#A65B5B" fill-opacity="1.0" stroke="none" stroke-width="0"/>
    <polygon points="170.42125714285714,93.12965714285713 175.20617142857142,93.12965714285713 175.20617142857142,97.9145714285714 170.42125714285714,97.9145714285714" fill="#A65B5B" fill-opacity="1.0" stroke="none" stroke-width="0"/>
    <polygon points="79.50788571428572,107.4844 84.2928,107.4844 84.2928,112.26931428571427 79.50788571428572,112.26931428571427" fill="#A65B5B" fill-opacity="1.0" stroke="none" stroke-width="0"/>
    <polygon points="84.2928,107.4844 89.07771428571428,107.4844 89.07771428571428,112.26931428571427 84.2928,112.26931428571427" fill="#A65B5B" fill-opacity="1.0" stroke="none" stroke-width="0"/>
    <polygon points="156.06651428571428,107.4844 160.85142857142856,107.4844 160.85142857142856,112.26931428571427 156.06651428571428,112.26931428571427" fill="#A65B5B" fill-opacity="1.0" stroke="none" stroke-width="0"/>
    <polygon points="160.85142857142858,107.4844 165.63634285714286,107.4844 165.63634285714286,112.26931428571427 160.85142857142858,112.26931428571427" fill="#A65B5B" fill-opacity="1.0" stroke="none" stroke-width="0"/>
    <polygon points="69.93805714285715,112.26931428571427 74.72297142857143,112.26931428571427 74.72297142857143,117.05422857142855 69.93805714285715,117.05422857142855" fill="#A65B5B" fill-opacity="1.0" stroke="none" stroke-width="0"/>
    <polygon points="74.72297142857143,112.26931428571427 79.5078857142857,112.26931428571427 79.5078857142857,117.05422857142855 74.72297142857143,117.05422857142855" fill="#A65B5B" fill-opacity="1.0" stroke="none" stroke-width="0"/>
    <polygon points="79.50788571428572,112.26931428571427 84.2928,112.26931428571427 84.2928,117.05422857142855 79.50788571428572,117.05422857142855" fill="#A65B5B" fill-opacity="1.0" stroke="none" stroke-width="0"/>
    <polygon points="84.2928,112.26931428571427 89.07771428571428,112.26931428571427 89.07771428571428,117.05422857142855 84.2928,117.05422857142855" fill="#A65B5B" fill-opacity="1.0" stroke="none" stroke-width="0"/>
    <polygon points="165.63634285714286,112.26931428571427 170.42125714285714,112.26931428571427 170.42125714285714,117.05422857142855 165.63634285714286,117.05422857142855" fill="#A65B5B" fill-opacity="1.0" stroke="none" stroke-width="0"/>
    <polygon points="170.42125714285714,112.26931428571427 175.20617142857142,112.26931428571427 175.20617142857142,117.05422857142855 170.42125714285714,117.05422857142855" fill="#A65B5B" fill-opacity="1.0" stroke="none" stroke-width="0"/>
    <polygon points="175.20617142857142,112.26931428571427 179.9910857142857,112.26931428571427 179.9910857142857,117.05422857142855 175.20617142857142,117.05422857142855" fill="#A65B5B" fill-opacity="1.0" stroke="none" stroke-width="0"/>
    <polygon points="179.9910857142857,112.26931428571427 184.77599999999998,112.26931428571427 184.77599999999998,117.05422857142855 179.9910857142857,117.05422857142855" fill="#A65B5B" fill-opacity="1.0" stroke="none" stroke-width="0"/>
    <polygon points="69.93805714285715,117.05422857142855 74.72297142857143,117.05422857142855 74.72297142857143,121.83914285714283 69.93805714285715,121.83914285714283" fill="#A65B5B" fill-opacity="1.0" stroke="none" stroke-width="0"/>
    <polygon points="74.72297142857143,117.05422857142855 79.5078857142857,117.05422857142855 79.5078857142857,121.83914285714283 74.72297142857143,121.83914285714283" fill="#A65B5B" fill-opacity="1.0" stroke="none" stroke-width="0"/>
    <polygon points="175.20617142857142,117.05422857142855 179.9910857142857,117.05422857142855 179.9910857142857,121.83914285714283 175.20617142857142,121.83914285714283" fill="#A65B5B" fill-opacity="1.0" stroke="none" stroke-width="0"/>
    <polygon points="179.9910857142857,117.05422857142855 184.77599999999998,117.05422857142855 184.77599999999998,121.83914285714283 179.9910857142857,121.83914285714283" fill="#A65B5B" fill-opacity="1.0" stroke="none" stroke-width="0"/>
    <polygon points="26.873828571428575,40.495599999999996 31.65874285714286,40.495599999999996 31.65874285714286,45.28051428571428 26.873828571428575,45.28051428571428" fill="#A68B4C" fill-opacity="1.0" stroke="none" stroke-width="0"/>
    <polygon points="31.658742857142858,40.495599999999996 36.44365714285714,40.495599999999996 36.44365714285714,45.28051428571428 31.658742857142858,45.28051428571428" fill="#A68B4C" fill-opacity="1.0" stroke="none" stroke-width="0"/>
    <polygon points="26.873828571428575,45.28051428571428 31.65874285714286,45.28051428571428 31.65874285714286,50.06542857142857 26.873828571428575,50.06542857142857" fill="#A68B4C" fill-opacity="1.0" stroke="none" stroke-width="0"/>
    <polygon points="31.658742857142858,45.28051428571428 36.44365714285714,45.28051428571428 36.44365714285714,50.06542857142857 31.658742857142858,50.06542857142857" fill="#A68B4C" fill-opacity="1.0" stroke="none" stroke-width="0"/>
    <polygon points="22.08891428571429,50.06542857142857 26.873828571428575,50.06542857142857 26.873828571428575,54.850342857142856 22.08891428571429,54.850342857142856" fill="#A68B4C" fill-opacity="1.0" stroke="none" stroke-width="0"/>
    <polygon points="26.873828571428575,50.06542857142857 31.65874285714286,50.06542857142857 31.65874285714286,54.850342857142856 26.873828571428575,54.850342857142856" fill="#A68B4C" fill-opacity="1.0" stroke="none" stroke-width="0"/>
    <polygon points="31.658742857142858,50.06542857142857 36.44365714285714,50.06542857142857 36.44365714285714,54.850342857142856 31.658742857142858,54.850342857142856" fill="#A68B4C" fill-opacity="1.0" stroke="none" stroke-width="0"/>
    <polygon points="26.873828571428575,54.85034285714285 31.65874285714286,54.85034285714285 31.65874285714286,59.635257142857135 26.873828571428575,59.635257142857135" fill="#A68B4C" fill-opacity="1.0" stroke="none" stroke-width="0"/>
    <polygon points="31.658742857142858,54.85034285714285 36.44365714285714,54.85034285714285 36.44365714285714,59.635257142857135 31.658742857142858,59.635257142857135" fill="#A68B4C" fill-opacity="1.0" stroke="none" stroke-width="0"/>
    <polygon points="22.08891428571429,59.63525714285714 26.873828571428575,59.63525714285714 26.873828571428575,64.42017142857142 22.08891428571429,64.42017142857142" fill="#A68B4C" fill-opacity="1.0" stroke="none" stroke-width="0"/>
    <polygon points="26.873828571428575,59.63525714285714 31.65874285714286,59.63525714285714 31.65874285714286,64.42017142857142 26.873828571428575,64.42017142857142" fill="#A68B4C" fill-opacity="1.0" stroke="none" stroke-width="0"/>
    <polygon points="31.658742857142858,59.63525714285714 36.44365714285714,59.63525714285714 36.44365714285714,64.42017142857142 31.658742857142858,64.42017142857142" fill="#A68B4C" fill-opacity="1.0" stroke="none" stroke-width="0"/>
    <polygon points="26.873828571428575,64.42017142857142 31.65874285714286,64.42017142857142 31.65874285714286,69.2050857142857 26.873828571428575,69.2050857142857" fill="#A68B4C" fill-opacity="1.0" stroke="none" stroke-width="0"/>
    <polygon points="31.658742857142858,64.42017142857142 36.44365714285714,64.42017142857142 36.44365714285714,69.2050857142857 31.658742857142858,69.2050857142857" fill="#A68B4C" fill-opacity="1.0" stroke="none" stroke-width="0"/>
    <polygon points="26.873828571428575,69.2050857142857 31.65874285714286,69.2050857142857 31.65874285714286,73.98999999999998 26.873828571428575,73.98999999999998" fill="#A68B4C" fill-opacity="1.0" stroke="none" stroke-width="0"/>
    <polygon points="31.658742857142858,69.2050857142857 36.44365714285714,69.2050857142857 36.44365714285714,73.98999999999998 31.658742857142858,73.98999999999998" fill="#A68B4C" fill-opacity="1.0" stroke="none" stroke-width="0"/>
    <polygon points="22.08891428571429,73.99 26.873828571428575,73.99 26.873828571428575,78.77491428571427 22.08891428571429,78.77491428571427" fill="#A68B4C" fill-opacity="1.0" stroke="none" stroke-width="0"/>
    <polygon points="26.873828571428575,73.99 31.65874285714286,73.99 31.65874285714286,78.77491428571427 26.873828571428575,78.77491428571427" fill="#A68B4C" fill-opacity="1.0" stroke="none" stroke-width="0"/>
    <polygon points="31.658742857142858,73.99 36.44365714285714,73.99 36.44365714285714,78.77491428571427 31.658742857142858,78.77491428571427" fill="#A68B4C" fill-opacity="1.0" stroke="none" stroke-width="0"/>
    <polygon points="36.44365714285715,73.99 41.228571428571435,73.99 41.228571428571435,78.77491428571427 36.44365714285715,78.77491428571427" fill="#A68B4C" fill-opacity="1.0" stroke="none" stroke-width="0"/>
    <polygon points="17.304000000000002,78.77491428571429 22.08891428571429,78.77491428571429 22.08891428571429,83.55982857142857 17.304000000000002,83.55982857142857" fill="#A68B4C" fill-opacity="1.0" stroke="none" stroke-width="0"/>
    <polygon points="22.08891428571429,78.77491428571429 26.873828571428575,78.77491428571429 26.873828571428575,83.55982857142857 22.08891428571429,83.55982857142857" fill="#A68B4C" fill-opacity="1.0" stroke="none" stroke-width="0"/>
    <polygon points="36.44365714285715,78.77491428571429 41.228571428571435,78.77491428571429 41.228571428571435,83.55982857142857 36.44365714285715,83.55982857142857" fill="#A68B4C" fill-opacity="1.0" stroke="none" stroke-width="0"/>
    <polygon points="41.22857142857143,78.77491428571429 46.013485714285714,78.77491428571429 46.013485714285714,83.55982857142857 41.22857142857143,83.55982857142857" fill="#A68B4C" fill-opacity="1.0" stroke="none" stroke-width="0"/>
    <polygon points="17.304000000000002,83.55982857142857 22.08891428571429,83.55982857142857 22.08891428571429,88.34474285714285 17.304000000000002,88.34474285714285" fill="#A68B4C" fill-opacity="1.0" stroke="none" stroke-width="0"/>
    <polygon points="22.08891428571429,83.55982857142857 26.873828571428575,83.55982857142857 26.873828571428575,88.34474285714285 22.08891428571429,88.34474285714285" fill="#A68B4C" fill-opacity="1.0" stroke="none" stroke-width="0"/>
    <polygon points="36.44365714285715,83.55982857142857 41.228571428571435,83.55982857142857 41.228571428571435,88.34474285714285 36.44365714285715,88.34474285714285" fill="#A68B4C" fill-opacity="1.0" stroke="none" stroke-width="0"/>
    <polygon points="41.22857142857143,83.55982857142857 46.013485714285714,83.55982857142857 46.013485714285714,88.34474285714285 41.22857142857143,88.34474285714285" fill="#A68B4C" fill-opacity="1.0" stroke="none" stroke-width="0"/>
    <polygon points="17.304000000000002,88.34474285714285 22.08891428571429,88.34474285714285 22.08891428571429,93.12965714285713 17.304000000000002,93.12965714285713" fill="#A68B4C" fill-opacity="1.0" stroke="none" stroke-width="0"/>
    <polygon points="22.08891428571429,88.34474285714285 26.873828571428575,88.34474285714285 26.873828571428575,93.12965714285713 22.08891428571429,93.12965714285713" fill="#A68B4C" fill-opacity="1.0" stroke="none" stroke-width="0"/>
    <polygon points="36.44365714285715,88.34474285714285 41.228571428571435,88.34474285714285 41.228571428571435,93.12965714285713 36.44365714285715,93.12965714285713" fill="#A68B4C" fill-opacity="1.0" stroke="none" stroke-width="0"/>
    <polygon points="41.22857142857143,88.34474285714285 46.013485714285714,88.34474285714285 46.013485714285714,93.12965714285713 41.22857142857143,93.12965714285713" fill="#A68B4C" fill-opacity="1.0" stroke="none" stroke-width="0"/>
    <polygon points="22.08891428571429,93.12965714285714 26.873828571428575,93.12965714285714 26.873828571428575,97.91457142857142 22.08891428571429,97.91457142857142" fill="#A68B4C" fill-opacity="1.0" stroke="none" stroke-width="0"/>
    <polygon points="26.873828571428575,93.12965714285714 31.65874285714286,93.12965714285714 31.65874285714286,97.91457142857142 26.873828571428575,97.91457142857142" fill="#A68B4C" fill-opacity="1.0" stroke="none" stroke-width="0"/>
    <polygon points="31.658742857142858,93.12965714285714 36.44365714285714,93.12965714285714 36.44365714285714,97.91457142857142 31.658742857142858,97.91457142857142" fill="#A68B4C" fill-opacity="1.0" stroke="none" stroke-width="0"/>
    <polygon points="36.44365714285715,93.12965714285714 41.228571428571435,93.12965714285714 41.228571428571435,97.91457142857142 36.44365714285715,97.91457142857142" fill="#A68B4C" fill-opacity="1.0" stroke="none" stroke-width="0"/>
    <polygon points="22.08891428571429,97.91457142857142 26.873828571428575,97.91457142857142 26.873828571428575,102.6994857142857 22.08891428571429,102.6994857142857" fill="#A68B4C" fill-opacity="1.0" stroke="none" stroke-width="0"/>
    <polygon points="36.44365714285715,97.91457142857142 41.228571428571435,97.91457142857142 41.228571428571435,102.6994857142857 36.44365714285715,102.6994857142857" fill="#A68B4C" fill-opacity="1.0" stroke="none" stroke-width="0"/>
    <polygon points="22.08891428571429,102.69948571428571 26.873828571428575,102.69948571428571 26.873828571428575,107.4844 22.08891428571429,107.4844" fill="#A68B4C" fill-opacity="1.0" stroke="none" stroke-width="0"/>
    <polygon points="26.873828571428575,102.69948571428571 31.65874285714286,102.69948571428571 31.65874285714286,107.4844 26.873828571428575,107.4844" fill="#A68B4C" fill-opacity="1.0" stroke="none" stroke-width="0"/>
    <polygon points="31.658742857142858,102.69948571428571 36.44365714285714,102.69948571428571 36.44365714285714,107.4844 31.658742857142858,107.4844" fill="#A68B4C" fill-opacity="1.0" stroke="none" stroke-width="0"/>
    <polygon points="36.44365714285715,102.69948571428571 41.228571428571435,102.69948571428571 41.228571428571435,107.4844 36.44365714285715,107.4844" fill="#A68B4C" fill-opacity="1.0" stroke="none" stroke-width="0"/>
    <polygon points="117.7872,88.34474285714285 122.57211428571428,88.34474285714285 122.57211428571428,93.12965714285713 117.7872,93.12965714285713" fill="#1A1A1A" fill-opacity="1.0" stroke="none" stroke-width="0"/>
    <polygon points="122.57211428571429,88.34474285714285 127.35702857142857,88.34474285714285 127.35702857142857,93.12965714285713 122.57211428571429,93.12965714285713" fill="#1A1A1A" fill-opacity="1.0" stroke="none" stroke-width="0"/>
    <polygon points="146.49668571428572,88.34474285714285 151.2816,88.34474285714285 151.2816,93.12965714285713 146.49668571428572,93.12965714285713" fill="#1A1A1A" fill-opacity="1.0" stroke="none" stroke-width="0"/>
    <polygon points="151.2816,88.34474285714285 156.06651428571428,88.34474285714285 156.06651428571428,93.12965714285713 151.2816,93.12965714285713" fill="#1A1A1A" fill-opacity="1.0" stroke="none" stroke-width="0"/>
    <polygon points="143.82999999999998,153.98 144.13,153.98 144.13,154.98 143.82999999999998,154.98" fill="#666666" fill-opacity="1.0" stroke="none" stroke-width="0"/>
    <polygon points="146.59,153.98 146.89000000000001,153.98 146.89000000000001,154.98 146.59,154.98" fill="#666666" fill-opacity="1.0" stroke="none" stroke-width="0"/>
    <polygon points="141.07,153.98 141.37,153.98 141.37,154.98 141.07,154.98" fill="#666666" fill-opacity="1.0" stroke="none" stroke-width="0"/>
    <polygon points="138.31,153.98 138.61,153.98 138.61,154.98 138.31,154.98" fill="#666666" fill-opacity="1.0" stroke="none" stroke-width="0"/>
    <polygon points="135.54999999999998,153.98 135.85,153.98 135.85,154.98 135.54999999999998,154.98" fill="#666666" fill-opacity="1.0" stroke="none" stroke-width="0"/>
    <polygon points="132.79,153.98 133.09,153.98 133.09,154.98 132.79,154.98" fill="#666666" fill-opacity="1.0" stroke="none" stroke-width="0"/>
    <polygon points="130.03,153.98 130.33,153.98 130.33,154.98 130.03,154.98" fill="#666666" fill-opacity="1.0" stroke="none" stroke-width="0"/>
    <polygon points="127.27,153.98 127.57000000000001,153.98 127.57000000000001,154.98 127.27,154.98" fill="#666666" fill-opacity="1.0" stroke="none" stroke-width="0"/>
    <polygon points="124.50999999999999,153.98 124.81,153.98 124.81,154.98 124.50999999999999,154.98" fill="#666666" fill-opacity="1.0" stroke="none" stroke-width="0"/>
    <polygon points="121.75,153.98 122.05000000000001,153.98 122.05000000000001,154.98 121.75,154.98" fill="#666666" fill-opacity="1.0" stroke="none" stroke-width="0"/>
    <polygon points="118.99,153.98 119.29,153.98 119.29,154.98 118.99,154.98" fill="#666666" fill-opacity="1.0" stroke="none" stroke-width="0"/>
    <polygon points="116.22999999999999,153.98 116.53,153.98 116.53,154.98 116.22999999999999,154.98" fill="#666666" fill-opacity="1.0" stroke="none" stroke-width="0"/>
    <polygon points="113.47,153.98 113.77000000000001,153.98 113.77000000000001,154.98 113.47,154.98" fill="#666666" fill-opacity="1.0" stroke="none" stroke-width="0"/>
    <polygon points="110.71,153.98 111.01,153.98 111.01,154.98 110.71,154.98" fill="#666666" fill-opacity="1.0" stroke="none" stroke-width="0"/>
    <polygon points="107.94999999999999,153.98 108.25,153.98 108.25,154.98 107.94999999999999,154.98" fill="#666666" fill-opacity="1.0" stroke="none" stroke-width="0"/>
    <polygon points="105.19,153.98 105.49000000000001,153.98 105.49000000000001,154.98 105.19,154.98" fill="#666666" fill-opacity="1.0" stroke="none" stroke-width="0"/>
    <polygon points="102.42999999999999,153.98 102.73,153.98 102.73,154.98 102.42999999999999,154.98" fill="#666666" fill-opacity="1.0" stroke="none" stroke-width="0"/>
    <polygon points="99.66999999999999,153.98 99.97,153.98 99.97,154.98 99.66999999999999,154.98" fill="#666666" fill-opacity="1.0" stroke="none" stroke-width="0"/>
    <polygon points="96.91,153.98 97.21000000000001,153.98 97.21000000000001,154.98 96.91,154.98" fill="#666666" fill-opacity="1.0" stroke="none" stroke-width="0"/>
    <polygon points="49.99,153.98 50.29,153.98 50.29,154.98 49.99,154.98" fill="#666666" fill-opacity="1.0" stroke="none" stroke-width="0"/>
    <polygon points="47.230000000000004,153.98 47.53,153.98 47.53,154.98 47.230000000000004,154.98" fill="#666666" fill-opacity="1.0" stroke="none" stroke-width="0"/>
    <polygon points="44.47,153.98 44.769999999999996,153.98 44.769999999999996,154.98 44.47,154.98" fill="#666666" fill-opacity="1.0" stroke="none" stroke-width="0"/>
    <polygon points="41.71,153.98 42.01,153.98 42.01,154.98 41.71,154.98" fill="#666666" fill-opacity="1.0" stroke="none" stroke-width="0"/>
    <polygon points="38.95,153.98 39.25,153.98 39.25,154.98 38.95,154.98" fill="#666666" fill-opacity="1.0" stroke="none" stroke-width="0"/>
    <polygon points="36.190000000000005,153.98 36.49,153.98 36.49,154.98 36.190000000000005,154.98" fill="#666666" fill-opacity="1.0" stroke="none" stroke-width="0"/>
    <polygon points="33.43,153.98 33.73,153.98 33.73,154.98 33.43,154.98" fill="#666666" fill-opacity="1.0" stroke="none" stroke-width="0"/>
    <polygon points="30.67,153.98 30.97,153.98 30.97,154.98 30.67,154.98" fill="#666666" fill-opacity="1.0" stroke="none" stroke-width="0"/>
    <polygon points="72.07,153.98 72.37,153.98 72.37,154.98 72.07,154.98" fill="#666666" fill-opacity="1.0" stroke="none" stroke-width="0"/>
    <polygon points="69.30999999999999,153.98 69.61,153.98 69.61,154.98 69.30999999999999,154.98" fill="#666666" fill-opacity="1.0" stroke="none" stroke-width="0"/>
    <polygon points="66.55,153.98 66.85000000000001,153.98 66.85000000000001,154.98 66.55,154.98" fill="#666666" fill-opacity="1.0" stroke="none" stroke-width="0"/>
    <polygon points="63.79,153.98 64.09,153.98 64.09,154.98 63.79,154.98" fill="#666666" fill-opacity="1.0" stroke="none" stroke-width="0"/>
    <polygon points="61.03,153.98 61.33,153.98 61.33,154.98 61.03,154.98" fill="#666666" fill-opacity="1.0" stroke="none" stroke-width="0"/>
    <polygon points="58.27,153.98 58.57,153.98 58.57,154.98 58.27,154.98" fill="#666666" fill-opacity="1.0" stroke="none" stroke-width="0"/>
    <polygon points="55.51,153.98 55.809999999999995,153.98 55.809999999999995,154.98 55.51,154.98" fill="#666666" fill-opacity="1.0" stroke="none" stroke-width="0"/>
    <polygon points="52.75,153.98 53.05,153.98 53.05,154.98 52.75,154.98" fill="#666666" fill-opacity="1.0" stroke="none" stroke-width="0"/>
    <polygon points="94.14999999999999,153.98 94.45,153.98 94.45,154.98 94.14999999999999,154.98" fill="#666666" fill-opacity="1.0" stroke="none" stroke-width="0"/>
    <polygon points="91.39,153.98 91.69000000000001,153.98 91.69000000000001,154.98 91.39,154.98" fill="#666666" fill-opacity="1.0" stroke="none" stroke-width="0"/>
    <polygon points="88.63,153.98 88.93,153.98 88.93,154.98 88.63,154.98" fill="#666666" fill-opacity="1.0" stroke="none" stroke-width="0"/>
    <polygon points="85.86999999999999,153.98 86.17,153.98 86.17,154.98 85.86999999999999,154.98" fill="#666666" fill-opacity="1.0" stroke="none" stroke-width="0"/>
    <polygon points="83.11,153.98 83.41000000000001,153.98 83.41000000000001,154.98 83.11,154.98" fill="#666666" fill-opacity="1.0" stroke="none" stroke-width="0"/>
    <polygon points="80.35,153.98 80.65,153.98 80.65,154.98 80.35,154.98" fill="#666666" fill-opacity="1.0" stroke="none" stroke-width="0"/>
    <polygon points="77.58999999999999,153.98 77.89,153.98 77.89,154.98 77.58999999999999,154.98" fill="#666666" fill-opacity="1.0" stroke="none" stroke-width="0"/>
    <polygon points="74.83,153.98 75.13000000000001,153.98 75.13000000000001,154.98 74.83,154.98" fill="#666666" fill-opacity="1.0" stroke="none" stroke-width="0"/>
    <polygon points="0.5,1.0 1.5,1.0 1.5,153.98 0.5,153.98" fill="#666666" fill-opacity="1.0" stroke="none" stroke-width="0"/>
    <polygon points="2.5,1.0 3.5,1.0 3.5,153.98 2.5,153.98" fill="#666666" fill-opacity="1.0" stroke="none" stroke-width="0"/>
  </g>
  <text x="400.0" y="25" text-anchor="middle" class="title">
    TinyTapeout Pixel Pig - Multi-Layer Silicon Art
  </text>
  <text x="400.0" y="45" text-anchor="middle" class="subtitle">
    met1: body | met2: details | met3: key | li1: eyes
  </text>
</svg>